<svg width="116" height="35" viewBox="0 0 116 35" fill="none" xmlns="http://www.w3.org/2000/svg">
<path d="M1.89844 8.25V13H0.570312V1.57812H3.70312C5.10417 1.57812 6.13802 1.84635 6.80469 2.38281C7.47656 2.91927 7.8125 3.72656 7.8125 4.80469C7.8125 6.3151 7.04688 7.33594 5.51562 7.86719L8.61719 13H7.04688L4.28125 8.25H1.89844ZM1.89844 7.10938H3.71875C4.65625 7.10938 5.34375 6.92448 5.78125 6.55469C6.21875 6.17969 6.4375 5.61979 6.4375 4.875C6.4375 4.11979 6.21354 3.57552 5.76562 3.24219C5.32292 2.90885 4.60938 2.74219 3.625 2.74219H1.89844V7.10938ZM17.6562 8.71094C17.6562 10.1068 17.3047 11.1979 16.6016 11.9844C15.8984 12.7656 14.9271 13.1562 13.6875 13.1562C12.9219 13.1562 12.2422 12.9766 11.6484 12.6172C11.0547 12.2578 10.5964 11.7422 10.2734 11.0703C9.95052 10.3984 9.78906 9.61198 9.78906 8.71094C9.78906 7.3151 10.138 6.22917 10.8359 5.45312C11.5339 4.67188 12.5026 4.28125 13.7422 4.28125C14.9401 4.28125 15.8906 4.67969 16.5938 5.47656C17.3021 6.27344 17.6562 7.35156 17.6562 8.71094ZM11.1328 8.71094C11.1328 9.80469 11.3516 10.638 11.7891 11.2109C12.2266 11.7839 12.8698 12.0703 13.7188 12.0703C14.5677 12.0703 15.2109 11.7865 15.6484 11.2188C16.0911 10.6458 16.3125 9.8099 16.3125 8.71094C16.3125 7.6224 16.0911 6.79688 15.6484 6.23438C15.2109 5.66667 14.5625 5.38281 13.7031 5.38281C12.8542 5.38281 12.2135 5.66146 11.7812 6.21875C11.349 6.77604 11.1328 7.60677 11.1328 8.71094ZM23.9219 4.29688C25.0469 4.29688 25.9193 4.68229 26.5391 5.45312C27.1641 6.21875 27.4766 7.30469 27.4766 8.71094C27.4766 10.1172 27.1615 11.2109 26.5312 11.9922C25.9062 12.7682 25.0365 13.1562 23.9219 13.1562C23.3646 13.1562 22.8542 13.0547 22.3906 12.8516C21.9323 12.6432 21.5469 12.3255 21.2344 11.8984H21.1406L20.8672 13H19.9375V0.84375H21.2344V3.79688C21.2344 4.45833 21.2135 5.05208 21.1719 5.57812H21.2344C21.8385 4.72396 22.7344 4.29688 23.9219 4.29688ZM23.7344 5.38281C22.849 5.38281 22.2109 5.63802 21.8203 6.14844C21.4297 6.65365 21.2344 7.50781 21.2344 8.71094C21.2344 9.91406 21.4349 10.776 21.8359 11.2969C22.237 11.8125 22.8802 12.0703 23.7656 12.0703C24.5625 12.0703 25.1562 11.7812 25.5469 11.2031C25.9375 10.6198 26.1328 9.78385 26.1328 8.69531C26.1328 7.58073 25.9375 6.75 25.5469 6.20312C25.1562 5.65625 24.5521 5.38281 23.7344 5.38281ZM33.3672 13.1562C32.1016 13.1562 31.1016 12.7708 30.3672 12C29.638 11.2292 29.2734 10.1589 29.2734 8.78906C29.2734 7.40885 29.612 6.3125 30.2891 5.5C30.9714 4.6875 31.8854 4.28125 33.0312 4.28125C34.1042 4.28125 34.9531 4.63542 35.5781 5.34375C36.2031 6.04688 36.5156 6.97656 36.5156 8.13281V8.95312H30.6172C30.6432 9.95833 30.8958 10.7214 31.375 11.2422C31.8594 11.763 32.5391 12.0234 33.4141 12.0234C34.3359 12.0234 35.2474 11.8307 36.1484 11.4453V12.6016C35.6901 12.7995 35.2552 12.9401 34.8438 13.0234C34.4375 13.112 33.9453 13.1562 33.3672 13.1562ZM33.0156 5.36719C32.3281 5.36719 31.7786 5.59115 31.3672 6.03906C30.9609 6.48698 30.7214 7.10677 30.6484 7.89844H35.125C35.125 7.08073 34.9427 6.45573 34.5781 6.02344C34.2135 5.58594 33.6927 5.36719 33.0156 5.36719ZM42.6406 4.28125C43.0208 4.28125 43.362 4.3125 43.6641 4.375L43.4844 5.57812C43.1302 5.5 42.8177 5.46094 42.5469 5.46094C41.8542 5.46094 41.2604 5.74219 40.7656 6.30469C40.276 6.86719 40.0312 7.56771 40.0312 8.40625V13H38.7344V4.4375H39.8047L39.9531 6.02344H40.0156C40.3333 5.46615 40.7161 5.03646 41.1641 4.73438C41.612 4.43229 42.1042 4.28125 42.6406 4.28125ZM48.0312 12.0859C48.2604 12.0859 48.4818 12.0703 48.6953 12.0391C48.9089 12.0026 49.0781 11.9661 49.2031 11.9297V12.9219C49.0625 12.9896 48.8542 13.0443 48.5781 13.0859C48.3073 13.1328 48.0625 13.1562 47.8438 13.1562C46.1875 13.1562 45.3594 12.2839 45.3594 10.5391V5.44531H44.1328V4.82031L45.3594 4.28125L45.9062 2.45312H46.6562V4.4375H49.1406V5.44531H46.6562V10.4844C46.6562 11 46.7786 11.3958 47.0234 11.6719C47.2682 11.9479 47.6042 12.0859 48.0312 12.0859ZM60.3281 13L56.4531 2.875H56.3906C56.4635 3.67708 56.5 4.63021 56.5 5.73438V13H55.2734V1.57812H57.2734L60.8906 11H60.9531L64.6016 1.57812H66.5859V13H65.2578V5.64062C65.2578 4.79688 65.2943 3.88021 65.3672 2.89062H65.3047L61.3984 13H60.3281ZM76.9219 8.71094C76.9219 10.1068 76.5703 11.1979 75.8672 11.9844C75.1641 12.7656 74.1927 13.1562 72.9531 13.1562C72.1875 13.1562 71.5078 12.9766 70.9141 12.6172C70.3203 12.2578 69.862 11.7422 69.5391 11.0703C69.2161 10.3984 69.0547 9.61198 69.0547 8.71094C69.0547 7.3151 69.4036 6.22917 70.1016 5.45312C70.7995 4.67188 71.7682 4.28125 73.0078 4.28125C74.2057 4.28125 75.1562 4.67969 75.8594 5.47656C76.5677 6.27344 76.9219 7.35156 76.9219 8.71094ZM70.3984 8.71094C70.3984 9.80469 70.6172 10.638 71.0547 11.2109C71.4922 11.7839 72.1354 12.0703 72.9844 12.0703C73.8333 12.0703 74.4766 11.7865 74.9141 11.2188C75.3568 10.6458 75.5781 9.8099 75.5781 8.71094C75.5781 7.6224 75.3568 6.79688 74.9141 6.23438C74.4766 5.66667 73.8281 5.38281 72.9688 5.38281C72.1198 5.38281 71.4792 5.66146 71.0469 6.21875C70.6146 6.77604 70.3984 7.60677 70.3984 8.71094ZM83.1094 4.28125C83.4896 4.28125 83.8307 4.3125 84.1328 4.375L83.9531 5.57812C83.599 5.5 83.2865 5.46094 83.0156 5.46094C82.3229 5.46094 81.7292 5.74219 81.2344 6.30469C80.7448 6.86719 80.5 7.56771 80.5 8.40625V13H79.2031V4.4375H80.2734L80.4219 6.02344H80.4844C80.8021 5.46615 81.1849 5.03646 81.6328 4.73438C82.0807 4.43229 82.5729 4.28125 83.1094 4.28125ZM89.6406 4.28125C90.0208 4.28125 90.362 4.3125 90.6641 4.375L90.4844 5.57812C90.1302 5.5 89.8177 5.46094 89.5469 5.46094C88.8542 5.46094 88.2604 5.74219 87.7656 6.30469C87.276 6.86719 87.0312 7.56771 87.0312 8.40625V13H85.7344V4.4375H86.8047L86.9531 6.02344H87.0156C87.3333 5.46615 87.7161 5.03646 88.1641 4.73438C88.612 4.43229 89.1042 4.28125 89.6406 4.28125ZM93.5625 13H92.2656V4.4375H93.5625V13ZM92.1562 2.11719C92.1562 1.82031 92.2292 1.60417 92.375 1.46875C92.5208 1.32812 92.7031 1.25781 92.9219 1.25781C93.1302 1.25781 93.3099 1.32812 93.4609 1.46875C93.612 1.60938 93.6875 1.82552 93.6875 2.11719C93.6875 2.40885 93.612 2.6276 93.4609 2.77344C93.3099 2.91406 93.1302 2.98438 92.9219 2.98438C92.7031 2.98438 92.5208 2.91406 92.375 2.77344C92.2292 2.6276 92.1562 2.40885 92.1562 2.11719ZM101.836 10.6641C101.836 11.4609 101.539 12.0755 100.945 12.5078C100.352 12.9401 99.5182 13.1562 98.4453 13.1562C97.3099 13.1562 96.4245 12.9766 95.7891 12.6172V11.4141C96.2005 11.6224 96.6406 11.7865 97.1094 11.9062C97.5833 12.026 98.0391 12.0859 98.4766 12.0859C99.1536 12.0859 99.6745 11.9792 100.039 11.7656C100.404 11.5469 100.586 11.2161 100.586 10.7734C100.586 10.4401 100.44 10.1562 100.148 9.92188C99.862 9.68229 99.2995 9.40104 98.4609 9.07812C97.6641 8.78125 97.0964 8.52344 96.7578 8.30469C96.4245 8.08073 96.1745 7.82812 96.0078 7.54688C95.8464 7.26562 95.7656 6.92969 95.7656 6.53906C95.7656 5.84115 96.0495 5.29167 96.6172 4.89062C97.1849 4.48438 97.9635 4.28125 98.9531 4.28125C99.875 4.28125 100.776 4.46875 101.656 4.84375L101.195 5.89844C100.336 5.54427 99.5573 5.36719 98.8594 5.36719C98.2448 5.36719 97.7812 5.46354 97.4688 5.65625C97.1562 5.84896 97 6.11458 97 6.45312C97 6.68229 97.0573 6.8776 97.1719 7.03906C97.2917 7.20052 97.4818 7.35417 97.7422 7.5C98.0026 7.64583 98.5026 7.85677 99.2422 8.13281C100.258 8.5026 100.943 8.875 101.297 9.25C101.656 9.625 101.836 10.0964 101.836 10.6641ZM109.812 13V7.46094C109.812 6.76302 109.654 6.24219 109.336 5.89844C109.018 5.55469 108.521 5.38281 107.844 5.38281C106.943 5.38281 106.284 5.6276 105.867 6.11719C105.456 6.60677 105.25 7.40885 105.25 8.52344V13H103.953V0.84375H105.25V4.52344C105.25 4.96615 105.229 5.33333 105.188 5.625H105.266C105.521 5.21354 105.883 4.89062 106.352 4.65625C106.826 4.41667 107.365 4.29688 107.969 4.29688C109.016 4.29688 109.799 4.54688 110.32 5.04688C110.846 5.54167 111.109 6.33073 111.109 7.41406V13H109.812ZM115.141 11.1406L115.258 11.3203C115.122 11.8411 114.927 12.4453 114.672 13.1328C114.417 13.8255 114.151 14.4688 113.875 15.0625H112.898C113.039 14.5208 113.193 13.8516 113.359 13.0547C113.531 12.2578 113.651 11.6198 113.719 11.1406H115.141ZM9.49219 35H7.97656L1.73438 25.4141H1.67188C1.75521 26.5391 1.79688 27.5703 1.79688 28.5078V35H0.570312V23.5781H2.07031L8.29688 33.125H8.35938C8.34896 32.9844 8.32552 32.5339 8.28906 31.7734C8.2526 31.0078 8.23958 30.4609 8.25 30.1328V23.5781H9.49219V35ZM19.1562 23.5781H20.5859L16.4688 35H15.1562L11.0625 23.5781H12.4688L15.0938 30.9688C15.3958 31.8177 15.6354 32.6432 15.8125 33.4453C16 32.6016 16.2448 31.7604 16.5469 30.9219L19.1562 23.5781ZM22.1641 35V23.5781H23.4922V35H22.1641ZM35.75 29.1797C35.75 31.0651 35.237 32.5078 34.2109 33.5078C33.1901 34.5026 31.7188 35 29.7969 35H26.6328V23.5781H30.1328C31.9089 23.5781 33.2891 24.0703 34.2734 25.0547C35.2578 26.0391 35.75 27.4141 35.75 29.1797ZM34.3438 29.2266C34.3438 27.737 33.9688 26.6146 33.2188 25.8594C32.474 25.1042 31.3646 24.7266 29.8906 24.7266H27.9609V33.8516H29.5781C31.1615 33.8516 32.3516 33.4635 33.1484 32.6875C33.9453 31.9062 34.3438 30.7526 34.3438 29.2266ZM38.3047 35V23.5781H39.6328V35H38.3047ZM49.9531 35L48.5312 31.3672H43.9531L42.5469 35H41.2031L45.7188 23.5312H46.8359L51.3281 35H49.9531ZM48.1172 30.1719L46.7891 26.6328C46.6172 26.1849 46.4401 25.6354 46.2578 24.9844C46.1432 25.4844 45.9792 26.0339 45.7656 26.6328L44.4219 30.1719H48.1172Z" fill="#9C9C9C"/>
</svg>
