<svg width="84" height="36" viewBox="0 0 84 36" fill="none" xmlns="http://www.w3.org/2000/svg">
<path d="M1.89844 8.25V13H0.570312V1.57812H3.70312C5.10417 1.57812 6.13802 1.84635 6.80469 2.38281C7.47656 2.91927 7.8125 3.72656 7.8125 4.80469C7.8125 6.3151 7.04688 7.33594 5.51562 7.86719L8.61719 13H7.04688L4.28125 8.25H1.89844ZM1.89844 7.10938H3.71875C4.65625 7.10938 5.34375 6.92448 5.78125 6.55469C6.21875 6.17969 6.4375 5.61979 6.4375 4.875C6.4375 4.11979 6.21354 3.57552 5.76562 3.24219C5.32292 2.90885 4.60938 2.74219 3.625 2.74219H1.89844V7.10938ZM15.5312 13L15.2734 11.7812H15.2109C14.7839 12.3177 14.3568 12.6823 13.9297 12.875C13.5078 13.0625 12.9792 13.1562 12.3438 13.1562C11.4948 13.1562 10.8281 12.9375 10.3438 12.5C9.86458 12.0625 9.625 11.4401 9.625 10.6328C9.625 8.90365 11.0078 7.9974 13.7734 7.91406L15.2266 7.86719V7.33594C15.2266 6.66406 15.0807 6.16927 14.7891 5.85156C14.5026 5.52865 14.0417 5.36719 13.4062 5.36719C12.6927 5.36719 11.8854 5.58594 10.9844 6.02344L10.5859 5.03125C11.0078 4.80208 11.4688 4.6224 11.9688 4.49219C12.474 4.36198 12.9792 4.29688 13.4844 4.29688C14.5052 4.29688 15.2604 4.52344 15.75 4.97656C16.2448 5.42969 16.4922 6.15625 16.4922 7.15625V13H15.5312ZM12.6016 12.0859C13.4089 12.0859 14.0417 11.8646 14.5 11.4219C14.9635 10.9792 15.1953 10.3594 15.1953 9.5625V8.78906L13.8984 8.84375C12.8672 8.88021 12.1224 9.04167 11.6641 9.32812C11.2109 9.60938 10.9844 10.0495 10.9844 10.6484C10.9844 11.1172 11.125 11.474 11.4062 11.7188C11.6927 11.9635 12.0911 12.0859 12.6016 12.0859ZM17.8125 4.4375H19.2031L21.0781 9.32031C21.4896 10.4349 21.7448 11.2396 21.8438 11.7344H21.9062C21.974 11.4688 22.1146 11.0156 22.3281 10.375C22.5469 9.72917 23.2552 7.75 24.4531 4.4375H25.8438L22.1641 14.1875C21.7995 15.151 21.3724 15.8333 20.8828 16.2344C20.3984 16.6406 19.8021 16.8438 19.0938 16.8438C18.6979 16.8438 18.3073 16.7995 17.9219 16.7109V15.6719C18.2083 15.7344 18.5286 15.7656 18.8828 15.7656C19.7734 15.7656 20.4089 15.2656 20.7891 14.2656L21.2656 13.0469L17.8125 4.4375ZM36.4766 2.60156C35.2214 2.60156 34.2292 3.02083 33.5 3.85938C32.776 4.69271 32.4141 5.83594 32.4141 7.28906C32.4141 8.78385 32.763 9.9401 33.4609 10.7578C34.1641 11.5703 35.1641 11.9766 36.4609 11.9766C37.2578 11.9766 38.1667 11.8333 39.1875 11.5469V12.7109C38.3958 13.0078 37.4193 13.1562 36.2578 13.1562C34.5755 13.1562 33.276 12.6458 32.3594 11.625C31.4479 10.6042 30.9922 9.15365 30.9922 7.27344C30.9922 6.09635 31.2109 5.0651 31.6484 4.17969C32.0911 3.29427 32.7266 2.61198 33.5547 2.13281C34.388 1.65365 35.3672 1.41406 36.4922 1.41406C37.6901 1.41406 38.737 1.63281 39.6328 2.07031L39.0703 3.21094C38.2057 2.80469 37.3411 2.60156 36.4766 2.60156ZM48.875 8.71094C48.875 10.1068 48.5234 11.1979 47.8203 11.9844C47.1172 12.7656 46.1458 13.1562 44.9062 13.1562C44.1406 13.1562 43.4609 12.9766 42.8672 12.6172C42.2734 12.2578 41.8151 11.7422 41.4922 11.0703C41.1693 10.3984 41.0078 9.61198 41.0078 8.71094C41.0078 7.3151 41.3568 6.22917 42.0547 5.45312C42.7526 4.67188 43.7214 4.28125 44.9609 4.28125C46.1589 4.28125 47.1094 4.67969 47.8125 5.47656C48.5208 6.27344 48.875 7.35156 48.875 8.71094ZM42.3516 8.71094C42.3516 9.80469 42.5703 10.638 43.0078 11.2109C43.4453 11.7839 44.0885 12.0703 44.9375 12.0703C45.7865 12.0703 46.4297 11.7865 46.8672 11.2188C47.3099 10.6458 47.5312 9.8099 47.5312 8.71094C47.5312 7.6224 47.3099 6.79688 46.8672 6.23438C46.4297 5.66667 45.7812 5.38281 44.9219 5.38281C44.0729 5.38281 43.4323 5.66146 43 6.21875C42.5677 6.77604 42.3516 7.60677 42.3516 8.71094ZM57.0156 13V7.46094C57.0156 6.76302 56.8568 6.24219 56.5391 5.89844C56.2214 5.55469 55.724 5.38281 55.0469 5.38281C54.151 5.38281 53.4948 5.625 53.0781 6.10938C52.6615 6.59375 52.4531 7.39323 52.4531 8.50781V13H51.1562V4.4375H52.2109L52.4219 5.60938H52.4844C52.75 5.1875 53.1224 4.86198 53.6016 4.63281C54.0807 4.39844 54.6146 4.28125 55.2031 4.28125C56.2344 4.28125 57.0104 4.53125 57.5312 5.03125C58.0521 5.52604 58.3125 6.32031 58.3125 7.41406V13H57.0156ZM62.2812 13H60.9844V0.84375H62.2812V13ZM68.6484 13.1562C67.3828 13.1562 66.3828 12.7708 65.6484 12C64.9193 11.2292 64.5547 10.1589 64.5547 8.78906C64.5547 7.40885 64.8932 6.3125 65.5703 5.5C66.2526 4.6875 67.1667 4.28125 68.3125 4.28125C69.3854 4.28125 70.2344 4.63542 70.8594 5.34375C71.4844 6.04688 71.7969 6.97656 71.7969 8.13281V8.95312H65.8984C65.9245 9.95833 66.1771 10.7214 66.6562 11.2422C67.1406 11.763 67.8203 12.0234 68.6953 12.0234C69.6172 12.0234 70.5286 11.8307 71.4297 11.4453V12.6016C70.9714 12.7995 70.5365 12.9401 70.125 13.0234C69.7188 13.112 69.2266 13.1562 68.6484 13.1562ZM68.2969 5.36719C67.6094 5.36719 67.0599 5.59115 66.6484 6.03906C66.2422 6.48698 66.0026 7.10677 65.9297 7.89844H70.4062C70.4062 7.08073 70.224 6.45573 69.8594 6.02344C69.4948 5.58594 68.974 5.36719 68.2969 5.36719ZM72.6562 4.4375H74.0469L75.9219 9.32031C76.3333 10.4349 76.5885 11.2396 76.6875 11.7344H76.75C76.8177 11.4688 76.9583 11.0156 77.1719 10.375C77.3906 9.72917 78.099 7.75 79.2969 4.4375H80.6875L77.0078 14.1875C76.6432 15.151 76.2161 15.8333 75.7266 16.2344C75.2422 16.6406 74.6458 16.8438 73.9375 16.8438C73.5417 16.8438 73.151 16.7995 72.7656 16.7109V15.6719C73.0521 15.7344 73.3724 15.7656 73.7266 15.7656C74.6172 15.7656 75.2526 15.2656 75.6328 14.2656L76.1094 13.0469L72.6562 4.4375ZM83.4375 11.1406L83.5547 11.3203C83.4193 11.8411 83.224 12.4453 82.9688 13.1328C82.7135 13.8255 82.4479 14.4688 82.1719 15.0625H81.1953C81.3359 14.5208 81.4896 13.8516 81.6562 13.0547C81.8281 12.2578 81.9479 11.6198 82.0156 11.1406H83.4375ZM0.570312 23.5781H3.79688C5.3125 23.5781 6.40885 23.8047 7.08594 24.2578C7.76302 24.7109 8.10156 25.4271 8.10156 26.4062C8.10156 27.0833 7.91146 27.6432 7.53125 28.0859C7.15625 28.5234 6.60677 28.8073 5.88281 28.9375V29.0156C7.61719 29.3125 8.48438 30.224 8.48438 31.75C8.48438 32.7708 8.13802 33.5677 7.44531 34.1406C6.75781 34.7135 5.79427 35 4.55469 35H0.570312V23.5781ZM1.89844 28.4688H4.08594C5.02344 28.4688 5.69792 28.3229 6.10938 28.0312C6.52083 27.7344 6.72656 27.237 6.72656 26.5391C6.72656 25.8984 6.4974 25.4375 6.03906 25.1562C5.58073 24.8698 4.85156 24.7266 3.85156 24.7266H1.89844V28.4688ZM1.89844 29.5938V33.8672H4.28125C5.20312 33.8672 5.89583 33.6901 6.35938 33.3359C6.82812 32.9766 7.0625 32.4167 7.0625 31.6562C7.0625 30.9479 6.82292 30.4271 6.34375 30.0938C5.86979 29.7604 5.14583 29.5938 4.17188 29.5938H1.89844ZM14.3672 35.1562C13.1016 35.1562 12.1016 34.7708 11.3672 34C10.638 33.2292 10.2734 32.1589 10.2734 30.7891C10.2734 29.4089 10.612 28.3125 11.2891 27.5C11.9714 26.6875 12.8854 26.2812 14.0312 26.2812C15.1042 26.2812 15.9531 26.6354 16.5781 27.3438C17.2031 28.0469 17.5156 28.9766 17.5156 30.1328V30.9531H11.6172C11.6432 31.9583 11.8958 32.7214 12.375 33.2422C12.8594 33.763 13.5391 34.0234 14.4141 34.0234C15.3359 34.0234 16.2474 33.8307 17.1484 33.4453V34.6016C16.6901 34.7995 16.2552 34.9401 15.8438 35.0234C15.4375 35.112 14.9453 35.1562 14.3672 35.1562ZM14.0156 27.3672C13.3281 27.3672 12.7786 27.5911 12.3672 28.0391C11.9609 28.487 11.7214 29.1068 11.6484 29.8984H16.125C16.125 29.0807 15.9427 28.4557 15.5781 28.0234C15.2135 27.5859 14.6927 27.3672 14.0156 27.3672ZM25.5938 35V29.4609C25.5938 28.763 25.4349 28.2422 25.1172 27.8984C24.7995 27.5547 24.3021 27.3828 23.625 27.3828C22.7292 27.3828 22.0729 27.625 21.6562 28.1094C21.2396 28.5938 21.0312 29.3932 21.0312 30.5078V35H19.7344V26.4375H20.7891L21 27.6094H21.0625C21.3281 27.1875 21.7005 26.862 22.1797 26.6328C22.6589 26.3984 23.1927 26.2812 23.7812 26.2812C24.8125 26.2812 25.5885 26.5312 26.1094 27.0312C26.6302 27.526 26.8906 28.3203 26.8906 29.4141V35H25.5938ZM33.1797 35.1562C31.9141 35.1562 30.9141 34.7708 30.1797 34C29.4505 33.2292 29.0859 32.1589 29.0859 30.7891C29.0859 29.4089 29.4245 28.3125 30.1016 27.5C30.7839 26.6875 31.6979 26.2812 32.8438 26.2812C33.9167 26.2812 34.7656 26.6354 35.3906 27.3438C36.0156 28.0469 36.3281 28.9766 36.3281 30.1328V30.9531H30.4297C30.4557 31.9583 30.7083 32.7214 31.1875 33.2422C31.6719 33.763 32.3516 34.0234 33.2266 34.0234C34.1484 34.0234 35.0599 33.8307 35.9609 33.4453V34.6016C35.5026 34.7995 35.0677 34.9401 34.6562 35.0234C34.25 35.112 33.7578 35.1562 33.1797 35.1562ZM32.8281 27.3672C32.1406 27.3672 31.5911 27.5911 31.1797 28.0391C30.7734 28.487 30.5339 29.1068 30.4609 29.8984H34.9375C34.9375 29.0807 34.7552 28.4557 34.3906 28.0234C34.026 27.5859 33.5052 27.3672 32.8281 27.3672ZM41.3125 34.0859C41.5417 34.0859 41.763 34.0703 41.9766 34.0391C42.1901 34.0026 42.3594 33.9661 42.4844 33.9297V34.9219C42.3438 34.9896 42.1354 35.0443 41.8594 35.0859C41.5885 35.1328 41.3438 35.1562 41.125 35.1562C39.4688 35.1562 38.6406 34.2839 38.6406 32.5391V27.4453H37.4141V26.8203L38.6406 26.2812L39.1875 24.4531H39.9375V26.4375H42.4219V27.4453H39.9375V32.4844C39.9375 33 40.0599 33.3958 40.3047 33.6719C40.5495 33.9479 40.8854 34.0859 41.3125 34.0859ZM45.5 35H44.2031V26.4375H45.5V35ZM44.0938 24.1172C44.0938 23.8203 44.1667 23.6042 44.3125 23.4688C44.4583 23.3281 44.6406 23.2578 44.8594 23.2578C45.0677 23.2578 45.2474 23.3281 45.3984 23.4688C45.5495 23.6094 45.625 23.8255 45.625 24.1172C45.625 24.4089 45.5495 24.6276 45.3984 24.7734C45.2474 24.9141 45.0677 24.9844 44.8594 24.9844C44.6406 24.9844 44.4583 24.9141 44.3125 24.7734C44.1667 24.6276 44.0938 24.4089 44.0938 24.1172ZM51.6719 35.1562C50.4323 35.1562 49.4714 34.776 48.7891 34.0156C48.112 33.25 47.7734 32.1693 47.7734 30.7734C47.7734 29.3411 48.1172 28.2344 48.8047 27.4531C49.4974 26.6719 50.4818 26.2812 51.7578 26.2812C52.1693 26.2812 52.5807 26.3255 52.9922 26.4141C53.4036 26.5026 53.7266 26.6068 53.9609 26.7266L53.5625 27.8281C53.276 27.7135 52.9635 27.6198 52.625 27.5469C52.2865 27.4688 51.987 27.4297 51.7266 27.4297C49.987 27.4297 49.1172 28.5391 49.1172 30.7578C49.1172 31.8099 49.3281 32.6172 49.75 33.1797C50.1771 33.7422 50.8073 34.0234 51.6406 34.0234C52.3542 34.0234 53.0859 33.8698 53.8359 33.5625V34.7109C53.263 35.0078 52.5417 35.1562 51.6719 35.1562Z" fill="#9C9C9C"/>
</svg>
