<svg width="78" height="35" viewBox="0 0 78 35" fill="none" xmlns="http://www.w3.org/2000/svg">
<path d="M8.75 12L7.32812 8.36719H2.75L1.34375 12H0L4.51562 0.531251H5.63281L10.125 12H8.75ZM6.91406 7.17188L5.58594 3.63281C5.41406 3.1849 5.23698 2.63542 5.05469 1.98438C4.9401 2.48438 4.77604 3.03385 4.5625 3.63281L3.21875 7.17188H6.91406ZM17.3594 12V6.46094C17.3594 5.76302 17.2005 5.24219 16.8828 4.89844C16.5651 4.55469 16.0677 4.38281 15.3906 4.38281C14.4948 4.38281 13.8385 4.625 13.4219 5.10938C13.0052 5.59375 12.7969 6.39323 12.7969 7.50781V12H11.5V3.4375H12.5547L12.7656 4.60938H12.8281C13.0938 4.1875 13.4661 3.86198 13.9453 3.63281C14.4245 3.39844 14.9583 3.28125 15.5469 3.28125C16.5781 3.28125 17.3542 3.53125 17.875 4.03125C18.3958 4.52604 18.6562 5.32031 18.6562 6.41406V12H17.3594ZM27.1875 12V6.46094C27.1875 5.76302 27.0286 5.24219 26.7109 4.89844C26.3932 4.55469 25.8958 4.38281 25.2188 4.38281C24.3229 4.38281 23.6667 4.625 23.25 5.10938C22.8333 5.59375 22.625 6.39323 22.625 7.50781V12H21.3281V3.4375H22.3828L22.5938 4.60938H22.6562C22.9219 4.1875 23.2943 3.86198 23.7734 3.63281C24.2526 3.39844 24.7865 3.28125 25.375 3.28125C26.4062 3.28125 27.1823 3.53125 27.7031 4.03125C28.224 4.52604 28.4844 5.32031 28.4844 6.41406V12H27.1875ZM34.7734 12.1562C33.5078 12.1562 32.5078 11.7708 31.7734 11C31.0443 10.2292 30.6797 9.15885 30.6797 7.78906C30.6797 6.40885 31.0182 5.3125 31.6953 4.5C32.3776 3.6875 33.2917 3.28125 34.4375 3.28125C35.5104 3.28125 36.3594 3.63542 36.9844 4.34375C37.6094 5.04688 37.9219 5.97656 37.9219 7.13281V7.95312H32.0234C32.0495 8.95833 32.3021 9.72135 32.7812 10.2422C33.2656 10.763 33.9453 11.0234 34.8203 11.0234C35.7422 11.0234 36.6536 10.8307 37.5547 10.4453V11.6016C37.0964 11.7995 36.6615 11.9401 36.25 12.0234C35.8438 12.112 35.3516 12.1562 34.7734 12.1562ZM34.4219 4.36719C33.7344 4.36719 33.1849 4.59115 32.7734 5.03906C32.3672 5.48698 32.1276 6.10677 32.0547 6.89844H36.5312C36.5312 6.08073 36.349 5.45573 35.9844 5.02344C35.6198 4.58594 35.099 4.36719 34.4219 4.36719ZM45.8203 7.25V12H44.4922V0.578126H47.625C49.026 0.578126 50.0599 0.846354 50.7266 1.38281C51.3984 1.91927 51.7344 2.72656 51.7344 3.80469C51.7344 5.3151 50.9688 6.33594 49.4375 6.86719L52.5391 12H50.9688L48.2031 7.25H45.8203ZM45.8203 6.10938H47.6406C48.5781 6.10938 49.2656 5.92448 49.7031 5.55469C50.1406 5.17969 50.3594 4.61979 50.3594 3.875C50.3594 3.11979 50.1354 2.57552 49.6875 2.24219C49.2448 1.90885 48.5312 1.74219 47.5469 1.74219H45.8203V6.10938ZM55.4844 12H54.1875V3.4375H55.4844V12ZM54.0781 1.11719C54.0781 0.820312 54.151 0.604168 54.2969 0.468751C54.4427 0.328126 54.625 0.257812 54.8438 0.257812C55.0521 0.257812 55.2318 0.328126 55.3828 0.468751C55.5339 0.609376 55.6094 0.825521 55.6094 1.11719C55.6094 1.40885 55.5339 1.6276 55.3828 1.77344C55.2318 1.91406 55.0521 1.98438 54.8438 1.98438C54.625 1.98438 54.4427 1.91406 54.2969 1.77344C54.151 1.6276 54.0781 1.40885 54.0781 1.11719ZM65.625 7.71094C65.625 9.10677 65.2734 10.1979 64.5703 10.9844C63.8672 11.7656 62.8958 12.1562 61.6562 12.1562C60.8906 12.1562 60.2109 11.9766 59.6172 11.6172C59.0234 11.2578 58.5651 10.7422 58.2422 10.0703C57.9193 9.39844 57.7578 8.61198 57.7578 7.71094C57.7578 6.3151 58.1068 5.22917 58.8047 4.45312C59.5026 3.67188 60.4714 3.28125 61.7109 3.28125C62.9089 3.28125 63.8594 3.67969 64.5625 4.47656C65.2708 5.27344 65.625 6.35156 65.625 7.71094ZM59.1016 7.71094C59.1016 8.80469 59.3203 9.63802 59.7578 10.2109C60.1953 10.7839 60.8385 11.0703 61.6875 11.0703C62.5365 11.0703 63.1797 10.7865 63.6172 10.2188C64.0599 9.64583 64.2812 8.8099 64.2812 7.71094C64.2812 6.6224 64.0599 5.79688 63.6172 5.23438C63.1797 4.66667 62.5312 4.38281 61.6719 4.38281C60.8229 4.38281 60.1823 4.66146 59.75 5.21875C59.3177 5.77604 59.1016 6.60677 59.1016 7.71094ZM73.4297 9.66406C73.4297 10.4609 73.1328 11.0755 72.5391 11.5078C71.9453 11.9401 71.112 12.1562 70.0391 12.1562C68.9036 12.1562 68.0182 11.9766 67.3828 11.6172V10.4141C67.7943 10.6224 68.2344 10.7865 68.7031 10.9062C69.1771 11.026 69.6328 11.0859 70.0703 11.0859C70.7474 11.0859 71.2682 10.9792 71.6328 10.7656C71.9974 10.5469 72.1797 10.2161 72.1797 9.77344C72.1797 9.4401 72.0339 9.15625 71.7422 8.92188C71.4557 8.68229 70.8932 8.40104 70.0547 8.07812C69.2578 7.78125 68.6901 7.52344 68.3516 7.30469C68.0182 7.08073 67.7682 6.82812 67.6016 6.54688C67.4401 6.26562 67.3594 5.92969 67.3594 5.53906C67.3594 4.84115 67.6432 4.29167 68.2109 3.89062C68.7786 3.48438 69.5573 3.28125 70.5469 3.28125C71.4688 3.28125 72.3698 3.46875 73.25 3.84375L72.7891 4.89844C71.9297 4.54427 71.151 4.36719 70.4531 4.36719C69.8385 4.36719 69.375 4.46354 69.0625 4.65625C68.75 4.84896 68.5938 5.11458 68.5938 5.45312C68.5938 5.68229 68.651 5.8776 68.7656 6.03906C68.8854 6.20052 69.0755 6.35417 69.3359 6.5C69.5964 6.64583 70.0964 6.85677 70.8359 7.13281C71.8516 7.5026 72.5365 7.875 72.8906 8.25C73.25 8.625 73.4297 9.09635 73.4297 9.66406ZM76.9062 10.1406L77.0234 10.3203C76.888 10.8411 76.6927 11.4453 76.4375 12.1328C76.1823 12.8255 75.9167 13.4688 75.6406 14.0625H74.6641C74.8047 13.5208 74.9583 12.8516 75.125 12.0547C75.2969 11.2578 75.4167 10.6198 75.4844 10.1406H76.9062ZM2.89844 34H1.57031V22.5781H7.9375V23.7578H2.89844V27.9375H7.63281V29.1172H2.89844V34ZM10.9375 34H9.64062V25.4375H10.9375V34ZM9.53125 23.1172C9.53125 22.8203 9.60417 22.6042 9.75 22.4688C9.89583 22.3281 10.0781 22.2578 10.2969 22.2578C10.5052 22.2578 10.6849 22.3281 10.8359 22.4688C10.987 22.6094 11.0625 22.8255 11.0625 23.1172C11.0625 23.4089 10.987 23.6276 10.8359 23.7734C10.6849 23.9141 10.5052 23.9844 10.2969 23.9844C10.0781 23.9844 9.89583 23.9141 9.75 23.7734C9.60417 23.6276 9.53125 23.4089 9.53125 23.1172ZM19.5469 34V28.4609C19.5469 27.763 19.388 27.2422 19.0703 26.8984C18.7526 26.5547 18.2552 26.3828 17.5781 26.3828C16.6823 26.3828 16.026 26.625 15.6094 27.1094C15.1927 27.5938 14.9844 28.3932 14.9844 29.5078V34H13.6875V25.4375H14.7422L14.9531 26.6094H15.0156C15.2812 26.1875 15.6536 25.862 16.1328 25.6328C16.612 25.3984 17.1458 25.2812 17.7344 25.2812C18.7656 25.2812 19.5417 25.5312 20.0625 26.0312C20.5833 26.526 20.8438 27.3203 20.8438 28.4141V34H19.5469ZM28.7812 34L28.5234 32.7812H28.4609C28.0339 33.3177 27.6068 33.6823 27.1797 33.875C26.7578 34.0625 26.2292 34.1562 25.5938 34.1562C24.7448 34.1562 24.0781 33.9375 23.5938 33.5C23.1146 33.0625 22.875 32.4401 22.875 31.6328C22.875 29.9036 24.2578 28.9974 27.0234 28.9141L28.4766 28.8672V28.3359C28.4766 27.6641 28.3307 27.1693 28.0391 26.8516C27.7526 26.5286 27.2917 26.3672 26.6562 26.3672C25.9427 26.3672 25.1354 26.5859 24.2344 27.0234L23.8359 26.0312C24.2578 25.8021 24.7188 25.6224 25.2188 25.4922C25.724 25.362 26.2292 25.2969 26.7344 25.2969C27.7552 25.2969 28.5104 25.5234 29 25.9766C29.4948 26.4297 29.7422 27.1562 29.7422 28.1562V34H28.7812ZM25.8516 33.0859C26.6589 33.0859 27.2917 32.8646 27.75 32.4219C28.2135 31.9792 28.4453 31.3594 28.4453 30.5625V29.7891L27.1484 29.8438C26.1172 29.8802 25.3724 30.0417 24.9141 30.3281C24.4609 30.6094 24.2344 31.0495 24.2344 31.6484C24.2344 32.1172 24.375 32.474 24.6562 32.7188C24.9427 32.9635 25.3411 33.0859 25.8516 33.0859ZM37.9453 31.6641C37.9453 32.4609 37.6484 33.0755 37.0547 33.5078C36.4609 33.9401 35.6276 34.1562 34.5547 34.1562C33.4193 34.1562 32.5339 33.9766 31.8984 33.6172V32.4141C32.3099 32.6224 32.75 32.7865 33.2188 32.9062C33.6927 33.026 34.1484 33.0859 34.5859 33.0859C35.263 33.0859 35.7839 32.9792 36.1484 32.7656C36.513 32.5469 36.6953 32.2161 36.6953 31.7734C36.6953 31.4401 36.5495 31.1562 36.2578 30.9219C35.9714 30.6823 35.4089 30.401 34.5703 30.0781C33.7734 29.7812 33.2057 29.5234 32.8672 29.3047C32.5339 29.0807 32.2839 28.8281 32.1172 28.5469C31.9557 28.2656 31.875 27.9297 31.875 27.5391C31.875 26.8411 32.1589 26.2917 32.7266 25.8906C33.2943 25.4844 34.0729 25.2812 35.0625 25.2812C35.9844 25.2812 36.8854 25.4688 37.7656 25.8438L37.3047 26.8984C36.4453 26.5443 35.6667 26.3672 34.9688 26.3672C34.3542 26.3672 33.8906 26.4635 33.5781 26.6562C33.2656 26.849 33.1094 27.1146 33.1094 27.4531C33.1094 27.6823 33.1667 27.8776 33.2812 28.0391C33.401 28.2005 33.5911 28.3542 33.8516 28.5C34.112 28.6458 34.612 28.8568 35.3516 29.1328C36.3672 29.5026 37.0521 29.875 37.4062 30.25C37.7656 30.625 37.9453 31.0964 37.9453 31.6641ZM42.8281 33.0859C43.0573 33.0859 43.2786 33.0703 43.4922 33.0391C43.7057 33.0026 43.875 32.9661 44 32.9297V33.9219C43.8594 33.9896 43.651 34.0443 43.375 34.0859C43.1042 34.1328 42.8594 34.1562 42.6406 34.1562C40.9844 34.1562 40.1562 33.2839 40.1562 31.5391V26.4453H38.9297V25.8203L40.1562 25.2812L40.7031 23.4531H41.4531V25.4375H43.9375V26.4453H41.4531V31.4844C41.4531 32 41.5755 32.3958 41.8203 32.6719C42.0651 32.9479 42.401 33.0859 42.8281 33.0859ZM49.625 25.2812C50.0052 25.2812 50.3464 25.3125 50.6484 25.375L50.4688 26.5781C50.1146 26.5 49.8021 26.4609 49.5312 26.4609C48.8385 26.4609 48.2448 26.7422 47.75 27.3047C47.2604 27.8672 47.0156 28.5677 47.0156 29.4062V34H45.7188V25.4375H46.7891L46.9375 27.0234H47C47.3177 26.4661 47.7005 26.0365 48.1484 25.7344C48.5964 25.4323 49.0885 25.2812 49.625 25.2812ZM57.5156 34L57.2578 32.7812H57.1953C56.7682 33.3177 56.3411 33.6823 55.9141 33.875C55.4922 34.0625 54.9635 34.1562 54.3281 34.1562C53.4792 34.1562 52.8125 33.9375 52.3281 33.5C51.849 33.0625 51.6094 32.4401 51.6094 31.6328C51.6094 29.9036 52.9922 28.9974 55.7578 28.9141L57.2109 28.8672V28.3359C57.2109 27.6641 57.0651 27.1693 56.7734 26.8516C56.487 26.5286 56.026 26.3672 55.3906 26.3672C54.6771 26.3672 53.8698 26.5859 52.9688 27.0234L52.5703 26.0312C52.9922 25.8021 53.4531 25.6224 53.9531 25.4922C54.4583 25.362 54.9635 25.2969 55.4688 25.2969C56.4896 25.2969 57.2448 25.5234 57.7344 25.9766C58.2292 26.4297 58.4766 27.1562 58.4766 28.1562V34H57.5156ZM54.5859 33.0859C55.3932 33.0859 56.026 32.8646 56.4844 32.4219C56.9479 31.9792 57.1797 31.3594 57.1797 30.5625V29.7891L55.8828 29.8438C54.8516 29.8802 54.1068 30.0417 53.6484 30.3281C53.1953 30.6094 52.9688 31.0495 52.9688 31.6484C52.9688 32.1172 53.1094 32.474 53.3906 32.7188C53.6771 32.9635 54.0755 33.0859 54.5859 33.0859Z" fill="#9C9C9C"/>
</svg>
