<svg width="216" height="19" viewBox="0 0 216 19" fill="none" xmlns="http://www.w3.org/2000/svg">
<path d="M214.848 15.7893C214.22 15.7893 213.696 16.3132 213.696 17.0204C213.696 17.7272 214.22 18.2511 214.848 18.2511C215.476 18.2511 216 17.7272 216 17.0204C216 16.3132 215.476 15.7893 214.848 15.7893ZM173.161 18.1722H178.45V17.7011L177.875 17.57C177.351 17.439 177.115 17.1511 177.115 16.4176V9.29573H178.346C179.105 9.29573 179.498 9.47895 179.55 11.0764L179.681 14.4279C179.786 17.439 180.65 18.2772 182.117 18.2772C183.609 18.2772 184.002 17.2558 184.002 15.8157V15.2133H183.452V15.6582C183.452 16.6275 183.321 17.3082 182.954 17.3082C182.614 17.3082 182.588 17.0465 182.509 15.8418L182.352 13.5379C182.143 10.4479 181.75 9.37429 179.472 8.95502C181.645 8.37929 182.981 6.7818 182.981 4.50359C182.981 1.54466 180.65 0.130721 178.425 0.130721H169.496V0.602142L169.993 0.706785C170.936 0.91642 170.962 1.41393 170.962 3.535V13.9564C170.962 16.2872 170.307 17.4129 168.814 17.4129C167.48 17.4129 166.746 16.7582 166.746 14.2182V1.83285C166.746 1.09964 166.981 0.890352 167.557 0.759288L168.265 0.602142V0.130721H162.792V0.602142L163.368 0.759288C163.892 0.91643 164.075 1.12606 164.075 1.85893V14.035C164.075 16.7843 165.672 18.3032 168.108 18.3032C170.543 18.3032 171.747 16.7843 171.747 13.9564V2.59216C171.747 1.17822 172.036 0.680707 173.187 0.680707C174.104 0.680707 174.497 0.994991 174.497 1.85893V16.4176C174.497 17.1511 174.261 17.4129 173.737 17.5439L173.161 17.7011V18.1722ZM208.301 1.85893C208.301 1.12606 208.537 0.890353 209.061 0.785366L209.768 0.62822V0.130721H204.321V0.602142L204.897 0.759288C205.421 0.91643 205.657 1.12606 205.657 1.85893V16.5229C205.657 17.2297 205.369 17.6225 204.557 17.6225C203.614 17.6225 203.483 17.3082 203.143 15.7636L199.792 0.0785647H198.744L195.55 15.2657C195.183 16.9675 195 17.3607 194.292 17.57L193.847 17.7011V18.1722H197.592V17.7011L197.042 17.5961C196.256 17.439 196.047 17.0204 196.44 15.03L198.325 5.31537L200.394 15.6061C200.708 17.0986 200.682 17.3868 199.556 17.5961L199.006 17.7011V18.1722H212.884V12.2022H212.386C212.125 14.9515 211.575 17.5439 209.349 17.5439H208.301V1.85893ZM200.132 13.3018V12.595H196.597L196.492 13.3018H200.132ZM185.521 2.17322V14.6897C185.521 16.575 185.521 17.4654 184.578 17.6225L184.107 17.7011V18.1722H187.956V17.7011C186.28 17.4654 186.28 16.8893 186.28 14.8468V2.95892L185.652 2.38285L192.067 18.1722H193.166V3.61356C193.166 1.46642 193.166 0.994991 194.214 0.706785L194.581 0.602142V0.130721H190.626V0.602142L191.072 0.706785C192.407 0.942497 192.407 1.46643 192.407 3.45644V12.5686L192.669 12.49L187.799 0.130721H184.054V0.602142L184.421 0.706785C184.84 0.837849 185.076 1.30928 185.521 2.17322ZM177.115 0.759288H178.163C179.21 0.759288 180.179 1.44001 180.179 4.84429C180.179 8.3268 179.446 8.66716 177.98 8.66716H177.115V0.759288ZM159.676 8.98143C159.676 16.5486 159.048 17.6225 157.686 17.6225C156.325 17.6225 155.722 16.5486 155.722 9.03359C155.722 1.75429 156.377 0.706785 157.686 0.706785C159.048 0.706785 159.676 1.75428 159.676 8.98143ZM162.531 9.13858C162.531 4.13715 160.933 0 157.686 0C154.413 0 152.868 4.13715 152.868 9.13858C152.868 14.1661 154.465 18.3032 157.686 18.3032C161.012 18.3032 162.531 14.1661 162.531 9.13858ZM151.323 1.85893C151.323 1.12606 151.507 0.890352 152.03 0.759288L152.606 0.602142V0.130721H147.186V0.602142L147.84 0.759288C148.364 0.890352 148.652 1.07356 148.652 1.83285V14.4279C148.652 16.1822 148.495 17.5961 147.186 17.5961C146.348 17.5961 145.72 16.9415 145.746 16.4704C145.824 15.6582 147.186 15.7111 147.291 14.4015C147.369 13.4589 146.767 13.0661 146.217 12.9879C145.405 12.8829 144.411 13.5636 144.384 14.9254C144.357 16.6797 145.51 18.2772 147.474 18.2772C149.647 18.2772 151.323 16.8107 151.323 14.0086V1.85893ZM63.8651 1.85893C63.8651 1.12606 64.1008 0.890353 64.6244 0.785366L65.3315 0.62822V0.130721H59.8851V0.602142L60.4612 0.759288C60.9847 0.91643 61.2205 1.12606 61.2205 1.85893V16.5229C61.2205 17.2297 60.9323 17.6225 60.1205 17.6225C59.178 17.6225 59.0208 17.3082 58.6805 15.7636L55.3287 0.0785647H54.2815L51.0869 15.2657C50.7204 16.9675 50.5369 17.3607 49.8301 17.57L49.3847 17.7011V18.1722H53.1294V17.7011L52.5794 17.5961C51.794 17.439 51.5844 17.0204 51.9772 15.03L53.8626 5.26288L55.9312 15.6061C56.219 17.0986 56.219 17.3868 55.0933 17.5961L54.5433 17.7011V18.1722H68.4476V12.2022H67.9501C67.6883 14.9515 67.1383 17.5439 64.9126 17.5439H63.8651V1.85893ZM136.764 0.759288H137.34C138.964 0.759288 139.514 3.35144 139.697 6.10108H140.194V0.130721H130.689V6.10108H131.187C131.37 3.35144 131.92 0.759288 133.543 0.759288H134.12V16.4176C134.12 17.1511 133.884 17.4129 133.36 17.5439L132.68 17.7011V18.1722H138.336V17.7011L137.523 17.5179C137.026 17.3868 136.764 17.2297 136.764 16.4176V0.759288ZM124.798 9.11217L125.609 9.13858C126.788 9.16467 127.128 9.61001 127.364 12.4643H127.861V5.18464H127.364C127.076 7.46286 126.761 8.43144 125.636 8.45786L124.798 8.48395V0.759305H126.604C128.621 0.759305 129.066 3.29931 129.354 6.1011H129.851V0.130737H120.818V0.602159L121.394 0.759305C121.996 0.916446 122.153 1.28322 122.153 1.88537V16.4176C122.153 17.1511 121.918 17.4129 121.394 17.544L120.818 17.7011V18.1722H130.113V12.2022H129.616C129.301 14.9254 128.961 17.544 126.604 17.544H124.798V9.11217ZM114.926 9.11217L115.738 9.13858C116.916 9.16467 117.256 9.61001 117.492 12.4643H117.989V5.18464H117.492C117.204 7.46286 116.89 8.43144 115.764 8.45786L114.926 8.48395V0.759305H116.733C118.749 0.759305 119.194 3.35146 119.482 6.1011H119.979V0.130737H110.684V0.602159L111.522 0.759305C112.124 0.916446 112.281 1.28322 112.281 1.88537V16.4176C112.281 17.1511 112.046 17.4129 111.522 17.544L110.946 17.7011V18.1722H120.241V12.2022H119.744C119.43 14.9254 119.089 17.544 116.733 17.544H114.926V9.11217ZM104.164 0.759288H104.949C105.997 0.759288 106.966 1.44001 106.966 4.84429C106.966 8.27431 106.233 8.66716 104.766 8.66716H104.164V0.759288ZM100.21 18.1722H105.499V17.7011L104.923 17.57C104.399 17.439 104.164 17.1511 104.164 16.4176V9.29573H105.133C105.892 9.29573 106.285 9.61001 106.337 11.0764L106.468 14.4279C106.573 17.439 107.437 18.2772 108.903 18.2772C110.396 18.2772 110.788 17.2558 110.788 15.8157V15.2133H110.239V15.6582C110.239 16.6275 110.108 17.3082 109.741 17.3082C109.401 17.3082 109.374 17.0465 109.296 15.8418L109.139 13.5379C108.929 10.3693 108.511 9.37429 106.259 8.95502C108.432 8.37929 109.767 6.7818 109.767 4.50359C109.767 1.54466 107.437 0.130721 105.211 0.130721H100.21V0.602142L100.786 0.759288C101.31 0.91643 101.545 1.12606 101.545 1.85893V16.4176C101.545 17.1511 101.31 17.4129 100.786 17.5439L100.21 17.7011V18.1722ZM96.2037 0.759288H96.7798C98.403 0.759288 98.953 3.35144 99.1366 6.10108H99.6337V0.130721H90.1287V6.10108H90.6262C90.8094 3.35144 91.3594 0.759288 92.983 0.759288H93.5591V16.4176C93.5591 17.1511 93.323 17.4129 92.7998 17.5439L92.1187 17.7011V18.1722H97.6437V17.7011L96.963 17.5439C96.2823 17.3868 96.2037 16.8632 96.2037 16.4176V0.759288ZM90.1548 13.485C90.1548 8.11716 84.2634 6.70323 84.2634 2.80179C84.2634 1.96393 84.5776 0.706785 85.8866 0.706785C87.7719 0.706785 88.4791 3.14215 88.7934 6.10108H89.2909V0.130721H88.9766C88.8455 0.706793 88.6098 0.968921 88.2698 0.968921C87.6673 0.968921 87.353 0.026078 85.913 0.026078C83.6873 0.026078 82.1684 1.88535 82.1684 4.32037C82.1684 8.74573 88.0601 10.6047 88.0601 14.6897C88.0601 16.5486 87.1959 17.5961 86.0176 17.5961C84.2634 17.5961 83.1112 15.5279 82.7969 12.2022H82.2994V18.1722H82.6137C82.8755 17.3082 83.2159 17.2297 83.5037 17.2297C84.0016 17.2297 84.5251 18.2772 86.0437 18.2772C88.3744 18.2772 90.1548 16.2611 90.1548 13.485ZM73.0037 1.85893C73.0037 1.12606 73.2394 0.890353 73.763 0.785366L74.4701 0.62822V0.130721H69.0237V0.602142L69.5998 0.759288C70.1233 0.91643 70.359 1.12606 70.359 1.85893V16.4176C70.359 17.1511 70.1233 17.4129 69.5998 17.5439L69.0237 17.7011V18.1722H77.5862V12.2022H77.0884C76.8269 14.9515 76.2769 17.5439 74.0512 17.5439H73.0037V1.85893ZM55.669 13.3018V12.595H52.1344L52.0294 13.3018H55.669ZM40.5344 18.2247H41.6079L44.0429 5.34179H43.6765L46.3472 18.2247H47.2901L50.4847 3.0375C50.8251 1.44001 51.0083 0.890343 51.6369 0.732863L52.1344 0.602142V0.130721H48.4422V0.602142L48.9922 0.706785C49.7776 0.863926 49.9608 1.33535 49.5944 3.27286L47.5258 13.4589H47.8401L45.7451 2.72321C45.5354 1.70179 45.4047 0.863926 46.269 0.706785L46.8447 0.602142V0.130721H41.7911V0.602142L42.1315 0.680707C42.6554 0.811432 42.734 1.12606 42.9433 2.12107L43.7551 6.0225L43.5979 3.66572L41.7911 13.1972H42.0269L39.9058 2.72321C39.6701 1.64963 39.5915 0.837848 40.4294 0.680707L40.8226 0.602142V0.130721H35.664V0.602142L36.1615 0.732863C36.6326 0.863927 36.8947 1.09964 37.209 2.53965L40.5344 18.2247ZM26.5515 9.11217L27.3633 9.13858C28.5415 9.16467 28.8818 9.61001 29.1176 12.4643H29.6151V5.18464H29.1176C28.8297 7.46286 28.5154 8.43144 27.3893 8.45786L26.5515 8.48395V0.759305H28.3583C30.3743 0.759305 30.8197 3.35146 31.1076 6.1011H31.6051V0.130737H22.5715V0.602159L23.1475 0.759305C23.7497 0.916446 23.9068 1.28322 23.9068 1.88537V16.4176C23.9068 17.1511 23.6711 17.4129 23.1475 17.544L22.5715 17.7011V18.1722H31.8672V12.2022H31.3694C31.0554 14.9254 30.715 17.544 28.3583 17.544H26.5515V9.11217ZM10.0811 18.1722H15.449V17.7011L14.8468 17.57C14.3754 17.4654 14.0611 17.1511 14.0611 16.4176V9.26965H18.015V16.4176C18.015 17.1511 17.7011 17.4654 17.2297 17.57L16.6275 17.7011V18.1722H21.9954V17.7011L21.4193 17.5439C20.8957 17.4129 20.6597 17.1247 20.6597 16.3918V1.85893C20.6597 1.12606 20.8957 0.890352 21.4193 0.759288L21.9954 0.602142V0.130721H16.6275V0.602142L17.2297 0.759288C17.6747 0.890352 18.015 1.07356 18.015 1.83285V8.5625H14.0611V1.83285C14.0611 1.09964 14.3493 0.890352 14.8468 0.759288L15.449 0.602142V0.130721H10.0811V0.602142L10.6572 0.759288C11.1811 0.91643 11.4165 1.12606 11.4165 1.85893V16.4176C11.4165 17.1511 11.1811 17.4129 10.6572 17.5439L10.0811 17.7011V18.1722ZM6.07467 0.759288H6.65108C8.27431 0.759288 8.8243 3.35144 9.00752 6.10108H9.50502V0.130721H0V6.10108H0.497502C0.68072 3.35144 1.23072 0.759288 2.85395 0.759288H3.43002V16.4176C3.43002 17.1511 3.19465 17.4129 2.67073 17.5439L1.99001 17.7011V18.1722H7.64608V17.7011L6.8343 17.5179C6.3368 17.3868 6.07467 17.2297 6.07467 16.4176V0.759288Z" fill="#1C1C21"/>
</svg>
