<svg width="162" height="116" viewBox="0 0 162 116" fill="none" xmlns="http://www.w3.org/2000/svg">
<path d="M41.622 0C21.0961 0 6.27179 15.3944 6.27179 36.4905C6.27179 48.4639 11.4033 59.297 21.6662 66.139L0 115.743H33.6397L66.139 66.7091C72.4108 57.5865 76.4019 47.8937 76.4019 36.4905C76.4019 13.6839 59.8672 0 41.622 0ZM126.576 0C106.05 0 91.2262 15.3944 91.2262 36.4905C91.2262 48.4639 96.3577 59.297 106.621 66.139L84.9544 115.743H118.594L151.093 66.7091C157.365 57.5865 161.356 47.8937 161.356 36.4905C161.356 13.6839 144.822 0 126.576 0Z" fill="#29AAE1"/>
</svg>
