<svg xmlns="http://www.w3.org/2000/svg" viewBox="0 0 150 150"><defs><style>.cls-1{isolation:isolate;}.cls-2{fill:#b4dbdc;}.cls-3{fill:#1d79a1;}.cls-4{fill:#fff;}.cls-5{fill:#67d3f4;mix-blend-mode:multiply;}</style></defs><g class="cls-1"><g id="Layer_1" data-name="Layer 1"><path class="cls-2" d="M102.11,40A9.84,9.84,0,0,0,100,52.93a9.54,9.54,0,0,0,16.42-9.65,9.88,9.88,0,0,0-12.31-4.42A13.3,13.3,0,0,0,102.11,40Z"/><path class="cls-2" d="M122.31,74.82c0-.93.17-1.91.14-2.84a4.07,4.07,0,0,0-.66-2.26,2.45,2.45,0,0,0-2.06-1c-.55,0-1.07.19-1.62.2a4.37,4.37,0,0,1-1.58-.43c-.75-.24-1.3.39-2,.38-.91,0-1.82,0-2.72,0l-4.44,0c-2.92,0-5.84,0-8.76,0a.2.2,0,0,0,0,.39h.26a.3.3,0,0,0,.06.23A9.45,9.45,0,0,1,100,71.5c.79,2.52.09,5.44.15,8s-.12,5.35-.17,7.79-.81,4.56-.77,7c0,2,.1,4,.05,6,0,.4.22.9-.07,1.18a2.08,2.08,0,0,1-1.17.45,2.52,2.52,0,0,0,.4.55,6.89,6.89,0,0,0,.64.4,3.81,3.81,0,0,0,.57.29,18.46,18.46,0,0,0,4.59,1.4,12.82,12.82,0,0,0,6.87-.33,16.55,16.55,0,0,0,7.1-5.45c3.62-4.51,3.7-10.68,3.92-16.16C122.21,80,122.36,77.4,122.31,74.82Z"/><path class="cls-2" d="M76.47,68.81c6.81,0,13.64,0,20.35,0a3.41,3.41,0,0,1,3.41,3.41c0,4.78-.17,10.83-.27,15.88-.27,13.56-.95,21.68-8.83,28.75a20,20,0,0,1-13.77,5.49c-8.38,0-17.44-5.34-20.42-13.4a53.35,53.35,0,0,1-2-6.77c-1.06-7,.19-20.41,1.45-33.81Z"/><path class="cls-2" d="M90.31,43.09a14.77,14.77,0,0,0-1-3.11,11.86,11.86,0,0,0-7.53-6.74A18.31,18.31,0,0,0,71,33.78,13.65,13.65,0,0,0,63,43.21a13.3,13.3,0,0,0-.37,3.56,8.32,8.32,0,0,0,.53,2.91.27.27,0,0,0-.11.3,6.38,6.38,0,0,0,2.08,3.37.54.54,0,0,0,.8-.05.51.51,0,0,0,0-.61q1.84.14,3.69.21l2.08.1c.38,0,.77,0,1.16,0a4.67,4.67,0,0,1,1,1.43,4,4,0,0,1,.3,1,4.46,4.46,0,0,1,.07.51l0,.2a2.62,2.62,0,0,1,0,.28c0,.17,0,.34-.08.5a3.41,3.41,0,0,0-.1.54c0,.1.08.15.16.17v0l0,.44a.05.05,0,0,0,0,0,1.79,1.79,0,0,0-.63.28c-.26.19-.3.71.1.78s1,.05,1.56.11l1.62.15a7.81,7.81,0,0,0,1.53,0,14.89,14.89,0,0,0,11.12-8.07A13.14,13.14,0,0,0,90.31,43.09Z"/><path class="cls-3" d="M74.15,76.4q0-4.62,0-9.23V59c0-1.14.28-5.17-1.23-5.59a12.33,12.33,0,0,0-3.09-.3c-11.27-.31-22.62-.16-33.9,0-2.11,0-5.11-.44-6.88,1-2.19,1.78-1.15,4.62-1.21,7q-.12,5-.19,10c-.1,7,.05,14,.05,21,0,1.38-.07,2.79.08,4.17a2.5,2.5,0,0,0,1.85,2.36,5.05,5.05,0,0,0,1.6.06c.76-.07,1.52-.08,2.28-.08l9,0c9.12,0,18.24.11,27.36,0a7.22,7.22,0,0,0,2-.13c.74.12,1.52-.66,1.84-1.3a8,8,0,0,0,.38-3.58C74.1,87.85,74.13,82.12,74.15,76.4Z"/><path class="cls-4" d="M60.6,68.25c-.33-.94.24-2.2-.15-3-.28-.59-.38-.35-1-.38-1,0-2.09-.18-3.12-.15l-4.64.1q-3.28.06-6.58.09a20.61,20.61,0,0,0-3.24,0c-.11,0-.47-.09-.56,0-.52.38-.34,3.73.3,3.73a.29.29,0,0,0,.16,0c.67-.29,1.6.06,2.29.12,1.14.1,2.27,0,3.41.15s.52,1.73.5,2.45c-.07,2-.09,4-.1,6s-.08,4-.08,6c0,.85,0,1.7.07,2.54,0,.42,0,.83.07,1.25a2.32,2.32,0,0,1,0,1.17,5.79,5.79,0,0,0,1.33.21c.62,0,1.23,0,1.85,0a10.24,10.24,0,0,1,1.92,0c.55-.58.15-3,.18-4.36,0-1.76,0-3.47.09-5.23,0-.86.18-10.07,0-10.11,2.36,0,4.59.08,7,0A.4.4,0,0,0,60.6,68.25Z"/><path class="cls-5" d="M74.1,89.32c0-7.67-.21-15.34-.21-23,0-3,.37-6.2-.16-9.16a.38.38,0,0,0-.72,0,21.55,21.55,0,0,0-.43,3.75c-.08,1.26-.14,2.51-.2,3.77-.13,2.54-.26,5.09-.37,7.64-.23,5.09-.5,10.18-.66,15.28l-.26,8.2c-9.87.34-19.74.62-29.6,1-1.37.06-2.73.12-4.1.22l-2,.15c-.38,0-.76,0-1.14.08h-.64c-.83,0-1.67,0-2.5,0a4.87,4.87,0,0,0-2.49.46.44.44,0,0,0,0,.74,4,4,0,0,0,2,.37c.83,0,1.66,0,2.5,0l4.55-.05,9.43-.12q9.28-.14,18.58-.19c1.33,0,2.72,0,4.07-.05a18.9,18.9,0,0,0,2.38,0,2.68,2.68,0,0,0,1.52-1.06l.06-.11a8.63,8.63,0,0,0,.23-3.72C73.89,92.19,74.1,90.76,74.1,89.32Z"/><path class="cls-5" d="M99.93,78.66a27.84,27.84,0,0,1,0-4,9.87,9.87,0,0,0-.21-4.52.45.45,0,0,0-.64-.24,0,0,0,0,0,0,0c-.11-.32-.69-.42-.74,0-.93,6.89-1.48,14-2.18,21-.67,6.64-.94,13.93-4,20-3,5.9-9,9.12-15.53,9.09a19.7,19.7,0,0,1-2.42-.18c-.8-.11-1.88-.11-2.13.66a1.14,1.14,0,0,0,.5,1.21,3.15,3.15,0,0,0,1.32.42,21.84,21.84,0,0,0,12.39-1.87,21.23,21.23,0,0,0,9.21-8.49,29.82,29.82,0,0,0,3.45-11.17c.73-5.64.79-11.39,1.15-17.07A38.2,38.2,0,0,0,99.93,78.66Z"/><path class="cls-5" d="M122.24,76.14a23.57,23.57,0,0,0-.12-4.68c-.05-.27-.1-.53-.14-.8a1.72,1.72,0,0,0-.27-.71V69.8a1,1,0,0,0-.17-.52A.64.64,0,0,0,121,69c-1.32,0-.61,6.34-.63,7.08a90.08,90.08,0,0,1-1.27,13.12c-.86,5-2.78,9.31-7.29,12-2.26,1.36-4.56,1.66-7,2.57a.53.53,0,0,0-.34.25.48.48,0,0,0,.36.59c5.15,1.26,10.86-2.44,13.33-5.83C121.72,93.93,121.84,90.65,122.24,76.14Z"/><path class="cls-5" d="M90.94,43.78a14.17,14.17,0,0,0-.28-1.73,9.8,9.8,0,0,0-.42-1.26,2,2,0,0,1-.36-.4c-.1-.15-.2-.3-.31-.44A10.74,10.74,0,0,1,89,38.9c-.32-.57-.67-1.12-1-1.68a.65.65,0,0,0-.23.31,2.76,2.76,0,0,0-.25-.44c-.17-.22-.59-.18-.57.16a17.88,17.88,0,0,0,.56,2.57,22.28,22.28,0,0,1,.29,2.7,18.22,18.22,0,0,1-.4,5.46,14.48,14.48,0,0,1-4.8,7.68A9.17,9.17,0,0,1,80.44,57a19.38,19.38,0,0,1-2.5.85.27.27,0,0,0,.07.53h.09a2.7,2.7,0,0,0-.33.22.57.57,0,0,0,.25,1,2.93,2.93,0,0,0,1.35,0,10,10,0,0,0,1.34-.28,15.87,15.87,0,0,0,2.49-1.11,14.69,14.69,0,0,0,4.16-3.53A15.44,15.44,0,0,0,90.94,43.78Z"/><path class="cls-5" d="M117.11,45.58a7.87,7.87,0,0,0-2.27-4.8.71.71,0,0,0-1.11.85,11.72,11.72,0,0,1,1.69,4.7,8.62,8.62,0,0,1-.22,2.48,10.15,10.15,0,0,1-.75,2.48,8.86,8.86,0,0,1-3.51,3.41,10.82,10.82,0,0,1-2.32.93,7.73,7.73,0,0,1-1.27.26,9.88,9.88,0,0,0-1.22.12.24.24,0,0,0-.06.43,4.5,4.5,0,0,0,2,.24,8.54,8.54,0,0,0,2.19-.33,9.73,9.73,0,0,0,3.89-2.23,11.92,11.92,0,0,0,2.58-3.74A9.1,9.1,0,0,0,117.11,45.58Z"/><path class="cls-2" d="M64.06,48.92a.1.1,0,0,0,0,.19A.1.1,0,0,0,64.06,48.92Z"/><path class="cls-3" d="M58.82,53.21a1,1,0,0,0-.51-.15H58.1a3.93,3.93,0,0,0-.6.06l-.89.15a.53.53,0,0,0-.37.49.5.5,0,0,0,.37.48l.89.16a5.8,5.8,0,0,0,.6.06h.21a1,1,0,0,0,.51-.14A.66.66,0,0,0,58.82,53.21Z"/><path d="M27.35,56.22c-.5,7.3-.46,14.65-.47,22q0,5.24.05,10.49c0,1.74.05,3.47.08,5.21,0,.87,0,1.74,0,2.61a3.06,3.06,0,0,0,.59,1.94c1,1.31,2.73,1,4.2,1l5.49,0c3.68,0,7.37,0,11.06,0,7.23,0,14.46,0,21.69-.19,1.47,0,3.14.18,4.14-1.13a3.1,3.1,0,0,0,.55-1.94l0-2.56c0-3.52.08-7,.11-10.56,0-7.18,0-14.36,0-21.54,0-1.74,0-3.48-.07-5.22,0-1.46,0-3-1.51-3.71a7.4,7.4,0,0,0-3.18-.31H67q-7.26,0-14.51,0-10.69,0-21.4.13h-.37a.76.76,0,0,0,0,1.51q8.48-.07,17-.11,7.17,0,14.34,0l6.51,0,2.86,0a2.23,2.23,0,0,1,1.44.26c.55.43.45,1.16.46,1.78.13,6.88.16,13.76.14,20.63,0,3.43,0,6.86-.07,10.29,0,1.68,0,3.36,0,5l0,2.48a16.88,16.88,0,0,1,0,2.36,1.21,1.21,0,0,1-1.12,1c-.81.09-1.67,0-2.5.06-1.73,0-3.46.08-5.19.11-3.51,0-7,.09-10.52.1-7,0-14.08,0-21.12,0H30.19c-.65,0-1.29,0-1.6-.73A6.93,6.93,0,0,1,28.45,95c0-.87,0-1.73-.05-2.6-.07-3.37-.11-6.74-.15-10.11-.07-6.88,0-13.77.06-20.66,0-1.81,0-3.62,0-5.43a.48.48,0,0,0-.95,0Z"/><path d="M63.36,50.16a14.86,14.86,0,0,1,2.5-11.7,14,14,0,0,1,21.88-.56,12.57,12.57,0,0,1,1.84,12.5A14.18,14.18,0,0,1,77.93,59c-.64.08-.65,1.1,0,1a15.51,15.51,0,0,0,11.71-7.46,13.38,13.38,0,0,0,0-13.52,14.89,14.89,0,0,0-23.34-2.42,15.3,15.3,0,0,0-3.52,13.72c.1.39.68.22.6-.17Z"/><path d="M102.08,39.91a3.6,3.6,0,0,0-2,1.7,10.3,10.3,0,0,0-1.37,2.58,10.68,10.68,0,0,0-.4,5.82,9.74,9.74,0,0,0,8.23,7.44,9.59,9.59,0,0,0,10-4.78,10.11,10.11,0,0,0-.65-11.11c-2.66-3.33-8-5-11.92-3a.36.36,0,0,0,.28.65,10,10,0,0,1,5.25-.47,9.77,9.77,0,0,1,4.73,2.38,8.85,8.85,0,0,1,2,9.79A8.69,8.69,0,0,1,108,56.51,9.09,9.09,0,0,1,99.53,51a9.64,9.64,0,0,1-.3-5.82,9.76,9.76,0,0,1,1.21-2.79,19.34,19.34,0,0,0,1.77-2.33.12.12,0,0,0-.13-.18Z"/><path d="M41.18,65c2.68.2,5.4.08,8.1.08,2.89,0,5.77,0,8.66,0,.9,0,1.79,0,2.69,0V64.3h0a.42.42,0,0,0-.42.42,19.64,19.64,0,0,0,.08,4.13.35.35,0,0,0,.67,0A23.71,23.71,0,0,0,61,64.72l-.41.41h0a.42.42,0,0,0,0-.83c-2-.07-4,0-6.05,0-3.08,0-6.15.08-9.23.15a41.45,41.45,0,0,0-4.17.22.16.16,0,1,0,0,.32Z"/><path d="M53.29,69c1.21.11,2.43.07,3.64.11l3.7.14c.57,0,.57-.92,0-.9l-3.77.1a27.13,27.13,0,0,0-3.61.23c-.2,0-.13.3,0,.32Z"/><path d="M53,68.79c-.19,3.28-.12,6.58-.15,9.86s-.05,6.56-.08,9.85l.39-.39c-1.76-.08-3.53,0-5.29-.11l.42.41c.13-6.53.3-13.08.37-19.62a.54.54,0,0,0-.53-.53c-2.32,0-4.64,0-7,0l.51.52c0-1.31,0-2.62,0-3.93a.5.5,0,0,0-1,0c0,1.31,0,2.62,0,3.93a.52.52,0,0,0,.52.51q3.47,0,7,0l-.54-.54c-.1,6.54-.1,13.09-.13,19.62a.41.41,0,0,0,.41.42c1.76.06,3.53,0,5.29,0a.39.39,0,0,0,.38-.38c0-3.29,0-6.57.05-9.85s.13-6.58,0-9.86a.29.29,0,0,0-.58,0Z"/><path d="M76.47,69.55l14.93,0h3.7a6.35,6.35,0,0,1,2.88.29c1.75.89,1.43,2.91,1.41,4.55,0,4.37-.17,8.74-.27,13.11-.09,3.84-.17,7.7-.59,11.52A32.71,32.71,0,0,1,96.46,108a21.82,21.82,0,0,1-4.89,7.22,21,21,0,0,1-9.72,5.71,20.14,20.14,0,0,1-10.72-.5,22.59,22.59,0,0,1-9-5.36A18.61,18.61,0,0,1,59,111a25.78,25.78,0,0,1-2.17-5.65c-.33-1.14-.61-2.28-.87-3.44s-2.17-.71-1.89.52c.94,4.23,2.17,8.47,4.88,11.93a23.2,23.2,0,0,0,9,6.83,23.55,23.55,0,0,0,11.19,2,21.19,21.19,0,0,0,11.38-4.61,24.71,24.71,0,0,0,6.59-7.72,28.56,28.56,0,0,0,2.87-9,87.57,87.57,0,0,0,.85-11.45c.11-4.6.21-9.2.27-13.8,0-1.13,0-2.26,0-3.39a6.4,6.4,0,0,0-.4-2.78,4.17,4.17,0,0,0-1.78-1.91,5.51,5.51,0,0,0-2.8-.54c-5.25,0-10.5,0-15.74,0l-3.87,0a.75.75,0,0,0,0,1.49Z"/><path d="M102.69,69.44c4.9,0,9.8,0,14.7.06h1.88a2.63,2.63,0,0,1,1.57.27c.81.57.65,1.56.64,2.42,0,2.4-.09,4.8-.15,7.2-.11,4.09,0,8.3-.85,12.33A15.59,15.59,0,0,1,116,100.1a12.75,12.75,0,0,1-14.06,2.84c-1.15-.42-1.64,1.42-.51,1.83a14.77,14.77,0,0,0,14.23-2,17.1,17.1,0,0,0,6.21-9.09c1.14-4.13,1.09-8.54,1.17-12.78.05-2.55.12-5.1.14-7.66a8.79,8.79,0,0,0-.26-3.47,3.13,3.13,0,0,0-2.31-1.83,12.9,12.9,0,0,0-2.24-.05H116c-1.45,0-2.89,0-4.34,0q-4.5.06-9,.18a.68.68,0,0,0,0,1.36Z"/></g></g></svg>