<svg xmlns="http://www.w3.org/2000/svg" viewBox="0 0 150 150"><defs><style>.cls-1{isolation:isolate;}.cls-2{fill:#b8e6ff;}.cls-3{fill:#67d3f4;mix-blend-mode:multiply;}.cls-4{fill:#b4dbdc;}</style></defs><g class="cls-1"><g id="Layer_1" data-name="Layer 1"><path class="cls-2" d="M40.14,78.46c2-8.13,1.92-8.74,4.17-17.3,7.12,1.91,15,3.43,22.15,5.33-2.13,6.81-3.57,13.79-5.69,20.6-7-1.68-14.53-3.33-21.46-5.17Z"/><path d="M29.26,45.9q15.37,0,30.76-.11,15.9-.07,31.79-.18,8.44-.06,16.88-.09l-.66-.66c-.2,7.15-.07,14.32.06,21.47.15,7.7.35,15.41.42,23.11,0,3.85,0,7.71-.08,11.57l.72-.72c-10.31.13-20.62.11-30.92.08-10.54,0-21.07-.1-31.61-.09q-8.55,0-17.11.1l.77.77c-.47-12.85-.48-25.72-.35-38.58,0-3.69.09-7.37.17-11.06a.8.8,0,0,0-1.59,0q-.41,19.93,0,39.87c.07,3.26.15,6.51.27,9.77a.77.77,0,0,0,.77.76c10.31-.14,20.61-.14,30.92-.11,10.53,0,21.07.08,31.61,0q8.55,0,17.11-.13a.72.72,0,0,0,.71-.71c.18-7.16,0-14.32-.11-21.48-.16-7.7-.37-15.4-.45-23.11,0-3.85,0-7.71,0-11.56a.67.67,0,0,0-.66-.67q-15.37.09-30.76.23-15.89.13-31.79.31l-16.88.16a.51.51,0,0,0,0,1Z"/><path class="cls-3" d="M108.5,68.08a.4.4,0,0,0-.76,0,57,57,0,0,0-.49,7.83q-.12,4-.19,8c-.1,4.92-.21,9.84-.29,14.76-.8-.06-1.62-.06-2.42-.09-1.24,0-2.47-.09-3.71-.11-2.43-.06-4.86-.07-7.3-.06-4.9,0-9.81.24-14.7.6-1.4.1-2.8.24-4.19.4a17.29,17.29,0,0,0-4,.78c-.27.1-.36.59,0,.65a36.07,36.07,0,0,0,7.12-.11c2.43-.12,4.85-.27,7.28-.36q7.35-.27,14.72-.13,2,0,4.08.12c1.12,0,2.27.16,3.41.16a1,1,0,0,0,1.62-.66V99.7a1.09,1.09,0,0,0,0-.36c.07-5.15.08-10.3.12-15.45,0-2.66,0-5.32,0-8A56.88,56.88,0,0,0,108.5,68.08Z"/><path d="M108.22,51.36a67.86,67.86,0,0,0-7.94-.21H92.44l-15.21,0-15.3,0c-5.08,0-10.15-.16-15.22-.17-5.8,0-11.61-.1-17.41.07a.53.53,0,0,0,0,1.06c5.2.16,10.4.09,15.6.08,5,0,10.08-.1,15.12-.16,10.19-.12,20.4-.05,30.6-.07h8.67a78.2,78.2,0,0,0,8.93-.21.16.16,0,0,0,0-.31Z"/><path class="cls-4" d="M31.81,46.87a1.39,1.39,0,0,0,0,2.78A1.39,1.39,0,0,0,31.81,46.87Z"/><path class="cls-4" d="M35.51,46.87a1.39,1.39,0,0,0,0,2.78A1.39,1.39,0,0,0,35.51,46.87Z"/><path class="cls-4" d="M39.31,46.87a1.39,1.39,0,0,0,0,2.78A1.39,1.39,0,0,0,39.31,46.87Z"/><path d="M141.08,78.9a156.94,156.94,0,0,0-19.14-5.45.71.71,0,0,0-.85.49q-2.76,10-5.51,19.92a.78.78,0,0,0,.54.94c6.86,2,13.72,4,20.66,5.69a.87.87,0,0,0,1-.59c1.7-5.72,3.7-11.42,4.69-17.32.18-1-1.37-1.52-1.62-.45-.68,3-1.33,5.88-2.16,8.79s-1.71,5.68-2.54,8.53l1-.59c-6.95-1.66-13.83-3.59-20.71-5.54l.54,1,5.37-20-.86.48c6.54,1.25,12.84,3.34,19.27,5a.45.45,0,0,0,.24-.86Z"/><path class="cls-3" d="M64.47,68.84A.26.26,0,0,0,64,68.7a44.39,44.39,0,0,0-1.34,4.24c-.44,1.46-.87,2.92-1.29,4.39-.73,2.49-1.46,5-2.17,7.46l-.52-.11-2.17-.5-4.35-1c-2.9-.67-5.79-1.36-8.75-1.76a.25.25,0,0,0-.13.48c2.82,1,5.69,1.66,8.58,2.37l4.21,1,2.16.53.62.16a.54.54,0,0,0,1,.28v0a5.52,5.52,0,0,0,.55.07c.55,0,.83-.86.29-1.09-.12-.06-.26-.1-.39-.15a55.16,55.16,0,0,0,2.53-7.71c.37-1.39.7-2.79,1-4.21.14-.69.25-1.38.36-2.08.06-.44.09-.88.12-1.31S64.43,69.15,64.47,68.84Z"/><path d="M40.68,78.61c1.55-5.73,2.83-11.52,4.39-17.24l-1,.55c7.31,2,14.79,3.44,22.12,5.43l-.62-1.09C63.46,73.05,62,80,59.86,86.84L61,86.18c-3.59-.86-7.18-1.68-10.77-2.53s-7.12-1.86-10.71-2.59a.89.89,0,0,0-.47,1.72c3.48,1.14,7.11,1.87,10.67,2.7S56.93,87.15,60.52,88a1,1,0,0,0,1.16-.66c2.11-6.81,3.55-13.8,5.63-20.61a.89.89,0,0,0-.62-1.09c-7.35-1.93-14.81-3.36-22.17-5.24a.81.81,0,0,0-1,.55c-1.45,5.76-2.72,11.55-3.94,17.36a.56.56,0,0,0,1.08.3Z"/><path class="cls-4" d="M76.3,96.93c3,7.82,3,8.43,6.3,16.64,6.83-2.79,14.49-5.29,21.31-8.07-3-6.49-5.26-13.23-8.22-19.72-6.78,2.54-14,5.13-20.65,7.82Z"/><path class="cls-3" d="M102.67,103.15c-.32-.55-.64-1.1-.94-1.66-.61-1.11-1.19-2.24-1.72-3.39s-1-2.33-1.45-3.52c-.22-.6-.42-1.2-.63-1.8A10.7,10.7,0,0,0,97.31,91a.23.23,0,0,0-.42.11,14.57,14.57,0,0,0,.87,3.66c.19.62.39,1.23.61,1.84a3.56,3.56,0,0,0,.23.72L99,98.49l.81,2.33c.27.78.55,1.56.83,2.34l.4,1.12a1.12,1.12,0,0,1,0,.13c-.67.32-1.33.7-2,1L97,106.56c-.7.37-1.39.75-2.08,1.13l-.5.27a2.24,2.24,0,0,0-.82.44,4.18,4.18,0,0,0-.74.55.21.21,0,0,0,.2.35A4.06,4.06,0,0,0,94,109a3.69,3.69,0,0,0,.84-.31l1.11-.45,2.22-.92,4.44-1.83a.5.5,0,0,0,.34-.45.6.6,0,0,0,.27-.32C103.44,104.11,103,103.61,102.67,103.15Z"/><path d="M75.77,97.07c1.93,5.6,3.91,11.18,6.07,16.71a.8.8,0,0,0,1,.55c7.07-2.79,14.29-5.14,21.34-8a.92.92,0,0,0,.53-1.31c-2.93-6.5-5.23-13.26-8.18-19.75a.94.94,0,0,0-1.06-.43c-3.49,1.31-7,2.59-10.49,3.89s-7,2.49-10.36,4.07c-.9.43-.26,2,.69,1.63,3.47-1.18,6.86-2.63,10.29-3.91S92.49,88,95.94,86.69l-1.07-.43c3,6.48,5.3,13.22,8.27,19.69l.53-1.31c-7,2.89-14.27,5.23-21.28,8.16l1,.56c-2.27-5.5-4.27-11.09-6.53-16.58-.27-.65-1.31-.4-1.07.29Z"/></g></g></svg>