<svg xmlns="http://www.w3.org/2000/svg" viewBox="0 0 150 150"><defs><style>.cls-1{isolation:isolate;}.cls-2{fill:#b4dbdc;}.cls-3{fill:#67d3f4;mix-blend-mode:multiply;}</style></defs><g class="cls-1"><g id="Layer_1" data-name="Layer 1"><path class="cls-2" d="M111.08,25.31a1.91,1.91,0,0,0-2.6-.67C87.77,39.75,72.29,54.73,64.34,85.85c-.45,1.77-1.12,3.28-1.57,5.05-2.05,5.62-2.63,11.72-3.36,17.66a1.24,1.24,0,0,0,.51,1.18l-.24.25c-.77.9,0,2.81,1.32,2.25a18.29,18.29,0,0,0,4.21-2.78l1-.82L67,108a12.56,12.56,0,0,0,1.74-1.6c.22-.24.42-.5.62-.76s.53-.58.8-.87a11.51,11.51,0,0,0,1.88-1.57,29.17,29.17,0,0,0,2.86-3c.28-.34.55-.7.82-1.05,1.66-.75,2.69-3.16,3.46-4.64A56.13,56.13,0,0,0,82,88.14c.06-.16.11-.33.17-.49A1.7,1.7,0,0,0,83,87.2a8.22,8.22,0,0,0,1.65-3.78c.14-.61.27-1.22.36-1.84.19-.8.35-1.6.52-2.39s.34-1.8.46-2.71a5.09,5.09,0,0,0,.07-1.23,5.83,5.83,0,0,1,0-1.32.82.82,0,0,0-1.53-.41,5.39,5.39,0,0,1-.25.48c-.09-.21-.2-.43-.31-.64a85.47,85.47,0,0,0,6.4-8.62q3.81-5.52,7.28-11.26c2.32-3.86,4.65-7.79,6.76-11.83a19.39,19.39,0,0,0,2.2-2.8,26.75,26.75,0,0,0,2.15-3.75,35.44,35.44,0,0,0,1.65-4.05,11.16,11.16,0,0,0,.46-2.06,6.79,6.79,0,0,0,0-1.56A1.86,1.86,0,0,0,111.08,25.31Z"/><path class="cls-3" d="M78.93,59.17A129,129,0,0,1,91.07,43.36c.71-.81-.41-2-1.19-1.2s-1.69,1.73-2.52,2.61a1.05,1.05,0,0,0-1.3-.33,7.88,7.88,0,0,0-2.26,2.27q-.94,1.14-1.86,2.31c-1.28,1.63-2.57,3.28-3.7,5C76,57.6,73.73,61.25,71.72,65a97,97,0,0,0-5.19,11.48c-1.47,3.84-3.11,8-3.53,12a.78.78,0,0,0,.23.7,118.87,118.87,0,0,0-3.42,17c-.19,1.45-.34,2.9-.46,4.36l-.06,0a.9.9,0,0,0-.06,1.43,100.72,100.72,0,0,0,0,14.74c.12,1.67,2.74,1.69,2.62,0a117.64,117.64,0,0,1,0-15,37.83,37.83,0,0,0,3.61-2.57q2.25-1.71,4.32-3.62A57.29,57.29,0,0,0,77.19,97a53.5,53.5,0,0,0,5.64-9.93,47.68,47.68,0,0,0,2-5.27A29.15,29.15,0,0,0,85.57,78a3.83,3.83,0,0,0,.28-.29,6.52,6.52,0,0,0,.83-1c.23-.36.43-.75.64-1.13.34-.62-.5-1.33-1-.78-.25.27-.51.52-.78.77a.54.54,0,0,0-.84.32c-.08.29-.18.57-.28.86a18.35,18.35,0,0,1-3.25,2.72,11.78,11.78,0,0,0-2.08,1.39.71.71,0,0,0-.11.86.74.74,0,0,0,.8.32,5.89,5.89,0,0,0,2.3-1.13c.38-.25.75-.51,1.12-.79-.15.39-.3.78-.44,1.17-.62,1.7-1.27,3.39-2,5a57.87,57.87,0,0,1-5.44,9.4,53.62,53.62,0,0,1-7.22,8.21,53,53,0,0,1-4.14,3.49c-.62.46-1.27.89-1.92,1.31a106,106,0,0,1,2.91-17.09A113.08,113.08,0,0,1,78.93,59.17Z"/><path class="cls-3" d="M109.93,24c-.32-.33-4-1.87-2.28.54,2.48,3.37-.63,7.91-2.62,11.34-2.09,3.6-4.27,7.15-6.45,10.7-4.41,7.16-9.23,14.09-14.25,20.84-2.85,3.83-5.88,7.55-8.64,11.45-.69,1,.87,2.18,1.68,1.29s1.52-1.73,2.26-2.62a.65.65,0,0,0,.69-.14A90.57,90.57,0,0,0,91.08,65.86a72.28,72.28,0,0,0,4.34-6.09c.71-1.11,1.37-2.25,2-3.41.1-.2.22-.4.34-.6A5,5,0,0,0,98.83,54a.57.57,0,0,0,0-.13,7,7,0,0,0,.35-.93c.13-.5-.54-.95-.9-.53-.07.07-.12.16-.18.23a154.45,154.45,0,0,0,10.71-17.49,20.12,20.12,0,0,0,2.06-5.69C111.17,27.69,111.23,25.38,109.93,24Z"/><path d="M86.79,71.35A25.35,25.35,0,0,1,85.58,79a58.24,58.24,0,0,1-3.85,9.86c-3.3,6.72-7.59,13.25-13.42,18a25.21,25.21,0,0,1-4.7,3.08,34.48,34.48,0,0,1-5.16,1.76.89.89,0,0,0,.24,1.74c3.33.16,6.8-1.78,9.44-3.66a39.54,39.54,0,0,0,8.22-8.17,63.81,63.81,0,0,0,10.7-20.93,24.2,24.2,0,0,0,1.28-9.39c-.1-1-1.58-1-1.54,0Z"/><path d="M55.23,83.1A62.67,62.67,0,0,1,57.4,66.69,55.78,55.78,0,0,1,64,52C69.4,43.5,77.18,37,85.51,31.54a71.79,71.79,0,0,1,12-6.5c3-1.19,6.51-2.48,9.77-1.94a4.47,4.47,0,0,1,3,1.72c1.57,2.25.31,5.21-.8,7.36-2.86,5.59-5.89,11.13-9,16.61C94.14,60.31,87,71.59,77.15,80.58c-1,1,.51,2.49,1.54,1.54C88,73.61,95,63,101.19,52.15c3.36-5.9,6.51-11.92,9.72-17.91,2-3.76,4-9.33-.52-12.19-2.71-1.73-6.39-1.12-9.29-.33a52.45,52.45,0,0,0-12.24,5.46c-8.74,5-17.31,11.49-23.45,19.58C57.72,56.88,53,70.31,54,83.1a.64.64,0,0,0,1.28,0Z"/><path d="M57.94,111.21c-3.51-6.58-6.15-13.38-6.8-20.89-.59-6.77.38-14.21,5.1-19.44.72-.8-.45-2-1.18-1.18-8,8.76-6.34,22.83-2.56,33.11a39.57,39.57,0,0,0,4.41,9,.6.6,0,0,0,1-.6Z"/><path d="M89,40.28a11.81,11.81,0,0,0-3.53,3c-1.1,1.17-2.17,2.39-3.2,3.63-2,2.43-3.94,5-5.72,7.59a99.08,99.08,0,0,0-9.08,16.73,125.31,125.31,0,0,0-9.24,36.07A89.65,89.65,0,0,0,58,127.2a.85.85,0,0,0,1.7,0c.14-5.71.18-11.45.66-17.15a129.36,129.36,0,0,1,2.78-17.83A112.16,112.16,0,0,1,77,57.93a90.93,90.93,0,0,1,6-8.56q1.69-2.11,3.51-4.13c1.15-1.29,2.62-2.47,3.35-4.05a.67.67,0,0,0-.91-.91Z"/></g></g></svg>