<svg xmlns="http://www.w3.org/2000/svg" viewBox="0 0 150 150"><defs><style>.cls-1{isolation:isolate;}.cls-2{fill:#fff;}.cls-3{fill:#b4dbdc;}.cls-4{fill:#67d3f4;mix-blend-mode:multiply;}</style></defs><g class="cls-1"><g id="Layer_1" data-name="Layer 1"><path class="cls-2" d="M100.89,37.12c.14-2.42.36-4.93-.38-7.25a5.13,5.13,0,0,0-.89-1.64c-1.52-1.84-3.58-1.88-5.75-2.14-10.1-1.21-20.18,1-30.28.23-3-.22-5.82-.65-8.61.77a10.28,10.28,0,0,0-5,7.2c-1.88,8.64-.45,17.54-.36,26.28.09,9.24,0,18.49.07,27.73,0,5,.55,10,.47,15-.09,5.7-1.18,12.07.77,18.48.76,2.52,3.92,2.1,6.38,2.16,8.53.22,17.07-.18,25.6,0,4.94.12,15.72,2.93,17.21-4.2,1.22-5.84.25-12.55.26-18.51,0-12,.1-24,.21-36.07,0-5.86,0-12,.07-17.89q0-4.56.22-9.12Z"/><path d="M87.68,25.79c-2.05.54-4.18-.08-6.24-.24s-4.12-.18-6.17-.17c-4.16,0-8.32.33-12.47.29a.44.44,0,0,0-.28.08A.34.34,0,0,0,62,26c-.09,2.15.55,4.25,3,4.49a43.44,43.44,0,0,0,4.42,0l4.88,0c3.2,0,6.39,0,9.59,0a4.09,4.09,0,0,0,3.15-1,5.59,5.59,0,0,0,1.21-3.1A.47.47,0,0,0,87.68,25.79Z"/><path d="M61.53,26.23c.31,1.24.41,2.84,1.35,3.81a2.57,2.57,0,0,0,2,.59h5.58c4.71,0,9.42,0,14.12,0a4.88,4.88,0,0,0,2.16-.18,3.55,3.55,0,0,0,1.39-1.73,21.17,21.17,0,0,0,1-2.76.42.42,0,0,0-.81-.23,20.1,20.1,0,0,1-.85,2.4c-.24.55-.58,1.33-1.16,1.58a4.34,4.34,0,0,1-1.61.07H78.9c-4.37,0-8.75,0-13.12,0-.53,0-1.08.05-1.61,0-1.42-.12-1.6-2.67-1.87-3.71a.4.4,0,0,0-.77.21Z"/><path class="cls-3" d="M92.86,71.11c0-1.86,0-3.72,0-5.59,0-1.67.1-3.42,0-5.11A2,2,0,0,1,92.5,60l-.12-.29h0L92,59.4l-.18-.22L91.69,59h0l-14.85.18c-4.45.06-8.84-.07-13.31,0-.85,0-1.77,0-2.63,0-.44,0-.9.1-1.38.14a1.37,1.37,0,0,0-1.22,1.3c-.09,1.78.06,4,.06,5.33,0,.94,0,1.88,0,2.82a66.7,66.7,0,0,0-.2,7.07,52.63,52.63,0,0,0,.36,7c0,.27.46.2.46-.06,0-.06,0-.12,0-.18a3.39,3.39,0,0,0,.51.17,7.92,7.92,0,0,0,1.19.07c.74,0,1.47,0,2.21,0l4.07,0,8.47-.09c3.16,0,6.31,0,9.46-.07a.25.25,0,0,0,.18.15,7.67,7.67,0,0,0,1.59.07l1.63,0c.54,0,1.08,0,1.63,0a2,2,0,0,0,1.32-.29h.19a.65.65,0,0,0,1.29-.05v-.09a.59.59,0,0,0,0-.91C92.81,78.13,92.82,74.62,92.86,71.11Z"/><path d="M57.94,61.24c-.16,2.85-.13,5.71-.17,8.57,0,2.44-.07,4.88-.06,7.31,0,.65,0,1.29,0,1.93a11.91,11.91,0,0,0,.07,2.07,2.81,2.81,0,0,0,1.84,2.17,5.21,5.21,0,0,0,1.67.16h6.15q8.66,0,17.33.07h4c1.11,0,2.4.18,3.39-.42,1.86-1.13,1.42-3.69,1.44-5.54q.07-7.06,0-14.14a18.48,18.48,0,0,0-.08-2.88,2.92,2.92,0,0,0-2-2.25,5,5,0,0,0-1.64-.12L74,58.45c-3.06,0-6.13.14-9.19.23-1.1,0-2.2.06-3.29.11a8,8,0,0,0-1.76.15l-.18,0s-.17.06,0,0,.08-.06.06,0h-.07a.21.21,0,0,0,0,.42s0,0,.06,0-.25-.08-.09-.05l.21.07a4.34,4.34,0,0,0,.63.06c.78.08,1.58,0,2.36,0,2.67,0,5.34,0,8,0,5.72,0,11.45-.16,17.18-.24l2.18,0a2.38,2.38,0,0,1,2,.57c.7.73.54,1.84.56,2.77s0,2,0,3q0,3.56,0,7.11,0,3.21,0,6.42c0,.92.15,2-.49,2.8-.8.94-2.25.67-3.35.67-5.44,0-10.89,0-16.34,0-2.71,0-5.42,0-8.13,0-1.26,0-2.54.07-3.8,0s-2-1.11-2-2.37c-.12-4.89,0-9.78-.06-14.68,0-1.44-.06-2.87-.18-4.31a.19.19,0,0,0-.38,0Z"/><path d="M65.93,68.34c1.54.15,3.11.07,4.65.07l5.11,0c3.24,0,6.53.15,9.76-.08a.22.22,0,0,0,0-.43c-3.24-.13-6.51,0-9.76-.08l-5,0a36,36,0,0,0-4.76.12.21.21,0,0,0,0,.41Z"/><path d="M63.67,71.45c4.21,0,8.43,0,12.64,0l6.18,0h3.14a19.62,19.62,0,0,0,3-.07.23.23,0,0,0,0-.43,19.58,19.58,0,0,0-3-.08l-3.14,0-6.18,0q-6.32,0-12.64.1a.23.23,0,0,0,0,.46Z"/><path d="M64.9,75.13c3.67.11,7.35.06,11,0l5.45,0c1.85,0,3.72.11,5.57,0a.29.29,0,0,0,0-.58c-1.8-.14-3.65,0-5.45,0l-5.57,0c-3.67,0-7.34,0-11,0a.26.26,0,0,0,0,.52Z"/><path class="cls-4" d="M100.5,114.88c.08-2.74-.26-5.45-.19-8.19.11-4.39.22-8.79.18-13.19a53.72,53.72,0,0,0-.34-7.92.29.29,0,0,0-.56,0,46,46,0,0,0-.82,6.93c-.2,2.36-.35,4.72-.46,7.1q-.34,7.15-.68,14.32c-.11,2.33.22,7-2.57,8.2a5.48,5.48,0,0,1-1.8.3c-7.85.38-15.74-.21-23.59.45-.55.05-1.3.35-1.14.89.1.34.53.44.88.48a68.43,68.43,0,0,0,8.5.62c2.83,0,5.63-.5,8.46-.49l6.63,0a9.64,9.64,0,0,0,4.66-.86,4.42,4.42,0,0,0,2.65-3.44C100.49,118.41,100.45,116.59,100.5,114.88Z"/><path d="M54.52,26.41c2.35-.05,4.7,0,7,0,2,0,4.11-.09,6.16-.13,3.67-.07,7.33-.09,11,0s7.59.17,11.39.33l3.31.15a19.59,19.59,0,0,1,3.16.21A4.52,4.52,0,0,1,100,30.14a12.19,12.19,0,0,1,.18,3.08c0,1.23,0,2.45,0,3.68q0,3.57,0,7.16,0,7.34-.05,14.69c-.07,9.83-.21,19.66-.28,29.49s-.09,19.47,0,29.2a10,10,0,0,1-.18,3,4.53,4.53,0,0,1-1.28,2c-1.53,1.38-3.6,1.14-5.52,1.16q-6.64.08-13.3,0c-4.17,0-8.35-.07-12.53-.11l-6.74-.06-3.54,0a11.33,11.33,0,0,1-3.19-.19,4.43,4.43,0,0,1-3.07-3.42,16.42,16.42,0,0,1-.06-3.29c0-1.23,0-2.46,0-3.69q0-7.36,0-14.73,0-14.31,0-28.62,0-14.57.07-29.15c0-2.43,0-4.86,0-7.29a.86.86,0,0,0-1.72,0c-.05,10.07,0,20.14,0,30.2C49,73.14,49,83,49,92.81c0,5,0,10,0,15v7.57c0,2.13-.34,4.49.65,6.45a5.92,5.92,0,0,0,4,3.07A15.91,15.91,0,0,0,57,125l3.65,0,13.39.11q6.54,0,13.06,0c2.4,0,4.8,0,7.2-.08a10.27,10.27,0,0,0,3-.29,6.11,6.11,0,0,0,2.26-1.34,6.19,6.19,0,0,0,1.82-4.81c0-2.5-.06-5-.07-7.49q0-7.51,0-15c0-10.11.17-20.22.25-30.33s.13-20.05,0-30.07c0-1.26,0-2.53,0-3.79a7.65,7.65,0,0,0-.43-2.77,5.88,5.88,0,0,0-3.69-3.42,11.64,11.64,0,0,0-3-.32l-3.39-.13q-3.12-.12-6.24-.2c-7.73-.18-15.52-.21-23.24.28-2.35.15-4.7.4-7,.55a.25.25,0,0,0,0,.5Z"/><path class="cls-4" d="M100.19,29.36c-1.73-3-5.7-3.73-8.9-3.17a.41.41,0,0,0,0,.78,35.57,35.57,0,0,1,4.48.66,5.08,5.08,0,0,1,3.32,2.91,11.27,11.27,0,0,1,.6,4.72c-.07,1.9-.46,4,.26,5.82a.6.6,0,0,0,1.18-.16c.06-1.12,0-2.24.06-3.36s.13-2.1.13-3.15A10.17,10.17,0,0,0,100.19,29.36Z"/><path class="cls-4" d="M93.1,78.77c0-.83-.13-1.67-.14-2.41-.07-3.13.14-6.27-.08-9.4,0-.41-.23-.95-.63-.87A16.43,16.43,0,0,0,92,69.8a34.4,34.4,0,0,1-1.26,10c-.55,1.71-2.28,1.6-3.79,1.61H82.16c-3.1,0-6.2,0-9.3.07a8.69,8.69,0,0,0-3.1.28.38.38,0,0,0,0,.73c2.2.9,5.45.34,7.77.37,4,0,8.64.93,12.59-.09A3.67,3.67,0,0,0,93.1,78.77Z"/></g></g></svg>