<svg xmlns="http://www.w3.org/2000/svg" viewBox="0 0 150 150"><defs><style>.cls-1{isolation:isolate;}.cls-2{fill:#fff;}.cls-3{fill:#b4dbdc;}.cls-4,.cls-5{fill:#67d3f4;}.cls-4{mix-blend-mode:multiply;}.cls-5{mix-blend-mode:color-burn;}</style></defs><g class="cls-1"><g id="Layer_1" data-name="Layer 1"><path class="cls-2" d="M86.34,88.4c.24,12.32-.24,16.3,0,28.62,11.36-.09,21.32,0,32.67,0,.12-10,.42-20.63,0-30.57-10.36-.25-22,.26-32.34,0"/><path class="cls-2" d="M33.64,67.89c9.93.19,23,1,32.9,0,0,0,.34-22.64,0-33.72-5.46-.34-27.45-.21-32.9-.05.58,10.29-.57,18.64,0,28.93Z"/><path class="cls-3" d="M115.56,35.08c-5.16.15-10.32.29-15.48.5-2.58.1-5.16.17-7.74.34-1.66.11-3.31.23-5,.43,0,0,0-.08,0-.13a6.17,6.17,0,0,0-.39-1.8l0,0a.63.63,0,0,0-1.16.12,6.75,6.75,0,0,0-.09,2c-.36.06-.71.11-1.06.19-.71.15-.75,1.36,0,1.47l.18,0c0,3-.19,6-.2,9,0,1.52,0,3,0,4.56,0,.78,0,1.56,0,2.35a3.48,3.48,0,0,0,.41,2.14c-.11,1.14-.23,2.29-.37,3.43s-.25,2-.4,3a14.31,14.31,0,0,0-.3,2.07,1.15,1.15,0,0,0-.22,2.06,5.84,5.84,0,0,0,1.94.45c.64.1,1.29.19,1.93.27,1.29.18,2.57.29,3.86.38,2.55.18,5.1.32,7.66.33s5.11,0,7.66-.1c1.23,0,2.47-.09,3.7-.15l2-.12a6.19,6.19,0,0,0,1.28-.17,1.81,1.81,0,0,0,2.82-.88,21,21,0,0,0,.22-4c0-1.25,0-2.5,0-3.75q0-3.74,0-7.49c0-5,.14-10,.23-15A1.62,1.62,0,0,0,115.56,35.08Z"/><path d="M23.34,75.26c6.71.53,13.48.5,20.21.61s13.48.21,20.22.29l40.18.45,11.23.12c3.82,0,7.66.22,11.48.09a1.31,1.31,0,0,0,0-2.61c-3.4-.19-6.83-.11-10.23-.14l-10-.08-20.22-.18c-13.39-.11-26.79-.26-40.18-.29-7.56,0-15.16-.24-22.71.2a.77.77,0,0,0,0,1.54Z"/><path d="M75,26.78c-.33,3.14-.25,6.34-.34,9.5l-.26,9.36c-.18,6.29-.36,12.58-.49,18.87L73.15,102l-.21,10.5-.1,5.37a43.73,43.73,0,0,0,0,5.37A1.34,1.34,0,0,0,74,124.5a1.3,1.3,0,0,0,1.43-.94,39,39,0,0,0,.23-4.84l.08-4.75.15-9.49q.13-9.37.29-18.74c.2-12.57.4-25.15.5-37.72l.07-10.5,0-5.37c0-1.79.09-3.58,0-5.37a.89.89,0,0,0-1.78,0Z"/><path class="cls-4" d="M116.72,64.27h-.16c0-.23,0-.45,0-.67l.15-2c.11-1.23.21-2.45.29-3.68.17-2.45.23-4.91.27-7.37s.08-4.93,0-7.39c0-1.23-.07-2.46-.14-3.69a16.4,16.4,0,0,0-.39-3.9.78.78,0,0,0-1.49,0,19.33,19.33,0,0,0-.11,3.65c0,1.23,0,2.46,0,3.7,0,2.5-.09,5-.24,7.51s-.4,4.91-.66,7.37c-.12,1.23-.26,2.45-.42,3.68-.07.56-.16,1.11-.25,1.67-.07.39-.16.78-.2,1.17l-9.14.34c-4.18.16-8.37.3-12.55.51a41.84,41.84,0,0,0-7.07.62c-.79.17-.86,1.54,0,1.67a39.23,39.23,0,0,0,6.32.16q3.12-.06,6.22-.16l12.55-.38,3.61-.11a25.42,25.42,0,0,0,3.7-.2,1.27,1.27,0,0,0,.92-1.41A1.31,1.31,0,0,0,116.72,64.27Z"/><path d="M116.87,67.05c-2.14-.08-4.28,0-6.42,0s-4.33-.06-6.5-.12c-4.3-.1-8.6-.24-12.91-.26q-3.63,0-7.26.1l1.16,1.15c0-8.62.35-17.24.72-25.85.1-2.37.2-4.75.31-7.12l-1.24,1.24c9.44,0,18.89-.06,28.33,0h4.22L116,34.81c0,2.78,0,5.56-.06,8.33,0,4.7,0,9.39,0,14.08V61c0,.64,0,1.28,0,1.92a8.13,8.13,0,0,0,.33,1.94,1.11,1.11,0,0,0,2.11,0,9.37,9.37,0,0,0,.37-1.65c0-.56,0-1.13,0-1.7,0-1.14,0-2.29,0-3.44,0-2.36,0-4.73-.07-7.09-.05-4.08,0-8.15,0-12.23,0-1.32,0-2.63,0-3.95a1.35,1.35,0,0,0-1.33-1.33c-8.1,0-16.21.09-24.31.15l-8.24,0a1.27,1.27,0,0,0-1.24,1.24c-.34,8.63-.68,17.25-.81,25.88,0,2.36-.06,4.73-.05,7.09a1.17,1.17,0,0,0,1.15,1.16c8.61-.32,17.22,0,25.83,0,2.42,0,4.86,0,7.26-.26a.85.85,0,0,0,0-1.69Z"/><path d="M86.49,87a96.14,96.14,0,0,0,12.59.56c4.3,0,8.59,0,12.89,0,2.35,0,4.7,0,7,.11l-1.3-1.31c.29,8,.18,15.92.06,23.88,0,2.22-.19,4.48-.06,6.69a1.3,1.3,0,0,0,2.6,0c.17-1.94.1-3.92.13-5.86s.06-4,.08-6c0-4,.08-8.05,0-12.07,0-2.23-.11-4.45-.21-6.68A1.34,1.34,0,0,0,119,85.1c-8.43-.16-16.86.17-25.3.32-2.36,0-4.69.11-7,.33-.67.06-1,1.17-.18,1.29Z"/><path d="M85.62,88.21a23.56,23.56,0,0,0-.26,3.37c0,1-.08,2-.1,3,0,1.76-.07,3.51-.12,5.27-.11,3.32-.22,6.64-.26,10q0,3.59,0,7.18a1.47,1.47,0,0,0,1.46,1.46c8.5,0,17,.09,25.5.1h5.44a11.42,11.42,0,0,0,2.1-.29,1.38,1.38,0,0,0,0-2.64,12.67,12.67,0,0,0-1.73-.26c-.57,0-1.14,0-1.71,0l-3.26,0-6.38,0c-4.18,0-8.37,0-12.55,0-2.47,0-4.94.06-7.41.1L87.8,117c-.21-7.21-.1-14.42-.23-21.63,0-1.09,0-2.17-.12-3.26a23.35,23.35,0,0,0-.39-3.92.75.75,0,0,0-1.44,0Z"/><path class="cls-4" d="M118.19,113h0l.12-1.22c.1-1.13.19-2.27.26-3.4.15-2.35.29-4.7.3-7.06s-.06-4.72-.2-7.08c-.07-1.14-.16-2.28-.26-3.41a11.21,11.21,0,0,0-.58-3.56.79.79,0,0,0-1.43.19,12.76,12.76,0,0,0,0,3.49c.06,1.18.1,2.36.11,3.53,0,2.28,0,4.56-.1,6.84s-.25,4.55-.5,6.82c-.13,1.09-.28,2.17-.45,3.26-.08.54-.17,1.07-.26,1.61l-1.08.09-3.72.22-7.69.46c-2.57.16-5.14.33-7.69.57l-3.73.35a11.18,11.18,0,0,0-3.73.66c-.43.21-.26.81.12,1a11.61,11.61,0,0,0,3.86.24l3.72,0c2.52,0,5-.13,7.57-.24l7.57-.34,3.72-.16,2-.09a8.49,8.49,0,0,0,2.08-.2C119.33,115.1,119.5,113.2,118.19,113Z"/><path d="M33.64,68.57c4.2.38,8.43.59,12.65.74,4.42.15,8.84.27,13.27.18,2.33,0,4.66-.16,7-.38a1.24,1.24,0,0,0,1.22-1.22q.08-4.14.12-8.29C68,54,68,48.42,68,42.82c0-2.88,0-5.76-.13-8.65a1.33,1.33,0,0,0-1.3-1.29c-4-.25-8-.2-12-.22q-7.65,0-15.29.06c-1.88,0-3.76,0-5.64.1a1.32,1.32,0,0,0-1.3,1.3c.27,4.86.14,9.72,0,14.58-.07,2.33-.14,4.66-.16,7,0,1.24,0,2.48,0,3.73,0,.63,0,1.27.07,1.91a7.84,7.84,0,0,0,.46,2c.28.84,1.64,1,1.85,0a9.39,9.39,0,0,0,.3-2c0-.64,0-1.28,0-1.91,0-1.25,0-2.49,0-3.73,0-2.34.09-4.67.16-7,.15-4.86.27-9.72,0-14.58l-1.31,1.31c4-.12,8-.14,12-.16,5.1,0,10.19,0,15.29,0,1.88,0,3.77,0,5.64.16l-1.29-1.3c.16,5.4.16,10.8.16,16.2q0,7.29-.06,14.59c0,1,0,2,0,2.93l1.21-1.21c-8.6.88-17.28.55-25.91.45-2.34,0-4.65,0-7,.09a.68.68,0,0,0,0,1.35Z"/><path class="cls-5" d="M65.76,50.76c-.06-2.57,0-5.14-.06-7.72,0-1.32,0-2.65-.06-4a24.56,24.56,0,0,0-.25-3.93.76.76,0,0,0-1.45,0,24.58,24.58,0,0,0-.28,3.93c0,1.33-.07,2.66-.09,4,0,2.58,0,5.15-.13,7.72s-.2,5.15-.21,7.72l0,4c0,.67,0,1.33,0,2v0c-.62.1-1.25.2-1.87.28-1.27.18-2.55.34-3.83.47-2.59.28-5.2.43-7.81.52s-5.22.09-7.82,0L38,65.74l-2,0a6.43,6.43,0,0,0-1.64,0c0-.06,0-.15-.09-.15a.11.11,0,0,0-.07.19l-.07,0A.65.65,0,0,0,34,67a7.42,7.42,0,0,0,2.89.58c1,.13,2.11.27,3.17.34,2,.15,4.08.19,6.12.18,4.12,0,8.23-.27,12.33-.68,1.17-.12,2.35-.25,3.52-.4l1.76-.24.38-.06a1.12,1.12,0,0,0,1.18-.22,2.42,2.42,0,0,0,.58-2c0-.66,0-1.32,0-2v-4C65.92,55.91,65.83,53.33,65.76,50.76Z"/></g></g></svg>