<svg xmlns="http://www.w3.org/2000/svg" viewBox="0 0 150 150"><defs><style>.cls-1{isolation:isolate;}.cls-2{fill:#67d3f4;}.cls-2,.cls-5{mix-blend-mode:multiply;}.cls-3{fill:#b8e6ff;}.cls-4{fill:#b4dbdc;}</style></defs><g class="cls-1"><g id="Layer_1" data-name="Layer 1"><path class="cls-2" d="M120.94,98.43c-.06-.15-.13-.28-.19-.43a.77.77,0,0,0-.07-.7,2.08,2.08,0,0,0-.44-.5C117.66,91.07,113.1,86.67,108,83A72.14,72.14,0,0,0,88.5,72.69a44.28,44.28,0,0,0-9-2.11A78,78,0,0,0,96.08,59.21,80.58,80.58,0,0,0,103.39,52q1.68-2,3.23-4c.73-1,1.38-2,2-3,0,.66-.09,1.33-.1,2,0,.88,0,1.75.06,2.62a11.32,11.32,0,0,0,.31,2.73.47.47,0,0,0,.92-.13c0-.86-.23-1.74-.31-2.6s-.13-1.74-.14-2.62,0-1.74.08-2.62c0-.25,0-.51.07-.76a.76.76,0,0,0,0-.62c0-.41.08-.81.09-1.22a.27.27,0,0,0-.53-.07c-.07.24-.13.48-.18.73a.87.87,0,0,0-1.08.36,60.15,60.15,0,0,1-5.32,7.09,75,75,0,0,1-6.07,6.66A77.25,77.25,0,0,1,82.18,67.15a75.92,75.92,0,0,1-37,10.07,86.25,86.25,0,0,1-22.71-3,.67.67,0,0,0-.36,1.3C35.28,80,49.94,80,63.37,76.66a73.76,73.76,0,0,0,14.09-5c1.34.22,2.69.42,4,.71,1.75.37,3.47.78,5.18,1.31a61,61,0,0,1,10,4.12c6.05,3.12,12.09,7,16.8,12a28.37,28.37,0,0,1,4.07,5.36,9.58,9.58,0,0,0-1.31-.51,9.21,9.21,0,0,0-2.49-.42c-.42,0-.84,0-1.26,0a4.54,4.54,0,0,0-1.27.31c-.26.09-.31.51,0,.57a26.2,26.2,0,0,1,4.43,1.14,12.85,12.85,0,0,1,1.94.94c.33.2.65.41,1,.64.15.12.3.26.44.39s.2.51.29.77C119.58,100,121.33,99.5,120.94,98.43Z"/><path class="cls-3" d="M84.31,103.13c-.12-4.09-2.25-8.57-6.06-9.8A6.58,6.58,0,0,0,76.49,93a.16.16,0,0,0-.14-.18c-4.65-1-10.87,1.52-12.92,5.92a10.41,10.41,0,0,0,.3,9,11.54,11.54,0,0,0,7.63,6.06,10.84,10.84,0,0,0,12.47-7.08A10.67,10.67,0,0,0,84.31,103.13Z"/><path class="cls-4" d="M60.65,43.82a9.15,9.15,0,0,0-.68-2,9.86,9.86,0,0,0-8.24-5.39,8.44,8.44,0,0,0-4.6,1c-6.55,3.75-4.25,14.44,2.34,16.74a8.77,8.77,0,0,0,9.35-2.65A9.39,9.39,0,0,0,60.65,43.82Z"/><path d="M31.76,75.86c-1.51-.31-3-.6-4.52-.94a28.4,28.4,0,0,1-4.46-1.17c-.82-.34-1.39,1-.6,1.44a10.63,10.63,0,0,0,2.35.71q1.32.33,2.64.6c1.69.35,3.39.64,5.1.88a76.35,76.35,0,0,0,10.13.75,80.16,80.16,0,0,0,20.45-2.5A79.31,79.31,0,0,0,95.41,58.3a70.6,70.6,0,0,0,13.34-15.36c.59-1-.85-1.75-1.48-.87A90.31,90.31,0,0,1,95.71,55.51,78.1,78.1,0,0,1,81.47,66.05,77,77,0,0,1,44.88,76.26a81.34,81.34,0,0,1-11.25-.51q-2.79-.31-5.55-.86c-.89-.17-1.77-.35-2.65-.55a18.83,18.83,0,0,0-2.85-.62V75.3a27.64,27.64,0,0,1,4.51.62c1.48.24,2.95.55,4.42.83.58.11.83-.77.25-.89Z"/><path d="M75.47,70.34c1.69.35,3.41.55,5.1.9s3.38.75,5,1.24a62.81,62.81,0,0,1,26.55,15.61q2,2,3.89,4.26c1.27,1.54,2.37,3.19,3.59,4.76.67.84,2-.24,1.47-1.13A35,35,0,0,0,118,91.67c-1.12-1.36-2.29-2.68-3.52-3.94a63.23,63.23,0,0,0-27-16.36q-2.86-.84-5.79-1.4a32,32,0,0,0-6-.71c-.61,0-.78.95-.15,1.08Z"/><g class="cls-5"><path d="M56.22,35.75A10.87,10.87,0,0,0,45,38.56a10.47,10.47,0,0,0-1.57,11.55,9.81,9.81,0,0,0,10.07,5.2,9.46,9.46,0,0,0,8.11-8.43,9.26,9.26,0,0,0-1.87-6.6,10.23,10.23,0,0,0-2.63-2.41,9.71,9.71,0,0,0-1.61-.81,2.33,2.33,0,0,0-1.68-.13.45.45,0,0,0-.19.74,2.77,2.77,0,0,0,1.06.65,7.94,7.94,0,0,1,1.3.58,8.51,8.51,0,0,1,2.1,1.64,7.94,7.94,0,0,1,2.16,4.89,8.19,8.19,0,0,1-5.75,8.34,8.68,8.68,0,0,1-9.38-3.22,9.35,9.35,0,0,1,0-10.26A10,10,0,0,1,56,36.61c.55.16.77-.68.24-.86Z"/></g><path class="cls-2" d="M60.71,45.66a.19.19,0,0,0-.32-.08,8.44,8.44,0,0,0-3-6.85c-.49-.36-1,.39-.62.8a9.16,9.16,0,0,1,2.36,4.7,7.82,7.82,0,0,1-.89,5.06c-1.83,3.18-5.52,4.34-9,3.84a.42.42,0,0,0-.23.81,7.33,7.33,0,0,0,4.89.14h0l.52-.17a.18.18,0,0,0,0,.13.2.2,0,0,0,.23.12l.82-.22.2-.06.05,0a4.63,4.63,0,0,0,2.17-1.2,7.6,7.6,0,0,0,1.63-1.86A7.42,7.42,0,0,0,60.71,45.66Z"/><path class="cls-2" d="M84.06,101.53a8.38,8.38,0,0,0-1.85-4.45.14.14,0,0,0-.1,0,1.54,1.54,0,0,0-.32-.3.39.39,0,0,0-.58.24,2.28,2.28,0,0,0,.18,1.4c.17.56.33,1.12.46,1.69a16.44,16.44,0,0,1,.41,3.27,9.45,9.45,0,0,1-1.79,5.8,8.89,8.89,0,0,1-4.75,3.27,9.47,9.47,0,0,1-3,.33c-1.07,0-2.07-.44-3.12-.53a.3.3,0,0,0-.21.52,5.7,5.7,0,0,0,3.08,1.08,10.2,10.2,0,0,0,3.61-.24c.67-.17,2.23,0,2.61-.16a10.76,10.76,0,0,0,5.25-7.08A12.12,12.12,0,0,0,84.06,101.53Z"/><g class="cls-5"><path d="M77.37,92.3c-5-1.18-10.63.19-13.49,4.7a12.48,12.48,0,0,0-.32,12.07,11.15,11.15,0,0,0,4.09,4.47A11.52,11.52,0,0,0,74.12,115a11.93,11.93,0,0,0,10.73-7.91c1.74-5.06-.32-11.69-5.58-13.68a.86.86,0,0,0-1.06.6.88.88,0,0,0,.6,1.06c3.92,1.6,5.66,6.39,4.86,10.34a10.23,10.23,0,0,1-8.48,8,9.62,9.62,0,0,1-9.75-4,11.39,11.39,0,0,1-1.09-10.44c2.08-5,7.82-6.78,12.79-5.8.54.1.78-.71.23-.84Z"/></g><path class="cls-2" d="M128,65.65a9.13,9.13,0,0,0-.58-2.53,4.15,4.15,0,0,0-1.52-2.22.59.59,0,0,0-.85.65c.2.84.85,1.55,1.12,2.38a7.69,7.69,0,0,1-1.22,7.17,7.63,7.63,0,0,1-4.14,2.48,7.88,7.88,0,0,1-2.37.17c-.83-.07-1.62-.27-2.44-.35a.24.24,0,0,0-.17.41,5.56,5.56,0,0,0,4,1.1,9.26,9.26,0,0,0,4.25-1.3A8.42,8.42,0,0,0,128,65.65Z"/><g class="cls-5"><path d="M119.88,57.94a7.85,7.85,0,0,0-8.23,3.42c-2.1,3.26-2.27,7.74.24,10.8a10.76,10.76,0,0,0,9.24,3.69A9.31,9.31,0,0,0,129,67.77a9.18,9.18,0,0,0-1.89-6.42,8.85,8.85,0,0,0-5.77-3.68c-.71-.07-.74.95-.16,1.17a10.44,10.44,0,0,1,4.52,2.82,8.32,8.32,0,0,1,2,4.79,8,8,0,0,1-5.72,8,9.33,9.33,0,0,1-8.36-2.2c-2.64-2.36-3-6-1.66-9.18a7.19,7.19,0,0,1,7.74-4.45c.42.07.61-.56.18-.65Z"/></g><path d="M97.69,47.22a9.26,9.26,0,0,0,3-.38,20.73,20.73,0,0,0,3.05-1.05A18.41,18.41,0,0,0,109,42.4l-1.69-1a44.77,44.77,0,0,0-.67,6.11,21.59,21.59,0,0,0,.13,3c.12,1,.13,2.49,1.27,2.84a.89.89,0,0,0,.89-.23c.75-.79.18-2,.05-2.91a20.44,20.44,0,0,1-.18-2.71,40.12,40.12,0,0,1,.46-5.58,1.05,1.05,0,0,0-.47-1.13,1,1,0,0,0-1.22.16,16.57,16.57,0,0,1-4.68,3.16,24.84,24.84,0,0,1-2.63,1c-.92.31-1.86.51-2.75.87a.59.59,0,0,0,.15,1.16Z"/><path d="M111,94.32a1.67,1.67,0,0,0,1.17.36c.39,0,.77.06,1.16.11a17,17,0,0,1,2.41.51,12.55,12.55,0,0,1,4.12,2.21,1.13,1.13,0,0,0,1.89-1.1c-.14-.56-.35-1.26-1-1.37l.57.43a2.86,2.86,0,0,1-.11-.73,5.46,5.46,0,0,1-.07-.9c0-.63,0-1.26,0-1.89a23.88,23.88,0,0,1,.45-3.47,1,1,0,1,0-2-.27,32.74,32.74,0,0,0-.29,3.82q0,1,0,2c0,.34,0,.68.06,1a6.11,6.11,0,0,1,.07,1l.47-.83c-.69.42-.63,1.21-.44,1.89l1.67-1.28a14.33,14.33,0,0,0-5-2.28,12.77,12.77,0,0,0-2.68-.41c-.79,0-2.15-.15-2.65.58a.59.59,0,0,0,.09.69Z"/></g></g></svg>