<svg xmlns="http://www.w3.org/2000/svg" viewBox="0 0 150 150"><defs><style>.cls-1{isolation:isolate;}.cls-2{fill:#b4dbdc;}.cls-3{fill:#67d3f4;mix-blend-mode:multiply;}</style></defs><g class="cls-1"><g id="Layer_1" data-name="Layer 1"><path class="cls-2" d="M54.38,50.86a.41.41,0,0,0-.09-.46c-2.28-2.49-6.12-1.74-8.36.38a12.29,12.29,0,0,0-2.75,4.27A13.46,13.46,0,0,0,41.91,61c.23,3.54,2.82,6.48,6.52,6.2,3.55-.27,6.08-3.06,7.4-6.17C57.23,57.7,57.33,53.23,54.38,50.86Z"/><path d="M57.19,56.38c1.14-3.67-2.08-7.19-5.55-7.88-3.92-.77-7.45,2-9.08,5.41a11.19,11.19,0,0,0,.23,10.67,6.74,6.74,0,0,0,4,3.07,7,7,0,0,0,5.57-1.11,10.34,10.34,0,0,0,4-5.47c.85-2.55.75-5.28,1-7.92h-.78a67.13,67.13,0,0,0,.57,8.63,6.81,6.81,0,0,0,1.39,3.41,5.37,5.37,0,0,0,2.8,1.68c2.53.61,5-.6,6.83-2.24a11.65,11.65,0,0,0,3.57-6.56c1.06-5.28-.7-10.79-3.83-15a20.94,20.94,0,0,0-13.49-8.48A22.67,22.67,0,0,0,38.33,38a23.66,23.66,0,0,0-9.41,13.45,24.66,24.66,0,0,0,1,16.12,24.4,24.4,0,0,0,10.32,11.7,20,20,0,0,0,26.83-7,17.59,17.59,0,0,0,1.48-3.42c.3-.93-1.17-1.33-1.47-.4-2.9,9-13.92,13.65-22.64,10.82C34.94,76.2,29,66.07,29.73,56.3a23.23,23.23,0,0,1,5.9-13.84,20.66,20.66,0,0,1,13.49-6.53,19.19,19.19,0,0,1,14,4.34,20.35,20.35,0,0,1,7.13,12.62A14.49,14.49,0,0,1,69.46,60a9.43,9.43,0,0,1-4.63,5,4.56,4.56,0,0,1-5.45-.87,6.82,6.82,0,0,1-1.2-3.19,31.42,31.42,0,0,1-.43-3.75c-.1-1.38-.22-2.74-.44-4.11-.08-.44-.78-.33-.77.1a22.89,22.89,0,0,1-.73,6.12,11.68,11.68,0,0,1-2.58,5.12,7.29,7.29,0,0,1-4.56,2.37A5.2,5.2,0,0,1,44.44,65c-2.14-2.34-2.47-6-1.58-8.91.94-3.11,3.44-6.23,6.86-6.6s7.49,3,6.59,6.65a.46.46,0,0,0,.88.24Z"/><path d="M94.6,30.55c-1.21,5.67-2.15,11.4-3.21,17.1s-2.08,11.34-3.11,17c-.29,1.59-.58,3.18-.86,4.77L87,71.88c-.14.81-.37,1.53.24,2.19a.65.65,0,0,0,.78.1c.69-.36.75-1,.86-1.64l.38-2.21c.24-1.43.47-2.87.71-4.3l1.4-8.61c.92-5.7,1.82-11.4,2.74-17.11.51-3.2,1.06-6.4,1.48-9.62.08-.55-.86-.67-1-.13Z"/><path d="M108.88,29.33c-.76,3-1.25,6-1.82,9s-1.11,6-1.66,9q-1.62,9-3.23,17.93c-.61,3.39-1.34,6.78-1.81,10.2a1,1,0,0,0,.64,1.12.92.92,0,0,0,1.13-.64c.64-3,1.06-6.07,1.58-9.1s1.05-6.07,1.57-9.1c1-6,2.06-12,3-18,.55-3.42,1.21-6.84,1.55-10.28.06-.57-.85-.68-1-.14Z"/><path d="M81.88,49.89a35.78,35.78,0,0,0,3.73-.15l3.61-.23,7.34-.5,14.56-1,8.34-.61c1-.07,1-1.62,0-1.54-9.83.76-19.67,1.49-29.49,2.34l-4.11.36a37.68,37.68,0,0,0-4.11.44c-.55.11-.39.91.13.93Z"/><path d="M79.81,63.24c9.27-1,18.49-2.51,27.72-3.85l7.87-1.14c1-.15.61-1.76-.44-1.59C105.81,58.11,96.65,59.53,87.5,61q-3.91.63-7.81,1.36c-.48.1-.38.93.12.88Z"/><path d="M42.79,88c-.3,4.89-.33,9.8-.41,14.69l-.12,7.23c0,1.24,0,2.49,0,3.73s-.1,2.5,0,3.74a.89.89,0,0,0,1.78,0c.11-1.23,0-2.5.05-3.74s0-2.49,0-3.73v-7.23c0-4.89,0-9.8-.16-14.69a.56.56,0,0,0-1.11,0Z"/><path d="M44.16,123.08l-.08,0,0,0a.8.8,0,0,0-.4-.11.84.84,0,0,0-.41.11h0l-.09,0h0a.86.86,0,0,0-.3.27.89.89,0,0,0-.19.36,1.1,1.1,0,0,0,0,.57l.11.25a1.06,1.06,0,0,0,.38.38,1,1,0,0,0,.54.14l.28,0a1,1,0,0,0,.47-.28.87.87,0,0,0,.22-.34.91.91,0,0,0,.09-.41,1.08,1.08,0,0,0-.53-.91Z"/><path d="M77.57,84.08q-3.42,0-6.83.12a.69.69,0,0,0-.67.67q-.48,14.61-.85,29.21l-.2,8.33a.85.85,0,0,0,.84.84l3.66-.14a34,34,0,0,0,3.64-.22c1-.15.65-1.56-.22-1.61a29.91,29.91,0,0,0-3.54.12l-3.54.17.84.84c.22-9.73.45-19.47.58-29.21l.12-8.33-.66.67c2.28-.11,4.55-.25,6.83-.43a.52.52,0,0,0,0-1Z"/><path d="M88,83.81c-1.51-.11-3.07,0-4.59,0H80.71a.76.76,0,0,0-.75.76c.11,3.38.11,6.76.07,10.14l-.2,17.36q-.06,4.88-.09,9.74a.67.67,0,0,0,.66.66,61.52,61.52,0,0,0,6.79,0c.8-.07.81-1.33,0-1.27a59.16,59.16,0,0,1-6.79,0l.66.65q.16-8.67.29-17.36c.09-5.22.3-10.46.22-15.69,0-1.4,0-2.79-.1-4.19l-.76.76c.91,0,1.82,0,2.73,0A27.12,27.12,0,0,0,88.12,85c.72-.14.49-1.16-.17-1.21Z"/><path d="M105.56,85.11q3.41.27,6.83.43l-.67-.67q.21,14.61.51,29.21l.19,8.33.84-.84-3.54-.17a29.91,29.91,0,0,0-3.54-.12c-.86,0-1.19,1.46-.22,1.61a34,34,0,0,0,3.64.22l3.66.14a.85.85,0,0,0,.84-.84c-.23-9.74-.46-19.47-.78-29.21l-.27-8.33a.68.68,0,0,0-.66-.67q-3.42-.11-6.83-.12a.52.52,0,0,0,0,1Z"/><path d="M95,85a27.12,27.12,0,0,0,4.68.29c.91,0,1.82,0,2.73,0l-.76-.76c-.11,3.38-.09,6.76,0,10.14l.28,17.36q.08,4.88.18,9.74l.65-.65a59.16,59.16,0,0,1-6.79,0c-.81-.06-.8,1.2,0,1.27a61.52,61.52,0,0,0,6.79,0,.67.67,0,0,0,.66-.66c0-5.78-.11-11.57-.18-17.36-.06-5.22-.25-10.46-.15-15.69,0-1.4.07-2.79.11-4.19a.76.76,0,0,0-.75-.76H99.76c-1.52,0-3.08-.15-4.59,0-.65,0-.89,1.07-.17,1.21Z"/><path class="cls-3" d="M68.69,45.5A21,21,0,0,0,66.05,41a13.12,13.12,0,0,0-4-3.78.79.79,0,0,0-.95,1.24c.92,1,2,1.89,2.85,2.94a19.21,19.21,0,0,1,2.27,3.38,19.58,19.58,0,0,1,2.23,7.55,16.48,16.48,0,0,1-1.19,7.89c-1.06,2.32-3.25,3.93-5.87,3.24a4.41,4.41,0,0,1-2.55-1.82,5.26,5.26,0,0,1-.66-1.47c-.11-.41,0-1.05-.41-1.3a7,7,0,0,0,0,3.83c.46,1.94,2.69,2.84,4.47,3a6.58,6.58,0,0,0,5.32-1.91c2.26-2.31,3-5.82,3-8.95A22.93,22.93,0,0,0,68.69,45.5Z"/><path class="cls-3" d="M64.94,67.94c-2.43,4.91-6.47,9.48-12.28,10.27a19.93,19.93,0,0,1-16.93-6.45A21,21,0,0,1,30.66,56.3a24,24,0,0,1,2.72-9.4.48.48,0,0,0-.82-.48,23,23,0,0,0-2.88,17.73,23.44,23.44,0,0,0,9.84,14,24,24,0,0,0,4.36,2.26,9.51,9.51,0,0,0,4.83,1,.9.9,0,0,0,.73-.93,16.36,16.36,0,0,0,4.42-.09,15.7,15.7,0,0,0,9.89-6.13,11.49,11.49,0,0,0,2.59-5.9A.76.76,0,0,0,64.94,67.94Z"/><path class="cls-3" d="M120.23,46.64c-4.85.33-7.43.67-12.27,1q.48-3.45,1-6.88c.22-1.67.43-3.33.63-5a37,37,0,0,0,.5-5,.64.64,0,0,0-1.25-.17,34.36,34.36,0,0,0-.86,4.41c-.25,1.47-.49,3-.73,4.44-.47,2.78-.88,5.58-1.31,8.37q-5.9.43-11.79.91l1.32-8.3c.49-3.09,1-6.2,1.26-9.32.06-.69-1-.81-1.2-.16-1.4,5.32-2.29,10.78-3.32,16.17l-.33,1.79c-1.23.1-2.45.21-3.68.34a20.31,20.31,0,0,0-4.18.64c-.36.13-.44.74,0,.82a16.85,16.85,0,0,0,3.62.09c1.26,0,2.52-.08,3.78-.16h.14Q90.43,56.33,89.38,62a29.54,29.54,0,0,0-5.18,1,.37.37,0,0,0,.1.73,26.3,26.3,0,0,0,4.82-.41l-.81,4.42c-.14.79-.29,1.58-.43,2.37a4.91,4.91,0,0,0-.2,2.48,1.22,1.22,0,0,0,2,.53,3.37,3.37,0,0,0,.68-1.89l.37-2.23c.23-1.35.45-2.7.68-4l.33-2q2.9-.39,5.79-.81l6.27-.88c-.24,1.52-.47,3-.7,4.55-.5,3.36-1,6.71-1.44,10.08-.16,1.28,2.06,1.59,2.27.31.84-5.08,1.49-10.18,2.19-15.27,1.58-.23,3.16-.47,4.74-.73.76-.13.59-1.46-.19-1.36-1.45.17-2.9.38-4.35.58,0-.32.09-.64.13-1,.42-3,.82-5.94,1.23-8.91,2.08-.15,9.69-.84,12.54-1.05C121.47,48.5,121.48,46.55,120.23,46.64ZM97.44,60.83c-1.82.26-3.64.54-5.46.82l.81-4.86q.52-3.13,1-6.29l5.13-.3,6.65-.43q-.78,5-1.55,10.07Z"/><path class="cls-3" d="M45.34,109.68c0-2.48-.06-5-.09-7.44-.06-5-.06-10-.42-15a.39.39,0,0,0-.78,0c-.49,5-.62,10-.8,15q-.12,3.72-.27,7.44c0,1.22-.09,2.43-.11,3.65s-.32,2.82.23,3.94a1.14,1.14,0,0,0,1.95,0,3.92,3.92,0,0,0,.3-2v-2C45.37,112.11,45.36,110.9,45.34,109.68Z"/><path class="cls-3" d="M45.69,123.59a.27.27,0,0,0,0-.12,1.44,1.44,0,0,0-.24-.46,1.37,1.37,0,0,0-.37-.35l-.1,0a1.48,1.48,0,0,0-.29-.12l-.24,0h-.05a1.55,1.55,0,0,0-.31,0l-.11,0-.13,0a1.28,1.28,0,0,0-.49.29.62.62,0,0,0-.19.46.59.59,0,0,0,.14.4.58.58,0,0,0,.34.23.65.65,0,0,0,.24,0,.6.6,0,0,0-.09.13.69.69,0,0,0-.08.35l0,.24a.75.75,0,0,0,.17.3.41.41,0,0,0,.16.16.62.62,0,0,0,.3.16l.24,0a.89.89,0,0,0,.45-.12,1,1,0,0,0,.48-.46,2.55,2.55,0,0,0,.13-.29.56.56,0,0,0,0-.12c0-.1,0-.22,0-.32a.49.49,0,0,0,0-.12A3.06,3.06,0,0,0,45.69,123.59Z"/><path class="cls-3" d="M76.49,121.39a6.18,6.18,0,0,0-1.42-.37l-1.43-.27c-.48-.09-1-.13-1.45-.19l-.74-.06c.11-1,.1-2,.13-3l.12-3.65c.07-2.34.15-4.68.22-7,.16-4.73.23-9.45.29-14.18,0-2.7.15-5.44-.07-8.14,0-.49-.83-.68-.92-.13-.34,2.32-.42,4.67-.55,7s-.28,4.67-.39,7c-.22,4.73-.38,9.45-.54,14.18,0,1.36-.09,2.71-.14,4.07a32.59,32.59,0,0,0-.1,4.07,1.06,1.06,0,0,0,1.62.76,5.17,5.17,0,0,0,.75.27,13.85,13.85,0,0,0,1.4.39l1.37.3a6.44,6.44,0,0,0,1.51.25.7.7,0,0,0,.66-.5A.68.68,0,0,0,76.49,121.39Z"/><path class="cls-3" d="M85.76,120.12A3.15,3.15,0,0,0,85,120L83.76,120c-.49,0-1-.08-1.5-.08.21-9.17.63-18.33.65-27.51a51.74,51.74,0,0,0-.35-8.16c-.06-.41-.71-.38-.8,0A44.32,44.32,0,0,0,81,91.37c-.15,2.45-.32,4.9-.42,7.35q-.28,7.27-.5,14.55c-.08,2.78-.19,5.55-.31,8.33-.07,1.59,2.44,1.6,2.47,0a.76.76,0,0,0,0-.15l.16,0c.46.07.92.1,1.38.14l1.25.12a2.69,2.69,0,0,0,.75,0,.86.86,0,0,0,.7-.78A.89.89,0,0,0,85.76,120.12Z"/><path class="cls-3" d="M102.08,120.45q0-1.74,0-3.48c0-5,0-10,0-15,0-2.77,0-5.54-.1-8.3a79.23,79.23,0,0,0-.39-8.58c-.06-.5-.9-.76-1-.13a68.42,68.42,0,0,0-.43,7.3c-.09,2.49-.14,5-.19,7.46-.11,5-.12,10-.17,15,0,1.26,0,2.53,0,3.8,0,.56,0,1.12,0,1.68a.86.86,0,0,1,0,.16h-.5a19,19,0,0,0-2.72.12.72.72,0,0,0,0,1.37,19,19,0,0,0,2.72.12l.81,0s0,.1.08.14a1.11,1.11,0,0,0,1.32.2,1.05,1.05,0,0,0,.41-.37h0a.81.81,0,0,0,.79-.8A.76.76,0,0,0,102.08,120.45Z"/><path class="cls-3" d="M112.81,92.4a50.26,50.26,0,0,0-1-8.21c-.12-.48-.78-.33-.82.12a70.06,70.06,0,0,0,0,7.39c0,2.43,0,4.85,0,7.27,0,4.9-.07,9.79-.31,14.68-.07,1.4-.14,2.8-.25,4.19-.07.89-.2,1.8-.25,2.7h-.37l-1,0a5.79,5.79,0,0,0-1.09.13.56.56,0,0,0,0,1.07,5.79,5.79,0,0,0,1.09.13l1,0h.4s0,.07,0,.1c.15,1.17,1.87,1,2.16,0,0-.13.06-.26.09-.39a.69.69,0,0,0,.13-.41.7.7,0,0,0,0-.14c.12-.89.09-1.84.13-2.71.06-1.25.13-2.51.19-3.77q.17-3.7.22-7.41C113.25,102.28,113.17,97.34,112.81,92.4Z"/><path class="cls-3" d="M56.85,54.92a5.15,5.15,0,0,0-1-2.77,3.35,3.35,0,0,0-1.06-1.29c-.39-.26-.76.24-.59.59a11.88,11.88,0,0,1,1,2.21A6.81,6.81,0,0,1,55.38,56a12.69,12.69,0,0,1-2,5c-1.62,2.72-4.73,5.78-8.17,4a.41.41,0,0,0-.59.28l-.19-.09a.45.45,0,0,0-.5.65c1,1.47,3.59,1.53,5.17,1.13a8.91,8.91,0,0,0,4.69-3.31,15.66,15.66,0,0,0,2.83-5.63A8.92,8.92,0,0,0,56.85,54.92Z"/></g></g></svg>