<svg width="40" height="40" viewBox="0 0 40 40" fill="none" xmlns="http://www.w3.org/2000/svg">
<path d="M13.6 16.9545C14.7813 16.9545 15.968 16.9545 17.1307 16.9545C17.2879 16.9545 17.4388 17.0168 17.5502 17.1278C17.6617 17.2387 17.7246 17.3893 17.7253 17.5465C17.7253 18.3759 17.696 19.4132 17.6773 20.3039C17.6293 22.6559 17.512 24.0665 16.144 25.2932C15.4968 25.9087 14.6371 26.2507 13.744 26.2479C12.288 26.2479 10.7147 25.3199 10.2 23.9199C10.0632 23.5356 9.95188 23.1427 9.86666 22.7439C9.68266 21.5225 9.89866 19.1999 10.1173 16.8772L13.6 16.9545Z" fill="#29AAE1"/>
<path d="M16 12.4908C15.9611 12.3068 15.9011 12.1278 15.8213 11.9575C15.7029 11.6783 15.5244 11.4287 15.2986 11.2264C15.0727 11.0241 14.8051 10.874 14.5147 10.7868C13.8972 10.6295 13.2467 10.662 12.648 10.8801C12.3057 11.0254 12.0024 11.2494 11.7629 11.5339C11.5233 11.8184 11.3542 12.1554 11.2693 12.5175C11.2186 12.7178 11.1953 12.9242 11.2 13.1308C11.2006 13.3028 11.2313 13.4734 11.2907 13.6348C11.2829 13.641 11.277 13.6494 11.2737 13.6588C11.2704 13.6682 11.2698 13.6784 11.272 13.6881C11.3271 13.9167 11.4543 14.1214 11.6347 14.2721C11.6436 14.2815 11.6544 14.2889 11.6663 14.294C11.6782 14.2991 11.691 14.3017 11.704 14.3017C11.7169 14.3017 11.7298 14.2991 11.7417 14.294C11.7536 14.2889 11.7644 14.2815 11.7733 14.2721C11.7842 14.2565 11.7901 14.2379 11.7901 14.2188C11.7901 14.1997 11.7842 14.1811 11.7733 14.1655C11.9867 14.1815 12.2 14.1921 12.4133 14.2028L12.7733 14.2188H12.976C13.0498 14.2902 13.1103 14.3742 13.1547 14.4668C13.178 14.5197 13.195 14.5752 13.2053 14.6321C13.2053 14.6615 13.2053 14.6935 13.2053 14.7228C13.204 14.7334 13.204 14.7442 13.2053 14.7548C13.2053 14.7735 13.2053 14.7895 13.2053 14.8055C13.2053 14.8215 13.2053 14.8641 13.2053 14.8935C13.1963 14.924 13.1901 14.9552 13.1867 14.9868C13.1867 15.0028 13.2 15.0135 13.2133 15.0161C13.2133 15.0428 13.2133 15.0668 13.2133 15.0935C13.1741 15.1023 13.137 15.1186 13.104 15.1415C13.0587 15.1761 13.0533 15.2668 13.1227 15.2775C13.192 15.2881 13.3013 15.2775 13.3893 15.2961L13.656 15.3228C13.7446 15.3321 13.834 15.3321 13.9227 15.3228C14.3334 15.2621 14.7234 15.1031 15.0596 14.8594C15.3957 14.6157 15.668 14.2943 15.8533 13.9228C16.0569 13.4742 16.1084 12.9714 16 12.4908Z" fill="#29AAE1"/>
<path d="M13.192 18.2721C13.192 17.7388 13.192 17.2054 13.192 16.6721V15.2561C13.192 15.0588 13.24 14.3601 12.9787 14.2854C12.8037 14.2462 12.6245 14.2292 12.4453 14.2348C10.488 14.1814 8.51734 14.2054 6.56 14.2348C6.19467 14.2348 5.672 14.1574 5.36534 14.4081C4.984 14.7174 5.16534 15.2081 5.15467 15.6268C5.14222 16.2063 5.13156 16.7832 5.12267 17.3574C5.104 18.5681 5.12267 19.7841 5.12267 20.9921C5.12267 21.2321 5.12267 21.4801 5.13867 21.7174C5.14001 21.8136 5.17319 21.9066 5.23303 21.9818C5.29286 22.0571 5.37597 22.1104 5.46934 22.1334C5.55771 22.147 5.64763 22.147 5.736 22.1334C5.86934 22.1334 6.00267 22.1334 6.13334 22.1334H7.70667C9.29067 22.1334 10.8747 22.1521 12.456 22.1334C12.5716 22.1389 12.6874 22.1281 12.8 22.1014C12.928 22.1201 13.0667 21.9868 13.1173 21.8748C13.1876 21.6756 13.2104 21.4629 13.184 21.2534C13.184 20.2668 13.1893 19.2668 13.192 18.2721Z" fill="#1D79A1"/>
<path d="M10.84 16.8587C10.7813 16.696 10.88 16.4774 10.8133 16.3254C10.7653 16.2214 10.7467 16.264 10.64 16.2587C10.4587 16.2587 10.2747 16.2267 10.1067 16.232L9.30666 16.2507L8.14933 16.2667C7.96211 16.2507 7.77388 16.2507 7.58666 16.2667C7.56533 16.2667 7.50399 16.2507 7.48799 16.2667C7.39733 16.3334 7.43199 16.9147 7.54133 16.9147C7.54999 16.9176 7.55933 16.9176 7.56799 16.9147C7.68533 16.864 7.84799 16.9147 7.96799 16.936C8.16533 16.952 8.35999 16.936 8.55733 16.96C8.75466 16.984 8.64799 17.2614 8.64533 17.3867C8.63199 17.736 8.62933 18.0854 8.62666 18.4374C8.62399 18.7894 8.61333 19.128 8.62666 19.472C8.62666 19.6187 8.62666 19.7654 8.62666 19.912C8.62666 19.984 8.62666 20.056 8.62666 20.128C8.64266 20.1956 8.64266 20.2659 8.62666 20.3334C8.70182 20.3527 8.77858 20.3652 8.85599 20.3707H9.17599C9.28774 20.3601 9.40025 20.3601 9.51199 20.3707C9.60533 20.2694 9.53599 19.8534 9.54133 19.6134C9.54133 19.3067 9.54133 19.0107 9.55733 18.704C9.55733 18.5547 9.58933 16.9574 9.55733 16.9494C9.96799 16.9494 10.3573 16.9494 10.7627 16.9494C10.7743 16.9507 10.7862 16.9491 10.7971 16.9448C10.808 16.9404 10.8177 16.9335 10.8254 16.9245C10.833 16.9156 10.8383 16.9049 10.8409 16.8934C10.8434 16.882 10.8431 16.87 10.84 16.8587Z" fill="white"/>
<g style="mix-blend-mode:multiply">
<path d="M13.184 20.5174C13.184 19.184 13.1467 17.8507 13.1467 16.5174C13.1843 15.9842 13.1744 15.4488 13.1173 14.9174C13.1173 14.8534 13.008 14.8587 12.992 14.9174C12.9497 15.1319 12.9248 15.3495 12.9173 15.568C12.9173 15.7867 12.8933 16.0027 12.8827 16.2214L12.8187 17.5547C12.7787 18.44 12.7333 19.3254 12.704 20.2214L12.6587 21.6454C10.9467 21.704 9.23467 21.752 7.52267 21.824C7.28533 21.824 7.048 21.8454 6.81067 21.8614L6.456 21.888H6.25867H6.14667C6.00267 21.888 5.85867 21.888 5.71467 21.888C5.56535 21.8775 5.4158 21.905 5.28 21.968C5.26955 21.9751 5.261 21.9847 5.25508 21.9958C5.24917 22.007 5.24608 22.0194 5.24608 22.032C5.24608 22.0447 5.24917 22.0571 5.25508 22.0682C5.261 22.0794 5.26955 22.0889 5.28 22.096C5.39015 22.1494 5.51282 22.1715 5.63467 22.16C5.77867 22.16 5.92533 22.16 6.06933 22.16H6.86934L8.50667 22.1387C9.57334 22.1227 10.656 22.1147 11.7307 22.1067C11.9627 22.1067 12.2053 22.1067 12.44 22.1067C12.5767 22.116 12.7139 22.116 12.8507 22.1067C12.9586 22.079 13.0531 22.0137 13.1173 21.9227V21.904C13.1786 21.6946 13.1923 21.4741 13.1573 21.2587C13.1467 21.0134 13.184 20.7654 13.184 20.5174Z" fill="#67D3F4"/>
</g>
<g style="mix-blend-mode:multiply">
<path d="M17.6667 18.6666C17.6507 18.4358 17.6507 18.2041 17.6667 17.9733C17.7158 17.7135 17.703 17.4458 17.6293 17.1919C17.6261 17.1811 17.6204 17.1712 17.6127 17.1629C17.605 17.1546 17.5956 17.1482 17.585 17.144C17.5745 17.1399 17.5632 17.1383 17.5519 17.1392C17.5407 17.1401 17.5297 17.1435 17.52 17.1493C17.5013 17.0933 17.4 17.0773 17.392 17.1493C17.2293 18.3439 17.1253 19.5733 17.0133 20.7839C16.8987 21.9386 16.8507 23.2026 16.3173 24.2506C16.0623 24.741 15.674 25.1494 15.197 25.4287C14.72 25.708 14.1738 25.8469 13.6213 25.8293C13.4813 25.8288 13.3414 25.819 13.2027 25.7999C13.0613 25.7786 12.8747 25.7786 12.832 25.9146C12.8226 25.9538 12.8257 25.9951 12.841 26.0324C12.8564 26.0697 12.8831 26.1013 12.9173 26.1226C12.9873 26.1637 13.0657 26.1884 13.1467 26.1946C13.878 26.2968 14.6233 26.1828 15.2907 25.8666C15.9592 25.5456 16.5164 25.0321 16.8907 24.3919C17.2144 23.7909 17.4173 23.1323 17.488 22.4533C17.6133 21.4746 17.624 20.4746 17.688 19.4906C17.6967 19.2157 17.6896 18.9406 17.6667 18.6666Z" fill="#67D3F4"/>
</g>
<g style="mix-blend-mode:multiply">
<path d="M16.1067 12.6108C16.0978 12.5092 16.0809 12.4084 16.056 12.3095C16.0373 12.235 16.0132 12.1619 15.984 12.0908C15.9609 12.0712 15.9403 12.0488 15.9227 12.0242L15.8667 11.9468C15.8296 11.8878 15.7966 11.8264 15.768 11.7628C15.712 11.6642 15.6507 11.5682 15.5893 11.4722C15.5717 11.4863 15.5579 11.5046 15.5493 11.5255C15.5388 11.4987 15.5244 11.4735 15.5067 11.4508C15.4773 11.4108 15.4053 11.4188 15.408 11.4775C15.4295 11.6289 15.4616 11.7786 15.504 11.9255C15.5317 12.0797 15.5486 12.2356 15.5547 12.3922C15.5785 12.7075 15.556 13.0247 15.488 13.3335C15.3616 13.8534 15.0741 14.32 14.6667 14.6668C14.5546 14.7619 14.4298 14.8409 14.296 14.9015C14.1544 14.9595 14.0092 15.0085 13.8613 15.0482C13.8133 15.0642 13.8187 15.1442 13.8613 15.1415H13.8667C13.8455 15.1523 13.8258 15.1658 13.808 15.1815C13.7965 15.1941 13.7883 15.2095 13.7843 15.2261C13.7803 15.2428 13.7805 15.2602 13.7851 15.2767C13.7896 15.2932 13.7982 15.3083 13.8102 15.3205C13.8221 15.3328 13.837 15.3419 13.8533 15.3468C13.9306 15.3643 14.0107 15.3643 14.088 15.3468C14.1666 15.3375 14.2442 15.3215 14.32 15.2988C14.4693 15.2475 14.6138 15.1832 14.752 15.1068C15.029 14.9503 15.2734 14.7421 15.472 14.4935C15.9165 13.9702 16.1436 13.2965 16.1067 12.6108Z" fill="#67D3F4"/>
</g>
<path d="M11.44 13.5042C11.4358 13.5042 11.4317 13.5058 11.4287 13.5088C11.4257 13.5118 11.424 13.5159 11.424 13.5202C11.424 13.5244 11.4257 13.5285 11.4287 13.5315C11.4317 13.5345 11.4358 13.5362 11.44 13.5362C11.4442 13.5362 11.4483 13.5345 11.4513 13.5315C11.4543 13.5285 11.456 13.5244 11.456 13.5202C11.456 13.5159 11.4543 13.5118 11.4513 13.5088C11.4483 13.5058 11.4442 13.5042 11.44 13.5042Z" fill="#29AAE1"/>
<path d="M10.5307 14.2479C10.5042 14.2315 10.4738 14.2223 10.4427 14.2212H10.4C10.3655 14.2173 10.3306 14.2173 10.296 14.2212L10.1413 14.2479C10.1232 14.253 10.1073 14.2638 10.0957 14.2787C10.0842 14.2936 10.0778 14.3117 10.0773 14.3306C10.078 14.3496 10.0845 14.368 10.0959 14.3833C10.1074 14.3985 10.1232 14.4099 10.1413 14.4159L10.296 14.4426H10.4H10.4373C10.4683 14.4424 10.4986 14.4341 10.5253 14.4186C10.5377 14.4082 10.5477 14.3953 10.5547 14.3808C10.5617 14.3663 10.5656 14.3505 10.5661 14.3344C10.5666 14.3183 10.5637 14.3023 10.5576 14.2874C10.5515 14.2725 10.5423 14.259 10.5307 14.2479Z" fill="#1D79A1"/>
<path d="M5.06666 14.7706C4.984 16.0532 4.98933 17.3439 4.98666 18.6266C4.98666 19.2328 4.98666 19.8372 4.98666 20.4399C4.98666 20.7412 4.98666 21.0399 4.98666 21.3412C4.98666 21.5759 4.93866 21.8932 5.09333 22.0932C5.248 22.2932 5.50133 22.2692 5.73333 22.2692H6.71466H8.62933C9.904 22.2692 11.176 22.2692 12.4507 22.2372C12.68 22.2372 12.952 22.2692 13.1307 22.0906C13.3093 21.9119 13.264 21.6426 13.2667 21.4159C13.2667 20.7919 13.2729 20.1697 13.2853 19.5492C13.2853 18.2879 13.2853 17.0292 13.2853 15.7679C13.2853 15.4532 13.2853 15.1412 13.272 14.8266C13.272 14.5972 13.2907 14.3572 13.088 14.1999C12.9252 14.1112 12.7384 14.0766 12.5547 14.1012H12.0213C11.1787 14.1012 10.336 14.1012 9.49066 14.1012C8.22933 14.1012 6.96266 14.1012 5.69866 14.1226H5.63466C5.60213 14.1226 5.57093 14.1355 5.54792 14.1585C5.52492 14.1815 5.512 14.2127 5.512 14.2452C5.512 14.2778 5.52492 14.309 5.54792 14.332C5.57093 14.355 5.60213 14.3679 5.63466 14.3679L8.54933 14.3492H11.0027H12.6427C12.7319 14.3382 12.8225 14.3445 12.9093 14.3679C13.0613 14.4319 13.0427 14.5999 13.0453 14.7359C13.0667 15.9199 13.0667 17.0959 13.0667 18.2746C13.0667 18.8666 13.0667 19.4612 13.0667 20.0532V20.9412C13.0827 21.2201 13.0827 21.4997 13.0667 21.7786C13.0267 22.0826 12.5733 21.9972 12.3493 22.0026L11.4667 22.0186C10.8693 22.0186 10.272 22.0239 9.67466 22.0346C8.45333 22.0346 7.232 22.0346 6.01066 22.0346H5.57333C5.41333 22.0346 5.28266 21.9999 5.25866 21.8212C5.23646 21.5418 5.23022 21.2614 5.24 20.9812C5.24 20.4079 5.224 19.8372 5.216 19.2666C5.216 18.0719 5.216 16.8666 5.22933 15.6879C5.22933 15.3812 5.22933 15.0772 5.22933 14.7706C5.22933 14.7501 5.22118 14.7304 5.20668 14.7159C5.19218 14.7014 5.17251 14.6932 5.152 14.6932C5.13149 14.6932 5.11182 14.7014 5.09731 14.7159C5.08281 14.7304 5.07466 14.7501 5.07466 14.7706H5.06666Z" fill="black"/>
<path d="M11.3387 13.712C11.272 13.3707 11.2751 13.0194 11.348 12.6793C11.4209 12.3392 11.5619 12.0174 11.7627 11.7334C11.9775 11.444 12.2548 11.2068 12.5739 11.0393C12.893 10.8718 13.2457 10.7782 13.6059 10.7657C13.9661 10.7531 14.3244 10.8219 14.6544 10.9668C14.9844 11.1117 15.2775 11.329 15.512 11.6027C15.7519 11.9005 15.9084 12.2566 15.9655 12.6347C16.0227 13.0128 15.9784 13.3993 15.8373 13.7547C15.6686 14.156 15.3948 14.5042 15.0447 14.7628C14.6945 15.0215 14.2811 15.1808 13.848 15.224C13.6907 15.2427 13.688 15.4907 13.848 15.472C14.2728 15.4269 14.681 15.2828 15.0399 15.0512C15.3989 14.8196 15.6985 14.5071 15.9147 14.1387C16.1204 13.7824 16.2287 13.3782 16.2287 12.9667C16.2287 12.5552 16.1204 12.151 15.9147 11.7947C15.0773 10.36 12.936 10.1014 11.8027 11.3334C11.5124 11.6572 11.3057 12.0472 11.2007 12.4692C11.0956 12.8912 11.0954 13.3326 11.2 13.7547C11.2213 13.848 11.3653 13.808 11.344 13.712H11.3387Z" fill="black"/>
<path d="M7.46667 16.2932C8.088 16.3359 8.72 16.2932 9.33334 16.2932C9.832 16.2932 10.3333 16.2932 10.832 16.2932V16.1572C10.8143 16.1572 10.7974 16.1642 10.7849 16.1767C10.7724 16.1893 10.7653 16.2062 10.7653 16.2239C10.7458 16.4628 10.7502 16.7032 10.7787 16.9412C10.7787 16.9946 10.88 16.9946 10.888 16.9412C10.9111 16.7028 10.9156 16.463 10.9013 16.2239L10.832 16.2932C10.8477 16.2901 10.8619 16.2816 10.8721 16.2692C10.8822 16.2568 10.8878 16.2413 10.8878 16.2252C10.8878 16.2092 10.8822 16.1936 10.8721 16.1812C10.8619 16.1688 10.8477 16.1604 10.832 16.1572C10.3333 16.1386 9.832 16.1572 9.33334 16.1572C8.712 16.1572 8.07467 16.1572 7.46667 16.2132C7.4596 16.2132 7.45281 16.216 7.44781 16.221C7.44281 16.226 7.44 16.2328 7.44 16.2399C7.44 16.247 7.44281 16.2537 7.44781 16.2587C7.45281 16.2637 7.4596 16.2666 7.46667 16.2666V16.2932Z" fill="black"/>
<path d="M9.57067 16.9785C9.77867 16.9972 9.992 16.9785 10.2027 16.9972L10.8427 17.0185C10.8618 17.0185 10.8801 17.0109 10.8936 16.9974C10.9071 16.9839 10.9147 16.9656 10.9147 16.9465C10.9147 16.9274 10.9071 16.9091 10.8936 16.8956C10.8801 16.8821 10.8618 16.8745 10.8427 16.8745L10.192 16.8905C9.98161 16.8883 9.77132 16.9007 9.56267 16.9278C9.53067 16.9278 9.54134 16.9785 9.56267 16.9785H9.57067Z" fill="black"/>
<path d="M9.52266 16.9522C9.49066 17.5229 9.504 18.0935 9.49866 18.6642C9.49333 19.2349 9.49866 19.8029 9.49866 20.3735L9.56 20.3122C9.256 20.3122 8.94933 20.3122 8.64266 20.2909L8.712 20.3602C8.73333 19.2242 8.76266 18.0882 8.77333 16.9522C8.77333 16.9296 8.76434 16.9079 8.74834 16.8919C8.73233 16.8759 8.71063 16.8669 8.688 16.8669C8.28533 16.8669 7.888 16.8669 7.48 16.8669L7.56533 16.9522C7.56533 16.7255 7.56533 16.4962 7.56533 16.2695C7.56187 16.2505 7.55183 16.2333 7.53697 16.2209C7.5221 16.2085 7.50336 16.2017 7.484 16.2017C7.46464 16.2017 7.44589 16.2085 7.43103 16.2209C7.41617 16.2333 7.40613 16.2505 7.40266 16.2695C7.40266 16.4962 7.40266 16.7229 7.40266 16.9522C7.40266 16.9741 7.41137 16.9952 7.42688 17.0107C7.44238 17.0262 7.46341 17.0349 7.48533 17.0349C7.88889 17.0349 8.29155 17.0349 8.69333 17.0349L8.60533 16.9469C8.58933 18.0829 8.58666 19.2189 8.58133 20.3549C8.58133 20.3726 8.58835 20.3895 8.60086 20.402C8.61336 20.4145 8.63032 20.4215 8.648 20.4215C8.95466 20.4215 9.26133 20.4215 9.56533 20.4215C9.57442 20.4168 9.58227 20.4099 9.58828 20.4016C9.5943 20.3933 9.59831 20.3837 9.6 20.3735V18.6642C9.6 18.0935 9.62133 17.5229 9.6 16.9522C9.6 16.9395 9.59494 16.9273 9.58594 16.9183C9.57694 16.9093 9.56473 16.9042 9.552 16.9042C9.53927 16.9042 9.52706 16.9093 9.51806 16.9183C9.50905 16.9273 9.504 16.9395 9.504 16.9522H9.52266Z" fill="black"/>
<path d="M13.6 17.0666H16.1573H16.7413C16.9369 17.0404 17.1357 17.0549 17.3253 17.1093C17.656 17.264 17.592 17.6586 17.592 17.9573C17.592 18.704 17.5627 19.4506 17.544 20.2C17.544 20.856 17.5173 21.5173 17.4453 22.1706C17.3307 23.2373 17.008 24.2213 16.2373 24.9866C15.779 25.4631 15.2004 25.8068 14.5627 25.9813C13.9365 26.1267 13.2825 26.0971 12.672 25.896C12.0062 25.7009 11.4055 25.3296 10.9333 24.8213C10.4 24.2293 10.184 23.464 10.0133 22.688C9.968 22.4853 9.65867 22.5706 9.704 22.7733C9.82812 23.5132 10.115 24.2164 10.544 24.832C10.9607 25.3531 11.4958 25.7673 12.1048 26.04C12.7138 26.3127 13.379 26.4361 14.0453 26.4C14.7614 26.3312 15.4413 26.053 16 25.6C16.4716 25.238 16.8653 24.7845 17.1573 24.2666C17.4141 23.7656 17.5836 23.2246 17.6587 22.6666C17.7492 22.0126 17.7973 21.3535 17.8027 20.6933C17.824 19.8826 17.84 19.0711 17.8507 18.2586C17.8507 17.8986 17.9387 17.4346 17.7173 17.1226C17.496 16.8106 17.0667 16.8186 16.672 16.8186C15.6453 16.8186 14.6213 16.8186 13.5947 16.8346C13.5707 16.8435 13.5501 16.8596 13.5357 16.8807C13.5213 16.9019 13.5139 16.927 13.5145 16.9525C13.5151 16.9781 13.5236 17.0028 13.539 17.0233C13.5543 17.0437 13.5756 17.0589 13.6 17.0666Z" fill="black"/>
<path d="M30.2213 18.056H30.24C30.5425 18.0546 30.8321 17.9335 31.0455 17.7191C31.2589 17.5047 31.3787 17.2145 31.3787 16.912C31.3787 15.824 31.352 14.8427 31.3547 13.752C31.3547 13.453 31.2368 13.1661 31.0267 12.9534C30.8165 12.7408 30.531 12.6195 30.232 12.616H30.2133C30.0641 12.6146 29.9161 12.6426 29.7778 12.6984C29.6394 12.7542 29.5134 12.8367 29.4069 12.9412C29.3004 13.0457 29.2156 13.1701 29.1572 13.3074C29.0988 13.4447 29.0681 13.5922 29.0667 13.7414C29.0667 14.8587 29.0667 15.8747 29.0667 16.92C29.0695 17.2237 29.1926 17.5138 29.4091 17.7268C29.6256 17.9397 29.9177 18.0581 30.2213 18.056Z" fill="#1D79A1"/>
<path d="M32.2053 18.0559C32.5547 18.0559 32.9547 18.0559 33.3547 18.0559C33.5102 18.056 33.6641 18.0248 33.8074 17.9642C33.9506 17.9036 34.0802 17.8148 34.1884 17.7031C34.2966 17.5914 34.3813 17.4591 34.4373 17.314C34.4934 17.1689 34.5197 17.0141 34.5147 16.8586V16.8399C34.505 16.539 34.379 16.2536 34.1631 16.0437C33.9473 15.8338 33.6584 15.7158 33.3573 15.7146C33.206 15.7139 33.0559 15.7431 32.9159 15.8006C32.7758 15.858 32.6485 15.9426 32.5412 16.0494C32.4339 16.1561 32.3488 16.2831 32.2907 16.4229C32.2326 16.5627 32.2027 16.7126 32.2027 16.8639C32.2027 17.2799 32.2027 17.7253 32.2027 18.0453L32.2053 18.0559Z" fill="#1D79A1"/>
<path d="M28.2667 16.8961V16.8774C28.2653 16.5742 28.1438 16.2839 27.9289 16.07C27.7141 15.8562 27.4232 15.7361 27.12 15.7361C26.0373 15.7361 25.0587 15.7628 23.9733 15.7628C23.6711 15.7613 23.3806 15.8799 23.1657 16.0923C22.9507 16.3048 22.8288 16.5938 22.8267 16.8961C22.8249 17.0468 22.8529 17.1963 22.9091 17.3361C22.9653 17.4759 23.0486 17.6033 23.1542 17.7108C23.2597 17.8184 23.3855 17.904 23.5242 17.9628C23.663 18.0216 23.812 18.0524 23.9627 18.0534C25.0747 18.0534 26.096 18.0534 27.1307 18.0534C27.2813 18.052 27.4301 18.021 27.5687 17.9621C27.7073 17.9031 27.8329 17.8175 27.9384 17.71C28.0439 17.6026 28.1272 17.4754 28.1835 17.3357C28.2398 17.1961 28.2681 17.0467 28.2667 16.8961Z" fill="white"/>
<path d="M28.2667 14.9092V13.7599C28.266 13.6047 28.2343 13.4512 28.1734 13.3085C28.1125 13.1657 28.0236 13.0366 27.912 12.9287C27.8005 12.8209 27.6684 12.7365 27.5237 12.6804C27.3789 12.6244 27.2245 12.5979 27.0693 12.6026H27.0507C26.7497 12.6115 26.464 12.7369 26.2536 12.9522C26.0432 13.1676 25.9246 13.4562 25.9227 13.7572C25.9191 13.9095 25.9459 14.061 26.0014 14.2028C26.0569 14.3446 26.14 14.474 26.246 14.5834C26.3519 14.6929 26.4786 14.7801 26.6185 14.8402C26.7585 14.9002 26.909 14.9319 27.0613 14.9332H28.2453L28.2667 14.9092Z" fill="white"/>
<path d="M27.0933 18.848H27.0747C26.7708 18.8501 26.4801 18.9725 26.2662 19.1884C26.0523 19.4043 25.9326 19.6961 25.9333 20C25.9333 21.088 25.9627 22.0693 25.96 23.1573C25.96 23.4566 26.0777 23.7438 26.2878 23.9569C26.4979 24.17 26.7835 24.2918 27.0827 24.296H27.1013C27.2507 24.2977 27.399 24.27 27.5377 24.2144C27.6764 24.1587 27.8027 24.0763 27.9095 23.9718C28.0162 23.8672 28.1013 23.7427 28.1599 23.6052C28.2184 23.4677 28.2493 23.3201 28.2507 23.1706C28.2507 22.0533 28.2507 21.0373 28.2507 19.992C28.2507 19.8406 28.2207 19.6908 28.1623 19.5511C28.104 19.4114 28.0185 19.2847 27.9109 19.1783C27.8033 19.0719 27.6756 18.9879 27.5352 18.9312C27.3949 18.8745 27.2447 18.8462 27.0933 18.848Z" fill="#B8E6FF"/>
<path d="M25.1093 18.8481C24.76 18.8481 24.36 18.8481 23.96 18.8481C23.8045 18.8481 23.6505 18.8793 23.5073 18.9399C23.3641 19.0005 23.2345 19.0893 23.1263 19.201C23.018 19.3127 22.9334 19.445 22.8773 19.5901C22.8213 19.7352 22.795 19.89 22.8 20.0455V20.0641C22.8097 20.3651 22.9357 20.6505 23.1515 20.8604C23.3674 21.0703 23.6563 21.1883 23.9573 21.1895C24.1086 21.1898 24.2585 21.1604 24.3984 21.1028C24.5383 21.0452 24.6655 20.9607 24.7727 20.854C24.8799 20.7472 24.9651 20.6204 25.0233 20.4808C25.0815 20.3412 25.1116 20.1914 25.112 20.0401C25.112 19.6241 25.112 19.1788 25.112 18.8588L25.1093 18.8481Z" fill="#B8E6FF"/>
<path d="M29.0667 20.0001V20.0188C29.0681 20.322 29.1895 20.6123 29.4044 20.8261C29.6193 21.04 29.9101 21.1601 30.2133 21.1601C31.296 21.1601 32.2747 21.1334 33.36 21.1334C33.6622 21.1349 33.9527 21.0163 34.1677 20.8039C34.3826 20.5914 34.5046 20.3023 34.5067 20.0001C34.5084 19.8494 34.4804 19.6999 34.4242 19.5601C34.368 19.4203 34.2847 19.2929 34.1792 19.1854C34.0736 19.0778 33.9478 18.9922 33.8091 18.9334C33.6704 18.8746 33.5214 18.8438 33.3707 18.8428C32.2587 18.8428 31.2373 18.8428 30.2027 18.8428C30.0521 18.8442 29.9033 18.8752 29.7647 18.9341C29.6261 18.993 29.5005 19.0787 29.395 19.1862C29.2895 19.2936 29.2062 19.4208 29.1499 19.5605C29.0935 19.7001 29.0653 19.8495 29.0667 20.0001Z" fill="#29AAE1"/>
<path d="M29.0667 21.9867V23.136C29.0673 23.2914 29.099 23.445 29.1599 23.5879C29.2208 23.7308 29.3096 23.86 29.4211 23.9681C29.5327 24.0762 29.6647 24.1609 29.8095 24.2172C29.9542 24.2735 30.1087 24.3003 30.264 24.296H30.2827C30.5833 24.2871 30.8688 24.1616 31.0787 23.9462C31.2887 23.7308 31.4067 23.4422 31.408 23.1414C31.4087 22.99 31.3795 22.84 31.322 22.6999C31.2646 22.5598 31.1801 22.4325 31.0733 22.3252C30.9665 22.2179 30.8395 22.1328 30.6997 22.0747C30.5599 22.0166 30.41 21.9867 30.2587 21.9867H29.0667C29.0667 21.9867 29.0667 21.9787 29.0667 21.9867Z" fill="#29AAE1"/>
<path d="M28.2667 16.8961V16.8774C28.2653 16.5742 28.1438 16.2839 27.9289 16.07C27.7141 15.8562 27.4232 15.7361 27.12 15.7361C26.0373 15.7361 25.0587 15.7628 23.9733 15.7628C23.6711 15.7613 23.3806 15.8799 23.1657 16.0923C22.9507 16.3048 22.8288 16.5938 22.8267 16.8961V16.8961C22.8249 17.0468 22.8529 17.1963 22.9091 17.3361C22.9653 17.4759 23.0486 17.6033 23.1542 17.7108C23.2597 17.8184 23.3855 17.904 23.5242 17.9628C23.663 18.0216 23.812 18.0524 23.9627 18.0534C25.0747 18.0534 26.096 18.0534 27.1307 18.0534C27.2813 18.052 27.4301 18.021 27.5687 17.9621C27.7073 17.9031 27.8329 17.8175 27.9384 17.71C28.0439 17.6026 28.1272 17.4754 28.1835 17.3357C28.2398 17.1961 28.2681 17.0467 28.2667 16.8961V16.8961Z" stroke="black" stroke-width="0.301333" stroke-miterlimit="10"/>
<path d="M28.2667 14.9092V13.7599C28.266 13.6047 28.2343 13.4512 28.1734 13.3085C28.1125 13.1657 28.0236 13.0366 27.912 12.9287C27.8005 12.8209 27.6684 12.7365 27.5237 12.6804C27.3789 12.6244 27.2245 12.5979 27.0693 12.6026H27.0507C26.7497 12.6115 26.464 12.7369 26.2536 12.9522C26.0432 13.1676 25.9246 13.4562 25.9227 13.7572C25.9191 13.9095 25.9459 14.061 26.0014 14.2028C26.0569 14.3446 26.14 14.474 26.246 14.5834C26.3519 14.6929 26.4786 14.7801 26.6185 14.8402C26.7585 14.9002 26.909 14.9319 27.0613 14.9332H28.2453L28.2667 14.9092Z" stroke="black" stroke-width="0.301333" stroke-miterlimit="10"/>
<path d="M27.0933 18.848H27.0747C26.7708 18.8501 26.4801 18.9725 26.2662 19.1884C26.0523 19.4043 25.9326 19.6961 25.9333 20C25.9333 21.088 25.9627 22.0693 25.96 23.1573C25.96 23.4566 26.0777 23.7438 26.2878 23.9569C26.4979 24.17 26.7835 24.2918 27.0827 24.296H27.1013C27.2507 24.2977 27.399 24.27 27.5377 24.2144C27.6764 24.1587 27.8027 24.0763 27.9095 23.9718C28.0162 23.8672 28.1013 23.7427 28.1599 23.6052C28.2184 23.4677 28.2493 23.3201 28.2507 23.1706C28.2507 22.0533 28.2507 21.0373 28.2507 19.992C28.2507 19.8406 28.2207 19.6908 28.1623 19.5511C28.104 19.4114 28.0185 19.2847 27.9109 19.1783C27.8033 19.0719 27.6756 18.9879 27.5352 18.9312C27.3949 18.8745 27.2447 18.8462 27.0933 18.848V18.848Z" stroke="black" stroke-width="0.301333" stroke-miterlimit="10"/>
<path d="M25.1093 18.8481C24.76 18.8481 24.36 18.8481 23.96 18.8481C23.8045 18.8481 23.6505 18.8793 23.5073 18.9399C23.3641 19.0005 23.2345 19.0893 23.1263 19.201C23.018 19.3127 22.9334 19.445 22.8773 19.5901C22.8213 19.7352 22.795 19.89 22.8 20.0455V20.0641C22.8097 20.3651 22.9357 20.6505 23.1515 20.8604C23.3674 21.0703 23.6563 21.1883 23.9573 21.1895V21.1895C24.1086 21.1898 24.2585 21.1604 24.3984 21.1028C24.5383 21.0452 24.6655 20.9607 24.7727 20.854C24.8799 20.7472 24.9651 20.6204 25.0233 20.4808C25.0815 20.3412 25.1116 20.1914 25.112 20.0401C25.112 19.6241 25.112 19.1788 25.112 18.8588L25.1093 18.8481Z" stroke="black" stroke-width="0.301333" stroke-miterlimit="10"/>
<path d="M29.0667 20.0001V20.0188C29.0681 20.322 29.1895 20.6123 29.4044 20.8261C29.6193 21.04 29.9101 21.1601 30.2133 21.1601C31.296 21.1601 32.2747 21.1334 33.36 21.1334C33.6622 21.1349 33.9527 21.0163 34.1677 20.8039C34.3826 20.5914 34.5046 20.3023 34.5067 20.0001V20.0001C34.5084 19.8494 34.4804 19.6999 34.4242 19.5601C34.368 19.4203 34.2847 19.2929 34.1792 19.1854C34.0736 19.0778 33.9478 18.9922 33.8091 18.9334C33.6704 18.8746 33.5214 18.8438 33.3707 18.8428C32.2587 18.8428 31.2373 18.8428 30.2027 18.8428C30.0521 18.8442 29.9033 18.8752 29.7647 18.9341C29.6261 18.993 29.5005 19.0787 29.395 19.1862C29.2895 19.2936 29.2062 19.4208 29.1499 19.5605C29.0935 19.7001 29.0653 19.8495 29.0667 20.0001V20.0001Z" stroke="black" stroke-width="0.301333" stroke-miterlimit="10"/>
<path d="M29.0667 21.9867V23.136C29.0673 23.2914 29.099 23.445 29.1599 23.5879C29.2208 23.7308 29.3096 23.86 29.4211 23.9681C29.5327 24.0762 29.6647 24.1609 29.8095 24.2172C29.9542 24.2735 30.1087 24.3003 30.264 24.296H30.2827C30.5833 24.2871 30.8688 24.1616 31.0787 23.9462C31.2887 23.7308 31.4067 23.4422 31.408 23.1414V23.1414C31.4087 22.99 31.3795 22.84 31.322 22.6999C31.2646 22.5598 31.1801 22.4325 31.0733 22.3252C30.9665 22.2179 30.8395 22.1328 30.6997 22.0747C30.5599 22.0166 30.41 21.9867 30.2587 21.9867H29.0667ZM29.0667 21.9867C29.0667 21.9867 29.0667 21.9787 29.0667 21.9867Z" stroke="black" stroke-width="0.301333" stroke-miterlimit="10"/>
<path d="M30.2213 18.056H30.24C30.5425 18.0546 30.8321 17.9335 31.0455 17.7191C31.2589 17.5047 31.3787 17.2145 31.3787 16.912C31.3787 15.824 31.352 14.8427 31.3547 13.752C31.3547 13.453 31.2368 13.1661 31.0267 12.9534C30.8165 12.7408 30.531 12.6195 30.232 12.616H30.2133C30.0641 12.6146 29.9161 12.6426 29.7778 12.6984C29.6394 12.7542 29.5134 12.8367 29.4069 12.9412C29.3004 13.0457 29.2156 13.1701 29.1572 13.3074C29.0988 13.4447 29.0681 13.5922 29.0667 13.7414C29.0667 14.8587 29.0667 15.8747 29.0667 16.92C29.0695 17.2237 29.1926 17.5138 29.4091 17.7268C29.6256 17.9397 29.9177 18.0581 30.2213 18.056V18.056Z" stroke="black" stroke-width="0.301333" stroke-miterlimit="10"/>
<path d="M32.2053 18.0559C32.5547 18.0559 32.9547 18.0559 33.3547 18.0559C33.5102 18.056 33.6641 18.0248 33.8074 17.9642C33.9506 17.9036 34.0802 17.8148 34.1884 17.7031C34.2966 17.5914 34.3813 17.4591 34.4373 17.314C34.4934 17.1689 34.5197 17.0141 34.5147 16.8586V16.8399C34.505 16.539 34.379 16.2536 34.1631 16.0437C33.9473 15.8338 33.6584 15.7158 33.3573 15.7146V15.7146C33.206 15.7139 33.0559 15.7431 32.9159 15.8006C32.7758 15.858 32.6485 15.9426 32.5412 16.0494C32.4339 16.1561 32.3488 16.2831 32.2907 16.4229C32.2326 16.5627 32.2027 16.7126 32.2027 16.8639C32.2027 17.2799 32.2027 17.7253 32.2027 18.0453L32.2053 18.0559Z" stroke="black" stroke-width="0.301333" stroke-miterlimit="10"/>
<g style="mix-blend-mode:multiply">
<path d="M34.448 16.472C34.4293 16.3493 34.4 16.1813 34.2667 16.136C34.247 16.1312 34.2264 16.1328 34.2078 16.1405C34.1891 16.1481 34.1733 16.1615 34.1627 16.1786C34.1147 16.2826 34.1627 16.3946 34.1867 16.5013C34.2025 16.6065 34.2025 16.7134 34.1867 16.8186C34.1536 17.0423 34.0488 17.2491 33.888 17.408C33.4613 17.8213 32.7973 17.7653 32.2507 17.76C32.2348 17.7606 32.2197 17.7668 32.2081 17.7775C32.1964 17.7882 32.1889 17.8028 32.187 17.8185C32.1851 17.8342 32.1888 17.8501 32.1975 17.8633C32.2063 17.8766 32.2194 17.8862 32.2347 17.8906C32.856 18.008 33.6107 18.0693 34.1013 17.5733C34.2868 17.3821 34.4079 17.1379 34.448 16.8746C34.468 16.7412 34.468 16.6054 34.448 16.472Z" fill="#67D3F4"/>
</g>
<g style="mix-blend-mode:multiply">
<path d="M34.3467 19.2506C34.3377 19.2373 34.3252 19.2268 34.3106 19.2203C34.296 19.2138 34.2798 19.2115 34.264 19.2137C34.2481 19.2159 34.2332 19.2226 34.221 19.2329C34.2087 19.2432 34.1996 19.2567 34.1947 19.2719C34.1557 19.4344 34.1369 19.6009 34.1387 19.7679C34.1271 19.9286 34.0892 20.0862 34.0267 20.2346C33.9599 20.3657 33.8595 20.4767 33.7359 20.5563C33.6122 20.6359 33.4696 20.6814 33.3227 20.6879C32.9867 20.7413 32.64 20.7493 32.2987 20.7813C32.1173 20.7973 31.936 20.8133 31.7653 20.8346C31.5846 20.8395 31.4053 20.8682 31.232 20.9199C31.2196 20.9227 31.2084 20.9296 31.2005 20.9396C31.1925 20.9495 31.1881 20.9619 31.1881 20.9746C31.1881 20.9874 31.1925 20.9997 31.2005 21.0097C31.2084 21.0196 31.2196 21.0265 31.232 21.0293C31.4361 21.0662 31.6442 21.0752 31.8507 21.0559C32.064 21.0559 32.2747 21.0559 32.488 21.0399C32.8693 21.0507 33.2507 21.0239 33.6267 20.9599C33.786 20.9262 33.935 20.8549 34.0612 20.752C34.1873 20.649 34.2871 20.5173 34.352 20.3679C34.4233 20.1992 34.4596 20.0178 34.4587 19.8346C34.4704 19.6337 34.4319 19.433 34.3467 19.2506Z" fill="#67D3F4"/>
</g>
<g style="mix-blend-mode:multiply">
<path d="M31.4187 15.7332C31.4187 15.5012 31.3893 15.2666 31.3813 15.0346C31.4024 14.8067 31.3925 14.5771 31.352 14.3519C31.3482 14.3397 31.3411 14.3289 31.3313 14.3207C31.3216 14.3125 31.3097 14.3072 31.2971 14.3055C31.2845 14.3038 31.2717 14.3058 31.2601 14.3112C31.2486 14.3166 31.2388 14.3252 31.232 14.3359C31.1501 14.4916 31.1131 14.6671 31.1253 14.8426C31.1253 15.0452 31.1253 15.2452 31.1253 15.4479C31.1511 15.8249 31.1314 16.2036 31.0667 16.5759C31.0157 16.9049 30.8573 17.2078 30.616 17.4372C30.4979 17.5376 30.3607 17.613 30.2126 17.6588C30.0646 17.7046 29.9088 17.72 29.7547 17.7039C29.7337 17.7041 29.7133 17.7111 29.6967 17.724C29.6801 17.7368 29.6682 17.7547 29.6628 17.775C29.6573 17.7953 29.6587 17.8168 29.6666 17.8362C29.6745 17.8556 29.6886 17.8719 29.7067 17.8826C29.8542 17.9527 30.0174 17.9836 30.1804 17.9724C30.3434 17.9612 30.5007 17.9082 30.6373 17.8186C30.958 17.6263 31.1963 17.3224 31.3067 16.9652C31.4274 16.5665 31.4655 16.1473 31.4187 15.7332Z" fill="#67D3F4"/>
</g>
<g style="mix-blend-mode:multiply">
<path d="M31.232 22.368C31.2153 22.3406 31.1893 22.3201 31.1587 22.3103C31.1281 22.3005 31.095 22.3021 31.0655 22.3147C31.036 22.3274 31.0121 22.3503 30.9981 22.3792C30.9841 22.4081 30.981 22.441 30.9893 22.472C31.0592 22.6642 31.0778 22.8713 31.0432 23.0729C31.0085 23.2744 30.922 23.4635 30.792 23.6214C30.655 23.7651 30.4818 23.8692 30.2907 23.9227C30.1956 23.9504 30.0984 23.9701 30 23.9814C29.9068 23.9799 29.8149 24.0029 29.7333 24.048C29.7262 24.0553 29.721 24.0642 29.7183 24.074C29.7155 24.0838 29.7151 24.0941 29.7173 24.104C29.7627 24.208 29.8987 24.2427 30 24.2587C30.1305 24.2777 30.2634 24.2722 30.392 24.2427C30.6467 24.1839 30.878 24.0501 31.056 23.8587C31.2408 23.6617 31.3575 23.4106 31.3892 23.1423C31.4209 22.8741 31.3658 22.6027 31.232 22.368Z" fill="#67D3F4"/>
</g>
<g style="mix-blend-mode:multiply">
<path d="M28.2933 21.9545C28.2856 21.9414 28.2742 21.9308 28.2606 21.9241C28.2469 21.9174 28.2316 21.9149 28.2165 21.9169C28.2014 21.9189 28.1872 21.9253 28.1757 21.9353C28.1643 21.9453 28.156 21.9585 28.152 21.9732C28.1275 22.1356 28.1151 22.2996 28.1147 22.4639C28.1 22.6174 28.0705 22.7693 28.0267 22.9172C27.9572 23.1774 27.819 23.4141 27.6267 23.6025C27.4502 23.7765 27.2178 23.8823 26.9707 23.9012C26.7148 23.9108 26.4645 23.8243 26.2693 23.6585C26.2598 23.6461 26.2457 23.6381 26.2302 23.6361C26.2147 23.6341 26.199 23.6383 26.1867 23.6479C26.1743 23.6574 26.1662 23.6715 26.1642 23.687C26.1622 23.7025 26.1665 23.7181 26.176 23.7305C26.2528 23.8599 26.3605 23.9683 26.4894 24.046C26.6182 24.1237 26.7644 24.1683 26.9147 24.1759C27.0724 24.1895 27.2312 24.1715 27.3818 24.123C27.5325 24.0744 27.6719 23.9963 27.792 23.8932C28.0492 23.6812 28.2353 23.3955 28.3253 23.0745C28.3788 22.8874 28.4023 22.693 28.3947 22.4985C28.4029 22.3118 28.3682 22.1257 28.2933 21.9545Z" fill="#67D3F4"/>
</g>
<g style="mix-blend-mode:multiply">
<path d="M25.152 19.416C25.1432 19.3839 25.1241 19.3554 25.0976 19.3352C25.0711 19.3149 25.0387 19.304 25.0053 19.304C24.972 19.304 24.9395 19.3149 24.913 19.3352C24.8865 19.3554 24.8674 19.3839 24.8587 19.416C24.8373 19.544 24.8373 19.6827 24.808 19.8027C24.7809 19.9281 24.737 20.0492 24.6773 20.1627C24.5686 20.375 24.3948 20.547 24.1813 20.6534C23.9834 20.751 23.7564 20.7719 23.544 20.712C23.4492 20.6795 23.3594 20.6337 23.2773 20.576C23.229 20.5477 23.1843 20.5137 23.144 20.4747C23.1086 20.4296 23.0703 20.3868 23.0293 20.3467C23.0165 20.3349 23.0006 20.3271 22.9835 20.3241C22.9664 20.3211 22.9488 20.3231 22.9328 20.3299C22.9168 20.3366 22.903 20.3478 22.8932 20.3622C22.8834 20.3765 22.8779 20.3933 22.8773 20.4107C22.8985 20.5452 22.962 20.6695 23.0587 20.7654C23.1556 20.8743 23.2772 20.9584 23.4133 21.0107C23.6967 21.1208 24.0122 21.1141 24.2907 20.992C24.5748 20.8665 24.8105 20.6522 24.9627 20.3814C25.1316 20.0897 25.1983 19.7499 25.152 19.416Z" fill="#67D3F4"/>
</g>
<g style="mix-blend-mode:multiply">
<path d="M28.184 14.6267C28.184 14.5467 28.184 14.4641 28.184 14.3841C28.184 14.3041 28.184 14.1707 28.184 14.0641C28.184 13.9574 28.184 13.8481 28.184 13.7414C28.1922 13.6381 28.1813 13.5341 28.152 13.4347C28.152 13.4161 28.112 13.4054 28.1013 13.4347C28.0792 13.4781 28.0647 13.525 28.0587 13.5734C28.0516 13.622 28.0471 13.671 28.0453 13.7201C28.0453 13.8321 28.024 13.9441 28.0107 14.0561C27.9973 14.1681 27.9867 14.2721 27.976 14.3787C27.976 14.4427 27.9573 14.5094 27.9493 14.5734C27.7547 14.5921 27.5573 14.6081 27.3627 14.6294L27.008 14.6667C26.8893 14.6691 26.7719 14.6926 26.6613 14.7361C26.608 14.7601 26.6293 14.8321 26.6773 14.8507C26.7894 14.8806 26.9058 14.8906 27.0213 14.8801H27.376H28.0853C28.1264 14.8787 28.1653 14.8616 28.1941 14.8323C28.2229 14.803 28.2393 14.7638 28.24 14.7227C28.2324 14.6854 28.2127 14.6517 28.184 14.6267Z" fill="#67D3F4"/>
</g>
<g style="mix-blend-mode:multiply">
<path d="M28 16.0881C27.9413 15.9415 27.7067 15.9975 27.7573 16.1548C27.9307 16.6881 27.8773 17.4188 27.2773 17.6588C26.9906 17.7465 26.6941 17.7984 26.3947 17.8135C26.2347 17.8321 26.0773 17.8508 25.9173 17.8748C25.7484 17.8871 25.5823 17.9239 25.424 17.9841C25.4134 17.9914 25.405 18.0014 25.3998 18.0131C25.3946 18.0248 25.3927 18.0377 25.3943 18.0504C25.396 18.0631 25.4011 18.0751 25.4092 18.0851C25.4172 18.095 25.4279 18.1025 25.44 18.1068C25.6258 18.1321 25.8142 18.1321 26 18.1068C26.1973 18.1068 26.3947 18.0775 26.592 18.0588C26.9248 18.0552 27.253 17.9806 27.5547 17.8401C28.168 17.4881 28.2267 16.6961 28 16.0881Z" fill="#67D3F4"/>
</g>
<path d="M9.45334 12.3333C9.45334 11.7493 9.45334 11.1626 9.48267 10.5786C9.47198 10.2211 9.49969 9.86354 9.56534 9.51196C9.65515 9.15974 9.81078 8.82768 10.024 8.5333C10.4519 7.94228 11.0906 7.53841 11.808 7.4053C12.2777 7.3484 12.7517 7.33412 13.224 7.36263H14.856C17.0187 7.36263 19.1787 7.38663 21.3413 7.39463C22.408 7.39463 23.4693 7.39463 24.5253 7.39463C25.5029 7.3532 26.4819 7.36121 27.4587 7.41863C27.9157 7.45061 28.3613 7.57585 28.768 7.78663C29.1612 8.00881 29.4754 8.34812 29.6667 8.7573C30.0613 9.57596 30.0347 10.552 30.0027 11.44C30.0027 11.6773 30.36 11.6746 30.368 11.44C30.3973 10.6026 30.408 9.71996 30.1253 8.91996C29.9925 8.52327 29.7672 8.16384 29.4682 7.87128C29.1691 7.57873 28.8048 7.36143 28.4053 7.2373C27.5253 6.95463 26.568 7.01863 25.656 7.02663C24.5324 7.0373 23.4107 7.04174 22.2907 7.03996C20.0213 7.03996 17.7573 7.0213 15.48 7.01063H13.7787C13.2453 7.01063 12.6907 6.98396 12.152 7.01063C11.3756 7.05099 10.6411 7.37545 10.0884 7.92226C9.53569 8.46906 9.20336 9.20001 9.15467 9.97596C9.12 10.5306 9.12534 11.0933 9.12 11.648C9.12 11.8773 9.12 12.1066 9.12 12.3333C9.12 12.3779 9.1377 12.4206 9.16921 12.4521C9.20071 12.4836 9.24345 12.5013 9.288 12.5013C9.33256 12.5013 9.37529 12.4836 9.4068 12.4521C9.4383 12.4206 9.456 12.3779 9.456 12.3333H9.45334Z" fill="black"/>
<path d="M29.816 25.6773C29.7915 26.3175 29.5531 26.9311 29.1388 27.4198C28.7245 27.9086 28.1583 28.2443 27.5307 28.3733C27.1466 28.4279 26.7582 28.4467 26.3707 28.4293H25.0373H22.4133C20.648 28.4293 18.8853 28.4293 17.1227 28.4293C16.2187 28.4293 15.312 28.4293 14.408 28.4506H13.72H13.3893C13.2756 28.4412 13.1619 28.4704 13.0667 28.5333C12.9903 28.6158 12.9216 28.7051 12.8613 28.8L12.6773 29.0373C12.5387 29.2186 12.4107 29.4026 12.2667 29.5893C11.232 31.0346 10.4 32.6053 9.26667 33.9893L9.58667 34.12C9.56356 31.912 9.54578 29.7031 9.53334 27.4933C9.53334 26.7146 9.53334 25.9351 9.53334 25.1546C9.5276 25.1045 9.50364 25.0583 9.46602 25.0248C9.4284 24.9912 9.37975 24.9727 9.32934 24.9727C9.27892 24.9727 9.23027 24.9912 9.19265 25.0248C9.15503 25.0583 9.13107 25.1045 9.12534 25.1546C9.15022 27.624 9.176 30.0933 9.20267 32.5626C9.20267 33.08 9.20267 33.6 9.22134 34.12C9.22134 34.2693 9.43467 34.3866 9.544 34.2533C10.9467 32.5306 11.944 30.52 13.3333 28.8026L13.2053 28.856C15.9147 28.8 18.6213 28.7946 21.3307 28.792C22.6551 28.792 23.9796 28.792 25.304 28.792C25.9413 28.792 26.592 28.8133 27.2267 28.768C28.0094 28.7132 28.7437 28.3686 29.2861 27.8016C29.8284 27.2345 30.14 26.4857 30.16 25.7013C30.16 25.6589 30.1431 25.6182 30.1131 25.5882C30.0831 25.5582 30.0424 25.5413 30 25.5413C29.9576 25.5413 29.9169 25.5582 29.8869 25.5882C29.8569 25.6182 29.84 25.6589 29.84 25.7013L29.816 25.6773Z" fill="black"/>
</svg>
