<?xml version="1.0" encoding="utf-8"?>
<!-- Generator: Adobe Illustrator 25.2.3, SVG Export Plug-In . SVG Version: 6.00 Build 0)  -->
<svg version="1.1" id="Capa_1" xmlns="http://www.w3.org/2000/svg" xmlns:xlink="http://www.w3.org/1999/xlink" x="0px" y="0px"
	 viewBox="0 0 512 512" style="enable-background:new 0 0 512 512;" xml:space="preserve">
<style type="text/css">
	.st0{fill:none;}
	.st1{fill:#626366;}
	.st2{fill:url(#SVGID_1_);}
	.st3{fill:url(#SVGID_2_);}
</style>
<g>
	<path class="st0" d="M200.9,208v26.1h13.4V208c0-23,18.7-41.6,41.6-41.6c23,0,41.6,18.7,41.6,41.6v26.1H311V208
		c0-30.4-24.7-55.1-55.1-55.1S200.9,177.6,200.9,208z"/>
	<path class="st0" d="M256,181.4c-14.7,0-26.6,11.9-26.6,26.6v26.1h53.2V208C282.6,193.3,270.7,181.4,256,181.4z"/>
	<path class="st1" d="M432.7,214.6V128c0-9.1-7.4-16.6-16.6-16.7l-15.1-0.1l-15-0.3c-9.5-0.4-18.2-1.3-26.2-2.5l-15-2.9
		c-11.5-2.7-21.1-6.2-29-9.8l-15-8.3c-5.9-3.9-10-7.5-12.7-10.2c-3.7-3.7-7.2-7.8-10.4-12c-4.6-6.2-11.7-9.8-19.5-9.8c0,0,0,0-0.1,0
		c-7.8,0-14.9,3.6-19.5,9.8c-3.2,4.2-6.7,8.3-10.5,12.1c-3.6,3.6-8.8,8-15.8,12.3l-15,7.8c-8.3,3.6-18.3,6.9-30.2,9.3l-15,2.5
		c-8,1.1-16.7,1.8-26.2,2l-15,0.2l-10.8,0.1c-9.1,0.1-16.6,7.6-16.6,16.7v10c0,4.1,3.4,7.5,7.5,7.5c4.1,0,7.5-3.4,7.5-7.5v-10
		c0-0.9,0.8-1.7,1.7-1.7l20.3-0.1c39.4-0.3,67.4-7.9,86.9-17.1c0.4-0.2,0.8-0.4,1.2-0.6c14.5-7,24.1-14.7,30.1-20.7
		c4.3-4.3,8.3-8.9,11.9-13.7c1.8-2.4,4.5-3.8,7.5-3.8h0c3,0,5.7,1.4,7.5,3.8c3.6,4.8,7.6,9.5,11.8,13.7
		c11.4,11.4,45.6,37.9,118.2,38.4l20.3,0.1c0.9,0,1.7,0.8,1.7,1.7v111.7c0,27.7-6.4,55.5-18.6,80.4c-2.6,5.3-5.5,10.6-8.7,15.7
		c-2.2,3.5-1.1,8.1,2.4,10.3c1.2,0.8,2.6,1.1,3.9,1.1c2.5,0,5-1.3,6.4-3.6c3.4-5.5,6.6-11.2,9.4-17c5.3-10.8,9.6-22.2,12.8-33.8
		l3.8-16c2.4-12.3,3.6-24.7,3.6-37.2v-5.9L432.7,214.6z"/>
	<path class="st1" d="M365,388.6c6.9-6,13.3-12.5,19.3-19.4c2.7-3.1,2.4-7.9-0.8-10.6c-3.1-2.7-7.9-2.4-10.6,0.8
		c-7.9,9.1-16.6,17.3-25.9,24.6l-66.9,51.9c-6.3,4.9-14.1,7.5-22,7.5c-8,0-15.6-2.6-22-7.5L169.3,384c-21.9-17-39.9-39.1-52.1-64
		c-12.2-24.9-18.6-52.7-18.6-80.4v-68.3c0-4.1-3.4-7.5-7.5-7.5c-4.1,0-7.5,3.4-7.5,7.5v39.8v28.5c0,11.5,1,23,3,34.3l3.5,16.1
		c3.3,12.6,7.9,24.8,13.6,36.5c11.1,22.6,26.6,43.1,45.3,60l11.6,9.7l66.3,51.5c8.9,6.9,20,10.7,31.2,10.7s22.3-3.8,31.2-10.7
		l63.9-49.6L365,388.6z"/>
	
		<ellipse transform="matrix(0.9732 -0.2298 0.2298 0.9732 -90.2603 70.6216)" class="st1" cx="258.1" cy="422.9" rx="8.6" ry="8.6"/>
	<circle class="st1" cx="258.1" cy="99" r="8.6"/>
	
		<ellipse transform="matrix(0.3827 -0.9239 0.9239 0.3827 106.3155 458.3764)" class="st1" cx="396.2" cy="149.6" rx="8.6" ry="8.6"/>
	<circle class="st1" cx="119.1" cy="149.6" r="8.6"/>
	<linearGradient id="SVGID_1_" gradientUnits="userSpaceOnUse" x1="174.798" y1="248.9855" x2="341.479" y2="248.9855">
		<stop  offset="0" style="stop-color:#0D96D3"/>
		<stop  offset="1" style="stop-color:#36B891"/>
	</linearGradient>
	<path class="st2" d="M185.9,208v30.3c-6.7,4.5-11.1,12.1-11.1,20.7v7c0,4.1,3.4,7.5,7.5,7.5s7.5-3.4,7.5-7.5v-7
		c0-5.5,4.5-9.9,9.9-9.9h116.8c5.5,0,9.9,4.5,9.9,9.9v76.1c0,5.5-4.5,9.9-9.9,9.9H199.7c-5.5,0-9.9-4.5-9.9-9.9v-33.5
		c0-4.1-3.4-7.5-7.5-7.5v0c-4.1,0-7.5,3.4-7.5,7.5v33.5c0,13.8,11.2,24.9,24.9,24.9h116.8c13.8,0,24.9-11.2,24.9-24.9V259
		c0-10.4-6.4-19.3-15.4-23.1v-28c0-38.6-31.4-70.1-70.1-70.1S185.9,169.3,185.9,208z M282.6,234.1h-53.2V208
		c0-14.7,11.9-26.6,26.6-26.6s26.6,11.9,26.6,26.6V234.1z M256,152.9L256,152.9c30.4,0,55.1,24.7,55.1,55.1v26.1h-13.4V208
		c0-23-18.7-41.6-41.6-41.6c-23,0-41.6,18.7-41.6,41.6v26.1h-13.4V208C200.9,177.6,225.6,152.9,256,152.9L256,152.9z"/>
	<linearGradient id="SVGID_2_" gradientUnits="userSpaceOnUse" x1="242.4355" y1="300.4734" x2="275.597" y2="300.4734">
		<stop  offset="0" style="stop-color:#0D96D3"/>
		<stop  offset="1" style="stop-color:#36B891"/>
	</linearGradient>
	<path class="st3" d="M254.7,325.3h8.6c1.1,0,2-0.9,2-2v-14.9c0-0.5,0.3-1,0.7-1.2c5.7-2.6,9.6-8.4,9.6-15c0-9.5-8-17.1-17.6-16.5
		c-8.2,0.5-15,7.2-15.5,15.4c-0.5,7.1,3.6,13.3,9.5,16.1c0.5,0.2,0.8,0.7,0.8,1.2v14.9C252.8,324.4,253.6,325.3,254.7,325.3z"/>
</g>
</svg>
