<svg width="31" height="32" viewBox="0 0 31 32" fill="none" xmlns="http://www.w3.org/2000/svg">
<path d="M8.93371 11.9212H3.93945V28.0513H8.93371V11.9212Z" fill="#0E76A8"/>
<path d="M6.41212 9.81673C7.00168 9.82159 7.57939 9.65121 8.07196 9.32721C8.56453 9.0032 8.94975 8.54018 9.17874 7.99689C9.40773 7.4536 9.47017 6.85453 9.35814 6.27569C9.24611 5.69685 8.96466 5.16434 8.54949 4.74573C8.13433 4.32711 7.60416 4.04125 7.02628 3.92443C6.44839 3.80761 5.84882 3.86509 5.30365 4.08957C4.75848 4.31406 4.29229 4.69543 3.96421 5.1853C3.63614 5.67517 3.46098 6.25145 3.46096 6.84103C3.45935 7.23019 3.5344 7.61586 3.68184 7.97602C3.82927 8.33618 4.04621 8.66377 4.32025 8.94009C4.59429 9.21641 4.92007 9.43605 5.27899 9.58646C5.63792 9.73687 6.02295 9.81512 6.41212 9.81673Z" fill="#0E76A8"/>
<path d="M16.9158 19.5844C16.9158 17.3143 17.9588 15.9645 19.9835 15.9645C21.8242 15.9645 22.7016 17.259 22.7016 19.5844V28.0513H27.6713V17.8358C27.6713 13.541 25.2171 11.4242 21.7996 11.4242C20.8223 11.4093 19.8579 11.6493 19.0015 12.1205C18.1451 12.5918 17.4263 13.278 16.9158 14.1116V11.9212H12.124V28.0513H16.9158V19.5844Z" fill="#0E76A8"/>
</svg>
