<svg width="31" height="32" viewBox="0 0 31 32" fill="none" xmlns="http://www.w3.org/2000/svg">
<g clip-path="url(#clip0)">
<path d="M0.561523 25.1891C3.35474 27.0184 6.60487 27.9894 9.92423 27.9865C21.2626 27.9865 27.668 18.2175 27.2876 9.44984C28.4916 8.57217 29.5308 7.48041 30.3553 6.22688C29.2422 6.73096 28.0613 7.06214 26.852 7.20941C28.1175 6.42294 29.0611 5.19587 29.5086 3.7549C28.3112 4.48375 26.9994 4.99612 25.631 5.26938C24.7056 4.27743 23.4867 3.62245 22.1613 3.40486C20.8359 3.18727 19.4772 3.41908 18.2933 4.06474C17.1095 4.71041 16.1659 5.7343 15.6073 6.97942C15.0487 8.22455 14.9059 9.62219 15.2007 10.9581C12.7757 10.8309 10.4039 10.1852 8.23917 9.06291C6.07449 7.94059 4.16526 6.36669 2.63531 4.4433C1.85767 5.81668 1.62025 7.43999 1.97105 8.98507C2.32184 10.5302 3.23468 11.8818 4.52503 12.7667C3.5552 12.7314 2.60719 12.4634 1.75794 11.9844C1.74484 13.4367 2.22741 14.8485 3.12292 15.9777C4.01844 17.1069 5.27113 17.8833 6.6663 18.1737C5.76783 18.4219 4.82578 18.4583 3.91148 18.2801C4.3048 19.5159 5.06546 20.5962 6.08792 21.3711C7.11038 22.146 8.34394 22.577 9.61746 22.6045C8.34873 23.6215 6.8958 24.3733 5.34186 24.8168C3.78791 25.2603 2.16347 25.3868 0.561523 25.1891Z" fill="#9C9C9C"/>
</g>
<defs>
<clipPath id="clip0">
<rect width="30.6773" height="31.2908" fill="white" transform="translate(0.107422)"/>
</clipPath>
</defs>
</svg>
