<svg width="50" height="51" viewBox="0 0 50 51" fill="none" xmlns="http://www.w3.org/2000/svg">
<path d="M0.73999 41.055C5.29256 44.0364 10.5899 45.6192 16 45.6144C34.48 45.6144 44.92 29.6922 44.3 15.402C46.2624 13.9715 47.9562 12.1921 49.3 10.149C47.4857 10.9706 45.561 11.5104 43.59 11.7504C45.6526 10.4686 47.1906 8.46859 47.92 6.12C45.9684 7.30794 43.8303 8.14302 41.6 8.5884C40.0917 6.97166 38.1051 5.90412 35.9449 5.54948C33.7846 5.19483 31.57 5.57265 29.6405 6.62501C27.711 7.67736 26.1731 9.34616 25.2627 11.3756C24.3522 13.4049 24.1194 15.6829 24.6 17.8602C20.6474 17.653 16.7817 16.6006 13.2536 14.7714C9.72541 12.9421 6.61361 10.3769 4.11999 7.242C2.85254 9.48043 2.46558 12.1262 3.03733 14.6445C3.60908 17.1628 5.09689 19.3657 7.19999 20.808C5.6193 20.7505 4.07415 20.3137 2.68999 19.533C2.66865 21.9001 3.45517 24.2011 4.91474 26.0416C6.37431 27.8821 8.41604 29.1475 10.69 29.6208C9.2256 30.0253 7.69018 30.0846 6.19999 29.7942C6.84105 31.8084 8.08083 33.5691 9.7473 34.8321C11.4138 36.095 13.4243 36.7976 15.5 36.8424C13.4321 38.5 11.064 39.7253 8.53131 40.4481C5.99859 41.171 3.35096 41.3772 0.73999 41.055Z" fill="#00ACEE"/>
</svg>
