<svg width="50" height="51" viewBox="0 0 50 51" fill="none" xmlns="http://www.w3.org/2000/svg">
<path fill-rule="evenodd" clip-rule="evenodd" d="M44.71 24.48C44.6502 19.3144 42.6082 14.3784 39.022 10.7305C35.4358 7.0827 30.5909 5.01355 25.5264 4.96684C20.462 4.92014 15.5812 6.89959 11.9309 10.4807C8.28058 14.0618 6.15142 18.9593 6.00004 24.123C6.00004 24.4086 6.00004 24.6942 6.00004 24.9798C5.99832 28.5508 6.95637 32.0539 8.77004 35.1084L5.29004 45.6144L16 42.1362C18.9384 43.7803 22.2446 44.6191 25.5957 44.5706C28.9469 44.5221 32.2284 43.588 35.1199 41.8595C38.0113 40.131 40.4139 37.6673 42.093 34.7088C43.7722 31.7503 44.6704 28.3982 44.7 24.9798L44.71 24.48ZM25.36 41.4528C22.163 41.4661 19.0328 40.5189 16.36 38.7294L10.11 40.7694L12.11 34.6494C10.095 31.8483 9.00902 28.4643 9.01004 24.99C9.01004 24.4596 9.01004 23.97 9.09004 23.3886C9.50258 19.2709 11.408 15.4587 14.4327 12.6993C17.4575 9.93996 21.3835 8.43231 25.4414 8.47189C29.4992 8.51147 33.3963 10.0954 36.3687 12.9133C39.3412 15.7311 41.1748 19.5798 41.51 23.7048C41.51 24.1332 41.56 24.5616 41.56 24.99C41.5363 29.3593 39.82 33.5419 36.7853 36.6258C33.7507 39.7097 29.6438 41.4448 25.36 41.4528Z" fill="#128C7E"/>
<path fill-rule="evenodd" clip-rule="evenodd" d="M34.2299 28.9374C33.7499 28.7028 31.4199 27.5298 30.9899 27.3768C30.5599 27.2238 30.2299 27.132 29.9199 27.6216C29.6099 28.1112 28.6799 29.1822 28.4099 29.4882C28.1399 29.7942 27.8599 29.8554 27.4099 29.6106C26.0076 29.0527 24.7141 28.2445 23.5899 27.2238C22.556 26.2588 21.6695 25.1414 20.9599 23.9088C20.6899 23.4294 20.9599 23.1744 21.1699 22.8888C21.3799 22.6032 21.6399 22.3278 21.8799 22.0524L22.0499 21.8178C22.1602 21.6332 22.2604 21.4425 22.3499 21.2466C22.4199 21.1169 22.4566 20.9713 22.4566 20.8233C22.4566 20.6753 22.4199 20.5296 22.3499 20.4C22.2299 20.1654 21.2799 17.799 20.8799 16.83C20.4799 15.861 20.0899 16.0446 19.8099 16.0446C19.5299 16.0446 19.2199 16.0446 18.8999 16.0446C18.6593 16.0521 18.4227 16.1093 18.2044 16.2128C17.9861 16.3162 17.7907 16.4637 17.6299 16.6464C17.0968 17.1609 16.6748 17.7831 16.3907 18.4733C16.1066 19.1635 15.9667 19.9066 15.9799 20.655C15.9889 21.2108 16.0696 21.7629 16.2199 22.2972C16.5921 23.4982 17.1674 24.6236 17.9199 25.6224C18.1499 25.9386 21.1999 30.9468 26.0199 32.8746C30.8399 34.8024 30.8499 34.1496 31.7199 34.068C32.5899 33.9864 34.5299 32.9154 34.9099 31.7832C35.2197 31.0658 35.3204 30.2726 35.1999 29.4984C34.9999 29.2944 34.6999 29.1822 34.2299 28.9374Z" fill="#128C7E"/>
</svg>
