<svg width="31" height="32" viewBox="0 0 31 32" fill="none" xmlns="http://www.w3.org/2000/svg">
<path fill-rule="evenodd" clip-rule="evenodd" d="M27.7543 15.0196C27.7176 11.8503 26.4648 8.82179 24.2645 6.58367C22.0642 4.34556 19.0916 3.07604 15.9843 3.04739C12.877 3.01873 9.88245 4.23322 7.64282 6.43038C5.40319 8.62755 4.09685 11.6324 4.00398 14.8006C4.00398 14.9758 4.00398 15.151 4.00398 15.3263C4.00292 17.5172 4.59073 19.6666 5.7035 21.5406L3.56836 27.9865L10.1394 25.8525C11.9423 26.8612 13.9708 27.3759 16.0268 27.3461C18.0829 27.3163 20.0963 26.7432 21.8703 25.6827C23.6444 24.6222 25.1185 23.1106 26.1487 21.2954C27.1789 19.4802 27.73 17.4236 27.7482 15.3263L27.7543 15.0196ZM15.8822 25.4332C13.9207 25.4414 12.0002 24.8602 10.3603 23.7623L6.52565 25.0139L7.75274 21.259C6.51644 19.5404 5.85012 17.4642 5.85075 15.3325C5.85075 15.0071 5.85075 14.7067 5.89983 14.35C6.15295 11.8236 7.32198 9.48463 9.1778 7.79163C11.0336 6.09862 13.4424 5.17361 15.9321 5.19789C18.4218 5.22218 20.8128 6.194 22.6366 7.92289C24.4603 9.65178 25.5853 12.0131 25.791 14.544C25.791 14.8068 25.8217 15.0697 25.8217 15.3325C25.8071 18.0133 24.7541 20.5795 22.8922 22.4716C21.0303 24.3637 18.5105 25.4283 15.8822 25.4332Z" fill="#9C9C9C"/>
<path fill-rule="evenodd" clip-rule="evenodd" d="M21.3242 17.7544C21.0297 17.6105 19.6001 16.8908 19.3363 16.7969C19.0725 16.7031 18.87 16.6467 18.6798 16.9471C18.4896 17.2475 17.919 17.9046 17.7534 18.0924C17.5877 18.2801 17.4159 18.3177 17.1398 18.1675C16.2795 17.8252 15.4858 17.3293 14.7961 16.7031C14.1618 16.111 13.6179 15.4254 13.1824 14.6692C13.0168 14.375 13.1824 14.2186 13.3113 14.0433C13.4401 13.8681 13.5997 13.6991 13.7469 13.5302L13.8512 13.3862C13.9189 13.273 13.9804 13.156 14.0353 13.0358C14.0782 12.9562 14.1008 12.8669 14.1008 12.7761C14.1008 12.6852 14.0782 12.5959 14.0353 12.5163C13.9617 12.3724 13.3788 10.9205 13.1334 10.326C12.8879 9.73146 12.6487 9.84411 12.4769 9.84411C12.3051 9.84411 12.1149 9.84411 11.9185 9.84411C11.7709 9.84872 11.6258 9.88382 11.4918 9.94728C11.3579 10.0107 11.238 10.1013 11.1393 10.2133C10.8123 10.529 10.5533 10.9108 10.379 11.3342C10.2047 11.7577 10.1189 12.2136 10.127 12.6728C10.1325 13.0138 10.182 13.3526 10.2742 13.6804C10.5026 14.4172 10.8556 15.1077 11.3173 15.7205C11.4584 15.9145 13.3297 18.9873 16.287 20.1701C19.2443 21.3529 19.2504 20.9524 19.7842 20.9023C20.318 20.8522 21.5083 20.1951 21.7414 19.5005C21.9315 19.0603 21.9933 18.5736 21.9193 18.0986C21.7966 17.9735 21.6126 17.9046 21.3242 17.7544Z" fill="#9C9C9C"/>
</svg>
