<svg id="Layer_1" data-name="Layer 1" xmlns="http://www.w3.org/2000/svg" viewBox="0 0 835 300"><defs><style>.cls-1{fill:#0071f7;}.cls-2{fill:none;}</style></defs><path class="cls-1" d="M578.28,200.57c4.09,5.72,3.27,13.07-1.63,17.16-5.72,4.09-13.89,3.27-18-1.63l-28.61-36.78-27.78,36c-4.09,5.72-12.26,5.72-18,1.63s-6.54-11.44-2.45-17.16l32.69-42.5-32.69-42.49c-4.09-5.73-2.46-13.9,2.45-18,5.72-4.09,13.89-2.46,18,2.45L530.06,136l28.61-35.14c4.09-5.72,11.44-6.54,18-2.45,5.72,4.09,5.72,12.26,1.63,18l-31.87,41.68Zm-148.74-4.91c-21.25,0-38.41-16.34-38.41-37.59,0-20.43,17.16-37.59,38.41-37.59S468,137.64,468,158.07C467.14,179.32,450,195.66,429.54,195.66Zm-112.78,0c-21.25,0-38.41-16.34-38.41-37.59,0-20.43,17.16-37.59,38.41-37.59s38.41,17.16,38.41,37.59C355.17,179.32,338,195.66,316.76,195.66ZM429.54,96A63.25,63.25,0,0,0,374,128.65C363.34,109,342.09,96,317.58,96a67.13,67.13,0,0,0-38.41,12.26V55.91a12.58,12.58,0,0,0-12.26-12.26c-7.36,0-13.08,5.72-13.08,12.26v103a62.62,62.62,0,0,0,62.93,61.29,64.31,64.31,0,0,0,56.39-33.51c10.63,19.62,31.87,33.51,55.57,33.51,35.15,0,63.75-27.78,63.75-62.93C493.29,123.75,464.68,96,429.54,96Z"/><rect class="cls-2" width="835" height="300"/></svg>