<svg id="Layer_1" data-name="Layer 1" xmlns="http://www.w3.org/2000/svg" viewBox="0 0 835 300"><defs><style>.cls-1{fill:#0061ff;}.cls-2{fill:none;}</style></defs><path class="cls-1" d="M108,100.48,61.3,130.3,108,160.11,61.3,189.93,14.56,160,61.3,130.14,14.56,100.48,61.3,70.66Zm-47,99L107.8,169.7l46.74,29.82L107.8,229.34ZM108,160l46.74-29.81L108,100.48l46.5-29.82,46.74,29.82L154.54,130.3l46.74,29.81-46.74,29.82Z"/><path d="M238,100.48h37.8c24.09,0,44,13.94,44,45.77v6.69c0,32.08-18.62,46.5-43.28,46.5H238Zm21.11,18v62.94h16.2c13.7,0,22.89-8.95,22.89-28.85V147.3c0-19.9-9.67-28.85-23.61-28.85Zm71.89,1h16.92L350.61,138c3.23-12.65,11.45-19.42,26.35-19.42h5.24V140h-8.7c-17.17,0-21.36,6-21.36,22.88v36.83H331.27V119.42Zm55.44,41.74V158.9c0-26.83,17.17-41.5,40.54-41.5,23.85,0,40.53,14.67,40.53,41.5v2.26c0,26.35-16.19,40.54-40.53,40.54C401.06,201.46,386.39,187.59,386.39,161.16Zm59.72-.24v-2c0-14.9-7.5-23.85-19.42-23.85-11.69,0-19.42,8.22-19.42,23.85v2c0,14.42,7.49,22.64,19.42,22.64C438.61,183.32,446.11,175.34,446.11,160.92Zm32.31-41.5h17.41l2,15.15C502,124.41,511,117.4,524.2,117.4c20.39,0,33.85,14.67,33.85,41.83v2.25c0,26.36-14.91,40.3-33.85,40.3-12.65,0-21.36-5.72-25.63-14.91V227.4H478.18l.24-108Zm58.43,41.5v-1.77c0-16-8.22-23.86-19.18-23.86-11.68,0-19.42,9-19.42,23.86v1.53c0,14.18,7.49,23.13,19.18,23.13C529.44,183.56,536.85,175.91,536.85,160.92Zm52.06,23.93-1.77,14.67H569.25V92.58h20.39v41c4.51-10.48,13.45-16.2,26.11-16.2,19.18.24,33.36,13.46,33.36,40V160c0,26.6-13.46,41.83-33.85,41.83C601.8,201.46,593.1,195.25,588.91,184.85ZM627.67,160v-2c0-14.67-8-22.89-19.18-22.89-11.44,0-19.42,9.19-19.42,23.13V160c0,14.91,7.74,23.61,19.18,23.61C620.5,183.56,627.67,175.91,627.67,160Zm30.38,1.21V158.9c0-26.83,17.17-41.5,40.54-41.5,23.85,0,40.54,14.67,40.54,41.5v2.26c0,26.35-16.44,40.54-40.54,40.54C672.72,201.46,658.05,187.59,658.05,161.16Zm59.88-.24v-2c0-14.9-7.49-23.85-19.42-23.85-11.69,0-19.42,8.22-19.42,23.85v2c0,14.42,7.49,22.64,19.42,22.64C710.52,183.32,717.93,175.34,717.93,160.92Zm48.51-3-28.12-38.52h24.1l16.19,24.09,16.44-24.09h23.86L790.38,157.7l30.06,41.82H796.83l-18.38-26.59-17.89,26.59H735.9Z"/><rect class="cls-2" width="835" height="300"/></svg>