<svg id="Layer_1" data-name="Layer 1" xmlns="http://www.w3.org/2000/svg" viewBox="0 0 835 300"><defs><style>.cls-1{fill:#737373;}.cls-2{fill:none;}</style></defs><g id="layer1"><path class="cls-1" d="M266.78,125.1a41.94,41.94,0,0,0-12-8.71c-4.27-2-9.67-3-15.88-3a38,38,0,0,0-14.19,2.66,34.92,34.92,0,0,0-11.6,7.5,34.41,34.41,0,0,0-8,11.76,41.89,41.89,0,0,0,0,30.63,34.12,34.12,0,0,0,8,11.69,37,37,0,0,0,11.76,7.58,38.57,38.57,0,0,0,14.35,2.66,40.05,40.05,0,0,0,14.19-2.26,33.23,33.23,0,0,0,10.39-6.21,28.39,28.39,0,0,0,5.24-6.53,37.07,37.07,0,0,0,3.63-8.78H238.57V144.76h55.61a41.38,41.38,0,0,1,.81,4.76,44,44,0,0,1,.32,5.56,62.06,62.06,0,0,1-3.39,21,48.71,48.71,0,0,1-10.23,16.84,52.57,52.57,0,0,1-18.22,12.5,62.45,62.45,0,0,1-24.34,4.43A60.59,60.59,0,0,1,196.82,193a59.65,59.65,0,0,1-12.9-18.61,57.49,57.49,0,0,1-4.76-23.7,59.05,59.05,0,0,1,4.76-23.7,56.65,56.65,0,0,1,12.9-18.7,58.73,58.73,0,0,1,19.1-12.25,61,61,0,0,1,23.21-4.43c9.35,0,17.65,1.61,24.83,4.83a57,57,0,0,1,18.61,13.3Z"/><path class="cls-1" d="M409.68,177q0,14.88-10.88,23.94c-7.33,5.89-16.28,8.87-26.84,8.87a39.8,39.8,0,0,1-24.82-8.22c-7.18-5.48-12.09-13-14.83-22.41l13.86-5.72a36.64,36.64,0,0,0,3.95,9.19,29.75,29.75,0,0,0,5.88,7,27.8,27.8,0,0,0,7.5,4.59,22.6,22.6,0,0,0,8.7,1.7c6.61,0,12.09-1.7,16.28-5.16a16.66,16.66,0,0,0,6.29-13.62A16.41,16.41,0,0,0,389.53,165c-3.22-3.22-9.35-6.44-18.29-9.51s-14.67-5.48-16.93-6.61c-12-6.12-18-15.07-18-27q0-12.45,9.91-21.28c6.77-5.88,15-8.86,24.82-8.86,8.63,0,16.12,2.18,22.41,6.61s10.56,9.75,12.66,16.28l-13.46,5.56a20.21,20.21,0,0,0-7.5-10.48,24.12,24.12,0,0,0-28,.57,13.69,13.69,0,0,0-5.8,11.44A13.3,13.3,0,0,0,356,131.79c3.39,2.82,10.72,6.2,21.93,10.07,11.44,3.87,19.66,8.71,24.58,14.35C407.26,161.85,409.68,168.78,409.68,177Z"/><path class="cls-1" d="M490.2,207.23H476.34V196.51h-.65A26.38,26.38,0,0,1,465.54,206a29.55,29.55,0,0,1-14.27,3.79c-9.51,0-16.76-2.74-21.84-8.14s-7.66-13.14-7.66-23.13V129.85h14.51v47.72c.32,12.65,6.69,18.94,19.1,18.94a18.09,18.09,0,0,0,14.51-7,25.63,25.63,0,0,0,5.8-16.85v-42.8H490.2Z"/><path class="cls-1" d="M523.33,103.17a10.17,10.17,0,1,1-3-7.25A9.88,9.88,0,0,1,523.33,103.17Zm-3,26.68v77.38H505.84V129.85Z"/><path class="cls-1" d="M564.92,208.52a22.32,22.32,0,0,1-15.72-5.8c-4.19-3.87-6.29-9.35-6.37-16.29V143.15H529.21v-13.3h13.54V106.16h14.51v23.69H576.2v13.3H557.26v38.53c0,5.16,1,8.62,3,10.48A9.75,9.75,0,0,0,567,194.9a15.71,15.71,0,0,0,3.39-.41,17.18,17.18,0,0,0,3.06-1l4.6,13a37.44,37.44,0,0,1-13.14,2.1Z"/><path class="cls-1" d="M619.24,209.73c-11.36,0-20.71-3.87-28.13-11.69s-11-17.65-11-29.5,3.55-21.6,10.72-29.42,16.28-11.77,27.49-11.77c11.44,0,20.63,3.71,27.4,11.13s10.16,17.81,10.16,31.19l-.17,1.61H594.9c.24,7.58,2.74,13.7,7.58,18.3a24.43,24.43,0,0,0,17.41,6.93c9.27,0,16.52-4.59,21.76-13.86l13,6.28a39,39,0,0,1-14.43,15.32,40.94,40.94,0,0,1-21,5.48ZM596,159.19h44.41a19.21,19.21,0,0,0-6.53-13.38c-3.95-3.54-9.27-5.32-15.88-5.32a20.88,20.88,0,0,0-14.1,5.08A24.53,24.53,0,0,0,596,159.19Z"/></g><rect class="cls-2" width="835" height="300"/></svg>