<svg id="Layer_1" data-name="Layer 1" xmlns="http://www.w3.org/2000/svg" xmlns:xlink="http://www.w3.org/1999/xlink" viewBox="0 0 835 300"><defs><style>.cls-1{fill:#253858;}.cls-2{fill:#2684ff;}.cls-3{fill:url(#linear-gradient);}.cls-4{fill:url(#linear-gradient-2);}.cls-5{fill:none;}</style><linearGradient id="linear-gradient" x1="-703.02" y1="175.65" x2="-713.07" y2="165.6" gradientTransform="matrix(1.74, 0, 0, -1.74, 1286.53, 432.88)" gradientUnits="userSpaceOnUse"><stop offset="0" stop-color="#0052cc"/><stop offset="1" stop-color="#2684ff"/></linearGradient><linearGradient id="linear-gradient-2" x1="-695.36" y1="144.84" x2="-685.33" y2="154.87" xlink:href="#linear-gradient"/></defs><path id="path7981" class="cls-1" d="M499.78,108.13c-12.86,0-19.1,7.58-19.1,18.74v6.55H471V143h9.76v50.49H490.8V143h15.49v-9.55H490.8l-.1-6.25c0-5.4,3.2-9.13,9.56-9.13a33.61,33.61,0,0,1,6.48.6v-9.55a24.83,24.83,0,0,0-7-1Zm-301.64,2.23a6.75,6.75,0,0,0-6.47,7.21,7.21,7.21,0,1,0,14.41,0,6.75,6.75,0,0,0-7.21-7.2,5.9,5.9,0,0,0-.73,0Zm172.24,3c-18.38,0-27.74,9.09-27.74,21.37,0,13,8,19.09,25.7,23.42,15,3.6,19.33,7.31,19.33,14.29s-4.49,11.65-16.37,11.65c-10.44,0-21.73-2.76-29.06-6.6v11c6.13,3.12,13.21,6.13,28.47,6.13,19.58,0,27.75-9.26,27.83-22.94,0-14.22-9.38-19.57-26.07-23.78-13.92-3.48-19-6.73-19-13.21,0-7.2,6.13-10.8,16.46-10.8a48.43,48.43,0,0,1,24.56,6V119.13C389.12,116.1,381.79,113.37,370.38,113.37Zm-202,1.22,0,55.58c0,7.87-3.15,13.33-12.28,13.33a30.15,30.15,0,0,1-11.16-2V192a38.56,38.56,0,0,0,13,2c14.9,0,21.26-10,21.26-24.56V114.59Zm353.25,6.1v12.78h-9.74V143h9.77v31.68c0,11.18,6.26,18.74,19.11,18.74a25.14,25.14,0,0,0,7-.95v-10a33,33,0,0,1-6.48.85c-6.36,0-9.49-3.6-9.54-8.89V143h16v-9.55h-16V120.69Zm268.2,11.49c-18.25,0-28.34,13-28.34,31.1,0,18.42,9.84,31.39,32.3,31.39,6.13,0,13.7-.93,18.63-3.59v-9.56a52.93,52.93,0,0,1-18.26,3.25c-14.17,0-20.77-6.6-22.21-16.81h43.81v-4.68c0-18.25-7.43-31.1-25.93-31.1Zm-509.66,0c-16.81,0-25.21,14.29-25.21,31.22,0,17.66,8.05,31.23,24,31.23,9.24,0,16.45-4.08,20.3-12v10.8H309.6v-60H299.27V144c-3.62-7.8-10.34-11.76-19.11-11.76Zm156,0c-18,0-28.58,13.09-28.58,31.1s10.69,31.39,28.58,31.39,28.34-13.38,28.34-31.39S454.17,132.22,436.16,132.22Zm244.86,0c-16.81,0-25.22,14.29-25.22,31.22,0,17.66,8.05,31.23,24,31.23,9.24,0,16.44-4.08,20.29-12l0,10.8h10.33v-60H700.13V144c-3.62-7.8-10.35-11.76-19.11-11.76Zm-432.28.28c-10.33,0-15.87,4.84-19.13,11.48V133.42H219.52v60.09h10.09V158c0-12.71,8-16.72,21.26-15.36V132.57c-.74,0-1.44-.06-2.13-.07Zm506.53,0c-10.33,0-15.87,4.84-19.13,11.48V133.42H726.05v60.09h10.09V158c0-12.71,8.05-16.72,21.26-15.36V132.57c-.73,0-1.44-.06-2.13-.07Zm-204.66.92,22.1,60h13.21l10.46-29.05,5.46-18.49,5.46,18.49,10.33,29.05h13.21l22.1-60H641.53l-17.31,50.91-17.53-50.91h-9.86l-17.52,50.91L562,133.42Zm-357,0v60h10.33v-60Zm595.73,8.21c10.32,0,15.36,6.37,16,17.53H771.81v-.06c1.08-10.42,6.61-17.53,17.51-17.47Zm-506.44.12c8.82,0,16.38,5.89,16.38,19.22v4.85c0,13.33-8.28,19.21-17.52,19.22-10.71,0-16.46-7.21-16.52-21.68,0-13.93,6-21.61,17.66-21.61Zm400.86,0c8.81,0,16.37,5.89,16.37,19.22v4.85c0,13.33-8.27,19.21-17.52,19.22-10.7,0-16.5-7.21-16.5-21.62C666.09,149.51,672.14,141.88,683.74,141.77Zm-247.58.11c12.73,0,18.26,10,18.26,21.44s-5.42,21.74-18.26,21.74-18.49-10.33-18.49-21.74h.05c0-11.41,5.71-21.44,18.44-21.44Z"/><path id="path8005" class="cls-2" d="M118,151.11,73.55,106.62l-4.31-4.31-48.8,48.8a4.1,4.1,0,0,0,0,5.78L51,187.49l18.2,18.2,48.8-48.8A4.08,4.08,0,0,0,118,151.11Zm-48.8,18.17L54,154l15.28-15.29L84.53,154Z"/><path id="path8015" class="cls-3" d="M69.24,138.71a25.73,25.73,0,0,1-.1-36.28L35.69,135.86l18.2,18.21Z"/><path id="path8025" class="cls-4" d="M84.57,154,69.24,169.28a25.72,25.72,0,0,1,0,36.41l33.53-33.53Z"/><rect class="cls-5" width="835" height="300"/></svg>