<svg id="Layer_1" data-name="Layer 1" xmlns="http://www.w3.org/2000/svg" viewBox="0 0 835 300"><defs><style>.cls-1{fill:#f62b54;}.cls-2{fill:#fc0;}.cls-3{fill:#00ca72;}.cls-4,.cls-5{fill:#333;}.cls-5{fill-rule:evenodd;}.cls-6{fill:none;}</style></defs><g id="g853"><g id="g847"><path id="path841" class="cls-1" d="M25.83,196.19A17,17,0,0,1,11,187.59a16.42,16.42,0,0,1,.47-16.93L42,122.73a17.09,17.09,0,0,1,29.65.8,16.41,16.41,0,0,1-.92,16.9l-30.5,47.94A17,17,0,0,1,25.83,196.19Z"/><path id="path843" class="cls-2" d="M78.19,196.19a17,17,0,0,1-14.8-8.58,16.37,16.37,0,0,1,.47-16.88L94.33,122.9a17.08,17.08,0,0,1,29.76.68,16.41,16.41,0,0,1-1.1,17L92.53,188.39A17,17,0,0,1,78.19,196.19Z"/><ellipse id="ellipse845" class="cls-3" cx="129.38" cy="181.21" rx="15.71" ry="15.39"/></g><path id="path849" class="cls-4" d="M812.08,166.72c4.74,0,7.58,3.37,7.58,8.9v18.95h6.45V175.19c0-9.4-4.43-14.86-12.76-14.86a12.21,12.21,0,0,0-11.52,6.89,10.56,10.56,0,0,0-8.64-6.53,14.71,14.71,0,0,0-3.63-.21c-2.65.21-7.37,1.86-9.13,5.6v-5H774v33.52h6.46V176.48c0-7,4.6-9.76,9.21-9.76,4.32,0,7.16,3.3,7.16,8.83v19h6.42V176.48c0-5.6,3.36-9.83,8.86-9.76ZM750.28,189a10.61,10.61,0,0,0,7.86-3.25,10.92,10.92,0,0,0,3.06-8,10.92,10.92,0,1,0-21.83,0,10.86,10.86,0,0,0,3,8,10.59,10.59,0,0,0,7.82,3.27Zm0,6.29c-9.43,0-17.3-7-17.3-17.59s7.87-17.38,17.3-17.38,17.37,6.75,17.37,17.38-8,17.62-17.41,17.62Zm-50.5-17.59-.07,0c0-10.62,8.08-17.37,17.57-17.41A17,17,0,0,1,730,165.68l-4.89,4.16a11,11,0,0,0-7.87-3.16c-5.95,0-11.12,4.24-11.12,11A11.28,11.28,0,0,0,713,188.08a11,11,0,0,0,12.12-2.45l5,4.17a17.59,17.59,0,0,1-30.33-12.13Zm-20.65,10.47a4.46,4.46,0,0,1,4.41-4.52h0a4.46,4.46,0,0,1,4.41,4.51h0a4.41,4.41,0,0,1-8.82,0Z"/><path id="path851" class="cls-5" d="M696.77,118.44h-23l-16.09,41.5-16-41.5h-23L646.65,184l-17.36,43.35h22.79ZM557.11,154.91c0,10.48,9.15,17.37,18.15,17.37,8.84,0,17.53-6.41,17.53-17.37s-8.69-17.39-17.53-17.39c-9,0-18.15,6.9-18.15,17.39Zm35.68,36.62v-8.3c-4.66,7.05-15.53,9.72-21.1,9.72-18.46,0-36.92-14.55-36.92-38s18.46-38,36.92-38c4.65,0,15.51,1.55,21.1,9.7v-8.11h21.4v73.07h-21.4Zm-64.11,0H507.27v-9.08C503.7,189.18,495,193.1,486,193.1c-18.62,0-35.06-14.87-35.06-37.89,0-23.46,16.44-38.35,35.06-38.35,9,0,17.69,3.75,21.25,10.49V78.63h21.41Zm-21.87-36.78c0-11-7.91-17.38-16.75-17.38-9.16,0-16.77,6.89-16.77,17.38,0,10.82,7.61,17.68,16.76,17.68s16.76-7.19,16.76-17.68ZM398,152.86c0-11.11,5.74-14.87,13.34-14.87,7.29,0,12.57,4.85,12.57,14.55v39H445.5V147.85c0-20.81-10.25-31-26.54-31-8.53,0-17.06,4.85-20.94,12.21V118.44H376.48v73.08H398Zm-65.34,39.91c-20.47,0-37.55-15-37.55-38s17.06-37.9,37.55-37.9,37.71,14.88,37.71,37.9-17.23,38-37.71,38Zm0-21.27c9,0,16.45-6.59,16.45-16.75A16.48,16.48,0,0,0,321,142.94a16.31,16.31,0,0,0-4.64,11.81C316.41,164.93,323.85,171.5,332.69,171.5ZM256.49,138c6.35,0,11.94,5,11.94,14.55v39h21.41V150c0-22.07-10.73-33.18-27.93-33.18-5.11,0-14.73,1.55-21.71,13-4-8.46-11.79-12.84-23.25-12.84A20.72,20.72,0,0,0,198,129.05v-10.6H176.45v73.07H198V152.86c0-11.11,6.05-14.87,12.56-14.87,6.21,0,11.78,4.85,12,14.09v39.44h21.56V152.86c0-10.63,5.58-14.86,12.41-14.86Z"/></g><rect class="cls-6" width="835" height="300"/></svg>