<svg id="Layer_1" data-name="Layer 1" xmlns="http://www.w3.org/2000/svg" xmlns:xlink="http://www.w3.org/1999/xlink" viewBox="0 0 835 300"><defs><style>.cls-1{fill-rule:evenodd;fill:url(#linear-gradient);}.cls-2{fill:#293856;}.cls-3{fill:none;}</style><linearGradient id="linear-gradient" x1="-6630.79" y1="172.5" x2="-6630.79" y2="177.77" gradientTransform="matrix(25.21, 0, 0, -25.19, 167302.92, 4564.88)" gradientUnits="userSpaceOnUse"><stop offset="0" stop-color="#0052cc"/><stop offset="1" stop-color="#2684ff"/></linearGradient></defs><path class="cls-1" d="M203.4,86.46H102.07a15.8,15.8,0,0,0-15.8,15.78V203.42a15.81,15.81,0,0,0,15.8,15.86H203.4a15.79,15.79,0,0,0,15.78-15.86V102.24A15.8,15.8,0,0,0,203.4,86.46Zm-59.81,95.67a5.29,5.29,0,0,1-5.32,5.26H116.12a5.27,5.27,0,0,1-5.24-5.26v-65.9a5.26,5.26,0,0,1,5.24-5.26h22.15a5.29,5.29,0,0,1,5.26,5.26Zm51.1-30.26a5.26,5.26,0,0,1-5.32,5.26H167.23a5.28,5.28,0,0,1-5.26-5.26V116.23a5.28,5.28,0,0,1,5.26-5.26h22.14a5.26,5.26,0,0,1,5.24,5.26Z"/><path class="cls-2" d="M361.67,96.19v25.68H331.24v97.41H301.9V121.87H271.47V96.19Z"/><path class="cls-2" d="M399,219.28H371.89V123.47H399v18.35c5.15-12.92,13.39-20.61,28.06-19.67v28.38C407.92,149,399,153.72,399,169.08Z"/><path class="cls-2" d="M575.28,220c-17.78,0-29-8.52-29-28.66V86.46h27.32V187.62c0,5.81,3.83,7.88,8.52,7.88a30.28,30.28,0,0,0,4-.19v23.61A40.15,40.15,0,0,1,575.28,220Z"/><path class="cls-2" d="M632.26,220c-17.78,0-29-8.52-29-28.66V86.46H630.6V187.62c0,5.81,3.85,7.88,8.62,7.88a30.13,30.13,0,0,0,4-.19v23.61A39.91,39.91,0,0,1,632.26,220Z"/><path class="cls-2" d="M656.34,171.33c0-29.59,17-49.84,46.38-49.84s46,20.18,46,49.84-16.86,50.21-46,50.21S656.34,200.74,656.34,171.33Zm26.6,0c0,14.42,6,25.85,19.78,25.85s19.44-11.43,19.44-25.85-5.86-25.55-19.44-25.55S682.94,156.9,682.94,171.33Z"/><path class="cls-2" d="M463.71,180a226.67,226.67,0,0,0,22.86,1.34c20.79,0,38.33-5.58,38.33-25.7,0-19.53-18-34.2-39.73-34.2-29.22,0-47.93,21.19-47.93,50.79,0,30.72,16.14,49,52.61,49a87.49,87.49,0,0,0,31.69-5.66v-23c-9.37,3-19.91,6-30.73,6C476.29,198.57,466.18,193.8,463.71,180Zm20.9-37.65c7.69,0,13.87,5.22,13.87,12.35,0,9.18-9.69,12.05-20.85,12.05a94.79,94.79,0,0,1-14.18-1.12,32.21,32.21,0,0,1,3.77-12.78,20.07,20.07,0,0,1,17.39-10.45Z"/><rect class="cls-3" width="835" height="300"/></svg>