<svg id="Layer_1" data-name="Layer 1" xmlns="http://www.w3.org/2000/svg" viewBox="0 0 835 300"><defs><style>.cls-1{fill:none;}.cls-2{fill:#2777c6;}</style></defs><rect class="cls-1" width="835" height="300"/><g id="layer1"><g id="g3501"><path id="path3414" d="M525.11,114.24V161c0,16-19.17,29.33-42.11,29.33S440.88,177,440.88,161V114.82H423.74v45.89c0,25.56,26.73,46.47,59.26,46.47,32.82,0,59.25-20.91,59.25-46.47V114.24Z"/><path id="path3416" d="M764.44,114.24V161c0,16-19.17,29.33-42.12,29.33S680.21,177,680.21,161V114.82H663.07v45.89c0,25.56,26.72,46.47,59.25,46.47,32.82,0,59.25-20.91,59.25-46.47V114.24Z"/><path id="path3418" d="M572.16,207.47H555V114.24h17.13V152c26.72-34.85,75.52-37.75,76.1-37.75l.87,17.13c-3.19.29-77,4.65-77,76.1Z"/><path id="path3420" d="M396.15,114.24v13.94c-10.74-8.43-25.56-13.94-42.11-13.94-32.82,0-59.25,20.91-59.25,46.47s26.72,46.47,59.25,46.47c16.55,0,31.37-5.23,42.11-13.94v12.49c0,16-19.17,29.33-42.11,29.33-18.3,0-34.27-8.71-39.79-20.33L297.69,220c7.55,18.88,30.21,32.53,56.35,32.53,31.95,0,58.09-20,59.25-45h0V114.24ZM354,190c-23,0-42.12-13.36-42.12-29.33s19.17-29.34,42.12-29.34,42.11,13.36,42.11,29.34S377,190,354,190Z"/><path id="path3422" d="M188.78,186a113.21,113.21,0,0,1,23.52,8.42,106.26,106.26,0,0,1,20.62,12.78,136.21,136.21,0,0,1,17.72,16.55,106.39,106.39,0,0,1,14.23,19.75H234.38a99.41,99.41,0,0,0-33.12-26.14,97.31,97.31,0,0,0-20-7.26,90.26,90.26,0,0,0-22.07-2.61,94.41,94.41,0,0,0-22.36,2.61,86.08,86.08,0,0,0-20,7.26A102.25,102.25,0,0,0,99,228.67a90.82,90.82,0,0,0-15.1,14.81H53.43a119.18,119.18,0,0,1,14.23-20,121.43,121.43,0,0,1,18-16.55,127.79,127.79,0,0,1,20.91-12.49A132.61,132.61,0,0,1,130.11,186a101.39,101.39,0,0,1-20-7,111.89,111.89,0,0,1-18-10.45,118.24,118.24,0,0,1-16-13.36,140.35,140.35,0,0,1-13.36-16,66.52,66.52,0,0,1,6.68-9A102,102,0,0,1,77,122.08a72,72,0,0,1,8.43-7.84c2.9-2.33,5.81-4.65,8.71-6.68a17.83,17.83,0,0,1,2-7,28,28,0,0,1,4.36-5.8,17.21,17.21,0,0,1,6.1-4.07,20.25,20.25,0,0,1,7.26-1.45A17.31,17.31,0,0,1,121.68,91a24.48,24.48,0,0,1,6.39,4.36,19.17,19.17,0,0,1,4.36,6.39,13.9,13.9,0,0,1,2.32,8.13,17.31,17.31,0,0,1-1.74,7.84,24.65,24.65,0,0,1-4.36,6.39,25,25,0,0,1-6.39,4.36,22.15,22.15,0,0,1-7.84,1.45h-2a4.94,4.94,0,0,1-2-.29,7.43,7.43,0,0,1-2-.58c-.58-.29-1.45-.58-2-.87a30.82,30.82,0,0,0-3.19,2.61,30,30,0,0,1-3.2,2.61A32.19,32.19,0,0,0,96.71,136a28.36,28.36,0,0,0-2.91,2.9,99.46,99.46,0,0,0,13.65,11,68.39,68.39,0,0,0,15.69,8.42,86.08,86.08,0,0,0,17.42,5.23,101.3,101.3,0,0,0,18.59,2,79.42,79.42,0,0,0,18.59-2,109.51,109.51,0,0,0,17.43-5.23A101.63,101.63,0,0,0,210.85,150a172.32,172.32,0,0,0,13.65-11h.29v-3.49a25,25,0,0,1,1.46-8.13,21.73,21.73,0,0,1,4.35-7,17.81,17.81,0,0,1,7-4.36,23.55,23.55,0,0,1,16.27,0c2.61.88,4.64,2.62,6.68,4.36a21.73,21.73,0,0,1,4.35,7,19.78,19.78,0,0,1,0,16.27,26.72,26.72,0,0,1-4.35,6.68,17.81,17.81,0,0,1-6.68,4.35,19.39,19.39,0,0,1-8.13,1.75h-2.33a1.74,1.74,0,0,1-1.16-.29c-.29,0-.58-.29-1.16-.29a125.61,125.61,0,0,1-11.33,9.87A87.45,87.45,0,0,1,217,174.06,103,103,0,0,1,203,181c-4.07,2.33-9.3,3.78-14.23,4.94Z"/><path id="arch" class="cls-2" d="M146.37,112.78v-3.49c0-1.74-.29-3.48-.29-5.22a27.52,27.52,0,0,0-1.16-5.23,25.24,25.24,0,0,0-2.33-4.94c-.87-1.45-2-3.19-2.9-4.36a22.55,22.55,0,0,1,4.65-.58c1.74,0,3.48-.29,5.23-.29s3.48-.29,5.22-.29a8.9,8.9,0,0,1,4.65-.87A130.39,130.39,0,0,1,178,89a93.82,93.82,0,0,1,17.72,4.36,83.3,83.3,0,0,1,16.55,7,100,100,0,0,1,15.1,9.3,31,31,0,0,0-4.64,4.06,31.8,31.8,0,0,0-3.78,4.94c-.87,1.74-2,3.49-2.9,5.52a24,24,0,0,0-1.74,6.1,87.28,87.28,0,0,0-12.2-7.84,131.81,131.81,0,0,0-13.36-5.81,111.71,111.71,0,0,0-14.24-3.49,132.14,132.14,0,0,0-15.1-1.16h-7a10.87,10.87,0,0,0-3.19.29,12.73,12.73,0,0,0-2.91.58Z"/><path id="path3425" d="M140.27,140.67a17.35,17.35,0,0,1,1.74-7.85,25.33,25.33,0,0,1,4.36-6.39,19.25,19.25,0,0,1,6.39-4.35,17.31,17.31,0,0,1,7.84-1.74,19.47,19.47,0,0,1,8.13,1.74,26.36,26.36,0,0,1,6.68,4.35,24.82,24.82,0,0,1,4.36,6.39,21.95,21.95,0,0,1,0,15.69,15.66,15.66,0,0,1-4.36,6.39,17.73,17.73,0,0,1-6.68,4.35A19.33,19.33,0,0,1,160.6,161a17.18,17.18,0,0,1-7.84-1.75,24.86,24.86,0,0,1-6.39-4.35,19.27,19.27,0,0,1-4.36-6.39A17.34,17.34,0,0,1,140.27,140.67Z"/></g></g></svg>