<svg id="Layer_1" data-name="Layer 1" xmlns="http://www.w3.org/2000/svg" viewBox="0 0 835 300"><defs><style>.cls-1{fill:#0a66c2;}.cls-2{fill:none;}</style></defs><path class="cls-1" d="M758.79,224.41h0a3,3,0,0,0,3-3,1,1,0,0,0,0-.17c0-2.22-1.34-3.29-4.1-3.29h-4.44v11.65h1.67v-5.08H757l0,.06,3.2,5H762l-3.43-5.19Zm-1.94-1.17h-1.94V219.3h2.47c1.26,0,2.71.21,2.71,1.87,0,1.92-1.46,2.07-3.24,2.07M106.92,97.06h24.69v90h45.73v22.79H106.92Zm81.34,36.31H212v76.41H188.26Zm11.86-38a13.77,13.77,0,1,1-13.76,13.76,13.82,13.82,0,0,1,13.76-13.76h0m111.12,1.67H335v67.38l26.89-31.1H391l-31.14,35.38,30.49,41.1H360.47L335.29,172H335v37.77H311.25Zm-86.1,36.33h22.79v10.44h.32a24.94,24.94,0,0,1,22.47-12.34c24.06,0,28.49,15.83,28.49,36.39v41.91H275.48V172.63c0-8.87-.16-20.27-12.36-20.27S248.89,162,248.89,172v37.79H225.16Z"/><path class="cls-1" d="M440.92,162.69v-.34a14.3,14.3,0,0,0-14.22-14.23h-.35a15.9,15.9,0,0,0-16.76,14.56ZM461,196.55a41.85,41.85,0,0,1-32.45,15.2c-23.73,0-42.72-15.84-42.72-40.36s19-40.36,42.72-40.36c22.18,0,36.09,15.82,36.09,40.36v7.44H409.59a17.77,17.77,0,0,0,17.88,14.87,20.26,20.26,0,0,0,16.93-9.33Zm53.1-44.71c-11.87,0-19,7.92-19,19.46s7.12,19.47,19,19.47,19-7.9,19-19.47-7.13-19.46-19-19.46M555,209.77H533.12V199.63h-.33a29.85,29.85,0,0,1-23.59,12c-22.8,0-37.81-16.45-37.81-39.72,0-21.37,13.29-41,35.13-41,9.82,0,19,2.69,24.38,10.13h.31V97H555Zm160.18,0H691.41V172.65c0-8.86-.15-20.26-12.34-20.26-12.35,0-14.25,9.65-14.25,19.62v37.8H641.1V133.4h22.78v10.44h.32a25,25,0,0,1,22.47-12.34c24.05,0,28.48,15.81,28.48,36.39ZM614.33,123h0a13.77,13.77,0,1,1,13.77-13.77h0A13.83,13.83,0,0,1,614.33,123m11.86,86.86H602.44V133.4h23.75ZM727,73.38H590.51A11.73,11.73,0,0,0,578.7,84.92v137a11.74,11.74,0,0,0,11.81,11.56H727a11.76,11.76,0,0,0,11.86-11.56v-137A11.75,11.75,0,0,0,727,73.37m30.09,139.42a10.92,10.92,0,1,0,.21,0h-.21m0,20.59h-.16a9.58,9.58,0,1,1,9.57-9.73v.16a9.41,9.41,0,0,1-9.16,9.57h-.25"/><rect class="cls-2" width="835" height="300"/></svg>