<svg id="Layer_1" data-name="Layer 1" xmlns="http://www.w3.org/2000/svg" viewBox="0 0 835 300"><defs><style>.cls-1{fill:#3cf;}.cls-2{fill:none;}</style></defs><g id="layer1"><g id="g4147"><path id="path4223" class="cls-1" d="M110,208.7c-13.51-3.64-25.91-13.9-32.25-26.7-4.86-9.81-4.86-9.74-4.87-54.81-.57-39-.35-40.25,2.25-44A16.8,16.8,0,0,1,100.82,79c5.61,4.93,6.05,6.61,6.05,22.75v14h23.55c14.4,0,24.91.3,27.07.76a15.92,15.92,0,0,1,8.42,26.53,21.3,21.3,0,0,1-4.6,3.46c-2.68,1.45-3.67,1.51-28.61,1.71l-25.83.22v6.24c0,9.08.94,12.05,5.16,16.26,4.92,4.92,6.23,5.15,29.3,5.17,17.9,0,19.51.12,22.41,1.43,11,5,13.72,18.22,5.62,27.2-4.74,5.26-5.05,5.31-31.28,5.28-20.48,0-23.81-.18-28.06-1.33Zm104.85.3c-10.67-2.58-21.68-10.69-28.41-20.91-6.2-9.42-7.41-16.05-7.44-40.81,0-21.35.4-24,4.51-28.27,3.8-3.92,6.22-4.93,11.81-5,4.27,0,5.35.25,8.31,2.08a18,18,0,0,1,5.49,5.49c2.6,4.51,2.12,6.4,2.45,25,.34,21.11.38,21.61,2,24.17,5.38,8.65,16.5,9.92,23.88,2.73,4.26-4.15,4.66-6.59,4.66-28.39,0-17.92.08-19.13,1.46-21.89,2.78-5.53,6.8-8.45,12.74-9.27,6.36-.87,13.22,2.88,16.51,9,1.46,2.74,1.55,3.86,1.88,24.07-.12,16.82.67,21.74,2.26,24.1,5.08,7.66,15.74,9.31,22.4,3.46,4.78-4.19,4.78-4.18,5.17-27.61.34-20.11.43-21.29,1.88-24,6.1-11.47,21.54-12.19,28.26-1.33,4.34,6,2.44,18.77,2.44,27,.31,10.81-.32,24.68-2.21,28.95-5.14,14.52-16.6,26.05-30.38,30.58-6.25,2.05-20,2.55-26.23.94a48.29,48.29,0,0,1-16.09-7.39l-4.14-2.9-4.14,2.9a47.24,47.24,0,0,1-15.6,7.32c-5.16,1.34-17.89,1.34-23.44,0Zm144,.1a21.49,21.49,0,0,1-8.83-8.31c-1.5-2.82-1.51-3.13-1.51-38.55,0-34.09.06-35.84,1.36-38.46,5.4-10.89,19.34-13.34,27.8-4.89,5.25,5.26,5.24,5.13,5,44.47-.19,33.95-.22,34.64-1.69,37.36a19.58,19.58,0,0,1-8.71,8.29c-3.15,1.31-10.51,1.36-13.43.09Zm72.78-.39a51.88,51.88,0,0,1-34.51-31.31c-3.05-8.14-3.3-12.29-3.06-52.61.21-37.19.24-37.84,1.71-40.57,7.35-13.61,27.45-11.89,31.81,2.73.74,2.46,1,6.94,1,16.06v12.64l16.47.25c15.23.23,16.68.36,19.24,1.73,12.06,6.45,12.11,22.44.1,28.85-2.69,1.44-3.91,1.55-19.4,1.77l-16.52.23.23,8.09c.27,9.45,1.34,12.28,6,15.87,4.1,3.14,6.68,3.66,18.47,3.67,9.45,0,10.72.16,13.91,1.64a17,17,0,0,1,0,31c-4.12,1.87-28.24,1.82-35.47-.08Zm88.28,0c-17.46-4.78-31.8-19.45-36.32-37.17-1.11-4.36-1.24-8.75-1.24-44.36.26-37-1.57-35.52,1.89-43.13,4-7.56,12.21-10.89,20.92-8.47,3.63,1,9.74,7.12,10.75,10.75.42,1.51.75,8.61.76,16.06v13.34h14.12c16.18,0,20.47.6,24.37,3.4,8.44,6.07,8.63,19.65.36,25.64-4.12,3-8,3.56-24.32,3.56H516.71v6.28c0,8.27.95,11.75,4.22,15.47,4.47,5.07,6.12,5.55,20.46,6,12.47.36,12.55.37,16,2.47a19.65,19.65,0,0,1,8.17,12.06c1,6.31-2.3,13.42-8,17.2l-2.9,1.92-15,.15c-12.77.13-15.66,0-19.7-1.14Zm86.57.31a50.05,50.05,0,0,1-24.93-15c-8.88-9.44-12.88-19.85-12.86-33.42A47.13,47.13,0,0,1,573.47,139c3.49-7.25,7.31-12,12.95-16,16.41-11.71,45.57-12.44,63.94-1.6a47.22,47.22,0,0,1,16.75,18c6.73,13.67,6.06,26-1.65,30.07-2.67,1.39-3.91,1.45-32.07,1.64l-29.3.2v1.82c0,2.83,4.51,6.68,9.48,8.07,3.39.95,7.48,1.16,22.81,1.16,10.37,0,19.79.32,21.19.7,11.93,3.32,14.33,19.13,3.82,25.28-3.4,2.3-5.45,1.73-27.2,1.71-18,0-25.09-.28-27.67-1ZM637,147.5c-1.3-4.37-5-7-11.89-8.23-7.28-1.35-17.46,1.67-19.42,5.75-.87,1.79-1.69,3.84-1.69,3.84s6,.2,16.8.2h16.67Zm52.33,61.25c-3.57-1.94-7.38-6.45-8.28-9.82-.53-2-.7-9.66-.53-23.79.26-20.57.29-21,2.16-26.57,4.92-14.79,18.09-27,33.4-31.11,5.63-1.5,31.62-2.21,37.29-1,7.87,1.64,13,7.72,13,15.43,0,6.57-3,11.66-8.58,14.61-2.64,1.39-4.15,1.54-19.16,1.88-15.56.35-16.41.44-18.91,2a15.18,15.18,0,0,0-6.68,8.78c-.45,1.67-.75,9.94-.76,20.84,0,18.06,0,18.07-1.8,21.68a15,15,0,0,1-5,5.85c-2.83,2-3.86,2.26-8.43,2.42-4.08.15-5.73-.1-7.68-1.16ZM358,103.58a16.93,16.93,0,0,1-3.86-28c3.56-3.12,6.42-4.18,11.36-4.18a16.39,16.39,0,0,1,15.35,9.24c7.41,14.38-8.33,30.18-22.85,23Z"/></g></g><rect class="cls-2" width="835" height="300"/></svg>