<svg id="Layer_1" data-name="Layer 1" xmlns="http://www.w3.org/2000/svg" xmlns:xlink="http://www.w3.org/1999/xlink" viewBox="0 0 835 300"><defs><style>.cls-1{fill:#272525;}.cls-2{fill:#fefefe;}.cls-3{fill:url(#linear-gradient);}.cls-4{fill:none;}</style><linearGradient id="linear-gradient" x1="-2692.06" y1="-168054.15" x2="-2692.06" y2="-169145.32" gradientTransform="matrix(0.01, 0, 0, -0.01, -4853.65, -3974.24)" gradientUnits="userSpaceOnUse"><stop offset="0" stop-color="#6ebf61"/><stop offset="0.23" stop-color="#50a557"/><stop offset="0.52" stop-color="#2a904f"/><stop offset="0.81" stop-color="#50a557"/><stop offset="1" stop-color="#6ebf63"/></linearGradient></defs><path class="cls-1" d="M801.64,172.05a17.31,17.31,0,0,1-2.35,5.94,12.73,12.73,0,0,1-4.33,4.17,13.09,13.09,0,0,1-6.63,1.6,12.5,12.5,0,0,1-6.57-1.6,13.39,13.39,0,0,1-4.4-4.17,18.78,18.78,0,0,1-2.4-5.94,31.51,31.51,0,0,1-.74-6.91,35.14,35.14,0,0,1,.69-7,17.42,17.42,0,0,1,2.34-6,12.88,12.88,0,0,1,4.34-4.28,12.48,12.48,0,0,1,6.62-1.66,12.2,12.2,0,0,1,6.51,1.66,13.82,13.82,0,0,1,4.4,4.34,18.75,18.75,0,0,1,2.46,6.06,31.38,31.38,0,0,1,.74,6.91A35.58,35.58,0,0,1,801.64,172.05Zm15.19-18.45a30.3,30.3,0,0,0-4.86-10,24.81,24.81,0,0,0-8.28-6.91A25.65,25.65,0,0,0,791.76,134a23.07,23.07,0,0,0-10,2.17,17.68,17.68,0,0,0-7.48,6.91h-.23v-7.48H758.74v79.22h16.11V187h.23a19.15,19.15,0,0,0,7.54,6.51,22.64,22.64,0,0,0,10,2.23A24.73,24.73,0,0,0,804,193.24a24,24,0,0,0,8-6.69,27.75,27.75,0,0,0,4.8-9.65,39.38,39.38,0,0,0,1.6-11.36,43.62,43.62,0,0,0-1.6-12v.06Zm-79.45,18.45A17.1,17.1,0,0,1,735,178a12.76,12.76,0,0,1-4.34,4.17,13.06,13.06,0,0,1-6.63,1.6,12.65,12.65,0,0,1-6.57-1.6,13.36,13.36,0,0,1-4.39-4.17,18.33,18.33,0,0,1-2.4-5.94,31.51,31.51,0,0,1-.74-6.91,35.15,35.15,0,0,1,.68-7,17.83,17.83,0,0,1,2.34-6,13.06,13.06,0,0,1,4.34-4.28,12.49,12.49,0,0,1,6.63-1.66,12.2,12.2,0,0,1,6.51,1.66,13.92,13.92,0,0,1,4.4,4.34,19.21,19.21,0,0,1,2.46,6.06,31.37,31.37,0,0,1,.73,6.91A34.82,34.82,0,0,1,737.38,172.05Zm10.34-28.5a24.33,24.33,0,0,0-8.28-6.91A25.69,25.69,0,0,0,727.5,134a23.07,23.07,0,0,0-10,2.17,17.74,17.74,0,0,0-7.48,6.91h-.23v-7.48H694.48v79.22h16.11V187h.23a19.29,19.29,0,0,0,7.54,6.51,22.67,22.67,0,0,0,10,2.23,24.55,24.55,0,0,0,11.31-2.51,24.1,24.1,0,0,0,8-6.69,28.57,28.57,0,0,0,4.86-9.65,41.61,41.61,0,0,0,1.6-11.36,43.62,43.62,0,0,0-1.6-12,29.36,29.36,0,0,0-4.91-10v.06ZM641.71,163l10.57-29.76h.22L662.73,163Zm1.71-49.75-30.67,81h17.94l6.34-18h30.33l6.11,18H692l-30.33-81H643.42Zm-32,55.34a15.13,15.13,0,0,0-4.23-4.68,23,23,0,0,0-5.94-3q-3.39-1.11-6.85-1.94c-2.29-.51-4.52-1-6.69-1.48a50.23,50.23,0,0,1-5.82-1.55,11.66,11.66,0,0,1-4.11-2.22,4.89,4.89,0,0,1-.69-6.46,6.33,6.33,0,0,1,2.23-1.65,9.14,9.14,0,0,1,2.91-.75,29.57,29.57,0,0,1,3-.17,16.15,16.15,0,0,1,7.48,1.66c2.12,1.08,3.32,3.2,3.49,6.28h15.3a19.07,19.07,0,0,0-2.79-9,18,18,0,0,0-5.83-5.72,25.58,25.58,0,0,0-8-3.08,44.45,44.45,0,0,0-9.25-.91,50.07,50.07,0,0,0-9.31.85,24.73,24.73,0,0,0-8.16,3,16,16,0,0,0-5.83,5.71,17.53,17.53,0,0,0-2.23,9.31,12.28,12.28,0,0,0,1.6,6.51,14.09,14.09,0,0,0,4.17,4.46,26.38,26.38,0,0,0,5.94,2.86,66.56,66.56,0,0,0,6.86,1.88,98.62,98.62,0,0,1,13.48,3.6c3.19,1.2,4.79,3,4.79,5.42a6.12,6.12,0,0,1-1,3.6,7.67,7.67,0,0,1-2.58,2.29,12.64,12.64,0,0,1-3.42,1.25,16.15,16.15,0,0,1-3.6.4,17,17,0,0,1-4.57-.57,12.42,12.42,0,0,1-3.94-1.77,9.76,9.76,0,0,1-2.8-3.08,8.65,8.65,0,0,1-1.08-4.46H558.61a19.71,19.71,0,0,0,2.68,9.82,19.31,19.31,0,0,0,6.23,6.29,25.85,25.85,0,0,0,8.68,3.42,48,48,0,0,0,10,1,51,51,0,0,0,9.82-1,24.75,24.75,0,0,0,8.57-3.37,17.85,17.85,0,0,0,8.39-16,13.22,13.22,0,0,0-1.6-6.86l.06.12ZM544.78,118h-16.1v17.59h-9.77V146.4h9.77V181a15,15,0,0,0,1.48,7.14,10.67,10.67,0,0,0,4.06,4.23,17,17,0,0,0,5.88,2,46.56,46.56,0,0,0,7.08.51c1.6,0,3.2,0,4.91-.11a32.66,32.66,0,0,0,4.52-.46V181.81a14.93,14.93,0,0,1-2.4.35c-.88.06-1.75.1-2.63.11-2.74,0-4.51-.46-5.42-1.37s-1.38-2.74-1.38-5.43V146.4h11.83V135.61H544.78V118Zm-46.21,53.57a36.58,36.58,0,0,1-.28,3.66,11.26,11.26,0,0,1-1.54,4.45,10.9,10.9,0,0,1-3.89,3.83c-1.71,1.08-4.22,1.6-7.36,1.6a21.75,21.75,0,0,1-3.77-.34,9.76,9.76,0,0,1-3.2-1.2,6.17,6.17,0,0,1-2.17-2.35,7.61,7.61,0,0,1-.8-3.65,8.13,8.13,0,0,1,.8-3.77,7.9,7.9,0,0,1,2.11-2.46,11.16,11.16,0,0,1,3.09-1.54,24.2,24.2,0,0,1,3.59-.91c1.29-.23,2.59-.42,3.89-.57s2.51-.35,3.71-.58a24.57,24.57,0,0,0,3.31-.85,6.87,6.87,0,0,0,2.57-1.43v6Zm16.11,9.65V150.68a14.07,14.07,0,0,0-2.4-8.56,16.28,16.28,0,0,0-6.11-5,28.82,28.82,0,0,0-8.28-2.45,67.27,67.27,0,0,0-9-.63,50.35,50.35,0,0,0-9.71,1,26.74,26.74,0,0,0-8.68,3.26,19.86,19.86,0,0,0-6.34,6,18.88,18.88,0,0,0-2.85,9.42h16.1c.29-3.2,1.37-5.43,3.2-6.8a12.13,12.13,0,0,1,7.48-2.05,30.46,30.46,0,0,1,4.06.28,8.83,8.83,0,0,1,3.31,1.15,6.2,6.2,0,0,1,2.29,2.39,8.58,8.58,0,0,1,.85,4.17,4.45,4.45,0,0,1-1.48,3.83,11.44,11.44,0,0,1-4.34,2,43.94,43.94,0,0,1-6.23,1c-2.34.23-4.74.51-7.14.91s-4.79.91-7.19,1.54a18.83,18.83,0,0,0-6.34,2.92,15.22,15.22,0,0,0-4.57,5.13,16.91,16.91,0,0,0-1.77,8.23,18.2,18.2,0,0,0,1.54,7.83,14.82,14.82,0,0,0,4.22,5.42,18.33,18.33,0,0,0,6.34,3.2,28.35,28.35,0,0,0,7.83,1,35.76,35.76,0,0,0,10.68-1.6,21.34,21.34,0,0,0,9.08-5.54,24,24,0,0,0,1.14,5.71h16.34a13.75,13.75,0,0,1-1.6-5.43,66.36,66.36,0,0,1-.46-7.59v-.18Zm-66.37-40.55a15.82,15.82,0,0,0-6.51-4.85,26.72,26.72,0,0,0-10.62-1.78,21.27,21.27,0,0,0-9.31,2.35,18.66,18.66,0,0,0-7.82,7.42h-.35V113.27H397.6v81.05h16.1V163.54c0-6,1-10.28,3-12.91s5.14-3.89,9.54-3.89c3.83,0,6.57,1.2,8.05,3.6s2.29,6,2.29,10.85v33.13h16.11V158.23a47.9,47.9,0,0,0-1-9.94,18.43,18.43,0,0,0-3.37-7.6Zm-85.16,28.44h-.23L349.1,113.28H332.42l-14.05,55.17h-.23l-12.85-55.17H287.47l21.48,81H327l13.48-55.17h.23l13.7,55.17h17.71l9.71-36,12.11-45.06H376.46l-13.31,55.85Z"/><path class="cls-2" d="M136.4,243.1a97.06,97.06,0,0,1-53.46-16L45.59,239l12.11-36.1a97.11,97.11,0,1,1,78.65,40.21Zm0-212.7a115.61,115.61,0,0,0-99,175.23l-20.85,62,64-20.5A115.55,115.55,0,1,0,136.4,30.4Z"/><path class="cls-3" d="M136.4,48.79a97.09,97.09,0,0,0-78.65,154.1L45.64,239,83,227.05A97.15,97.15,0,1,0,136.46,48.79Z"/><path class="cls-2" d="M109.27,98.14c-1.88-4.51-3.31-4.68-6.17-4.8-1.08-.07-2.17-.11-3.25-.11-3.72,0-7.6,1.08-9.94,3.48C87.05,99.62,80,106.42,80,120.36s10.17,27.41,11.54,29.3,19.82,30.9,48.38,42.72c22.33,9.25,29,8.4,34,7.31,7.42-1.6,16.73-7.08,19.07-13.71s2.35-12.28,1.66-13.48-2.57-1.88-5.43-3.31-16.73-8.28-19.36-9.19a5.42,5.42,0,0,0-7,2.11,118.41,118.41,0,0,1-7.59,10,6.15,6.15,0,0,1-6.86,1.09,71.91,71.91,0,0,1-22.79-14.05,86.9,86.9,0,0,1-15.76-19.59c-1.66-2.86-.17-4.52,1.14-6.06,1.43-1.77,2.8-3,4.23-4.68a16.86,16.86,0,0,0,3.14-4.46c1-1.88.28-3.82-.4-5.25s-6.4-15.37-8.74-21Z"/><rect class="cls-4" width="835" height="300"/></svg>