<svg id="Layer_1" data-name="Layer 1" xmlns="http://www.w3.org/2000/svg" viewBox="0 0 835 300"><defs><style>.cls-1{fill:#20252d;fill-rule:evenodd;}.cls-2{fill:none;}</style></defs><path class="cls-1" d="M764.78,148.45a14.33,14.33,0,0,1,1.31-5.9,16.9,16.9,0,0,1,3.77-5.32,19.83,19.83,0,0,1,6.15-3.94,21.63,21.63,0,0,1,8.45-1.56,18.89,18.89,0,0,1,7.87,1.56,17.45,17.45,0,0,1,5.65,3.94,16.55,16.55,0,0,1,3.36,5.32,16.12,16.12,0,0,1,1.14,5.9Zm46.08,23.64c-.66.66-1.62,1.5-2.87,2.54a22.63,22.63,0,0,1-4.84,3,38.77,38.77,0,0,1-16.89,3.53,23.51,23.51,0,0,1-7.62-1.31,22.21,22.21,0,0,1-6.9-3.77,19.76,19.76,0,0,1-4.91-5.92,15.48,15.48,0,0,1-1.89-7.71h57.35v-2.77a65.94,65.94,0,0,0-1.95-16.07A41.33,41.33,0,0,0,814,129.45a33.05,33.05,0,0,0-11.72-10.09q-7.29-3.84-17.78-3.85a39.19,39.19,0,0,0-15.83,3.11,37.62,37.62,0,0,0-12.3,8.53,38.68,38.68,0,0,0-8,12.7,42.82,42.82,0,0,0-2.87,15.82,48.43,48.43,0,0,0,2.87,17.06,36.74,36.74,0,0,0,21.07,21.81,43.16,43.16,0,0,0,16.72,3.11,53.78,53.78,0,0,0,15.5-2,49.41,49.41,0,0,0,10.66-4.43,32.68,32.68,0,0,0,6.4-4.67l2.7-2.71-10.49-11.81Zm-85.59.33a23.72,23.72,0,0,1-8,6,24.68,24.68,0,0,1-10.49,2.21,20.84,20.84,0,0,1-9.68-2.12,20.4,20.4,0,0,1-6.8-5.57,23.8,23.8,0,0,1-4-7.71,29.48,29.48,0,0,1-1.31-8.69,31.65,31.65,0,0,1,1.31-9,21.51,21.51,0,0,1,4-7.71,20.68,20.68,0,0,1,6.8-5.33,21.48,21.48,0,0,1,9.68-2,23.3,23.3,0,0,1,10.16,2.12,24,24,0,0,1,7.71,5.9L736.92,128a39.68,39.68,0,0,0-13.12-9.1,44.85,44.85,0,0,0-33.87-.08,39.47,39.47,0,0,0-21.48,21.89,41.64,41.64,0,0,0-3,15.82,47.71,47.71,0,0,0,2.79,16.73,36.43,36.43,0,0,0,8,13,35.5,35.5,0,0,0,13,8.36,48.78,48.78,0,0,0,17.55,3A40.35,40.35,0,0,0,724,194.08a41.55,41.55,0,0,0,12.79-9.18l-11.48-12.46Zm-93.44-4.59a10.76,10.76,0,0,1-1.57,5.58,16.81,16.81,0,0,1-4,4.58,19.88,19.88,0,0,1-12.3,4.26q-6.88,0-10.42-2.78a9.28,9.28,0,0,1-3.52-7.71,11.47,11.47,0,0,1,3.77-8.44q3.76-3.69,13.12-3.69c1.2,0,2.65,0,4.35.08s3.32.13,4.85.24l5.75.33v7.55ZM632.3,195h17.93V143.38A27.46,27.46,0,0,0,648,132.14a25.07,25.07,0,0,0-6.54-8.85,30.42,30.42,0,0,0-10.23-5.74,41,41,0,0,0-13.35-2,71.63,71.63,0,0,0-12.06.9,56.16,56.16,0,0,0-9.1,2.3,40.16,40.16,0,0,0-6.88,3.11q-3,1.72-5.25,3.36l8.85,13.12a58.68,58.68,0,0,1,8.7-4.58q4.92-2.13,13.11-2.12c4.92,0,8.93,1.1,12,3.28a10.47,10.47,0,0,1,4.61,9v1.8l-6.08-.32c-1.77-.11-3.57-.19-5.42-.25s-3.56-.08-5.09-.08a49.58,49.58,0,0,0-13.76,1.8,30.59,30.59,0,0,0-10.66,5.33,24.42,24.42,0,0,0-6.89,8.69,26.94,26.94,0,0,0-2.47,11.73,24.59,24.59,0,0,0,2.38,11.15,22.59,22.59,0,0,0,6.23,7.79,26.5,26.5,0,0,0,8.53,4.51,31.12,31.12,0,0,0,9.43,1.47,33.56,33.56,0,0,0,14.26-2.95,26.58,26.58,0,0,0,9.53-6.76l.49,7.17Zm-87,0h19.4V85.55h-19.4V195ZM471,153.4a18.48,18.48,0,0,1,1.38-6.81,22.57,22.57,0,0,1,3.93-6.47,20.76,20.76,0,0,1,6.14-4.84,17,17,0,0,1,8-1.88,20.72,20.72,0,0,1,9.34,1.88,17,17,0,0,1,6.15,5.08,21.08,21.08,0,0,1,3.45,7.46,37.87,37.87,0,0,1,1.05,9.18,26.94,26.94,0,0,1-1.47,8.85,23.45,23.45,0,0,1-4.35,7.63,22.06,22.06,0,0,1-7,5.41,20.47,20.47,0,0,1-9.33,2.05c-7.76,0-13.64-1.59-17.36-4.76V153.39Zm-19.12,74.37H471V193.54c1.5.56,2.75,1.06,4,1.56a36.92,36.92,0,0,0,4.1,1.32,40.77,40.77,0,0,0,4.91.9,56.13,56.13,0,0,0,6.48.32,42.65,42.65,0,0,0,16-3.11q7.8-3.12,14.35-11a43,43,0,0,0,6.57-11.15A40.73,40.73,0,0,0,530,157a52.77,52.77,0,0,0-2.12-14.93,40.11,40.11,0,0,0-6.4-12.87,31.19,31.19,0,0,0-26.07-12.54,34.69,34.69,0,0,0-8.61,1,36.76,36.76,0,0,0-6.89,2.47,26.79,26.79,0,0,0-5.24,3.28,32.46,32.46,0,0,0-3.69,3.44l-.5-8.69H451.84ZM367.8,195h19.4V167.82l8.35-8.24L417.83,195H441L408.8,146.45l28.86-28.33H414.87l-27.68,27.22V85.55H367.78V195Zm-62.66,0h19.41V153.54a18.22,18.22,0,0,1,5.72-13.61,17.93,17.93,0,0,1,6.23-3.77,21.8,21.8,0,0,1,7.54-1.31,30.13,30.13,0,0,1,4.84.33,18,18,0,0,1,4,1.14l3.94-18.2a23.29,23.29,0,0,0-4.51-1.14,32.23,32.23,0,0,0-5-.33,28.39,28.39,0,0,0-8.45,1.14,31.22,31.22,0,0,0-6.48,2.79,25.77,25.77,0,0,0-4.83,3.61,37,37,0,0,0-3.36,3.61l-.49-9.68H305.15V195Zm-66.39-16.23a20.74,20.74,0,0,1-6.81-5.82,25.63,25.63,0,0,1-4-7.88,28.65,28.65,0,0,1-1.32-8.52,29.18,29.18,0,0,1,1.32-8.45,24.33,24.33,0,0,1,4-7.87,21.16,21.16,0,0,1,6.81-5.74,20.24,20.24,0,0,1,9.67-2.22,20,20,0,0,1,9.68,2.22,21,21,0,0,1,6.8,5.74,24.35,24.35,0,0,1,4,7.87,29.17,29.17,0,0,1,1.31,8.45,28.64,28.64,0,0,1-1.31,8.52,25.44,25.44,0,0,1-4,7.88,20.61,20.61,0,0,1-6.8,5.82,22.28,22.28,0,0,1-19.35,0Zm-20.17,6.72a39.3,39.3,0,0,0,13,8.94,44.84,44.84,0,0,0,33.62,0,39.45,39.45,0,0,0,13.05-8.94,42.45,42.45,0,0,0,8.45-44.77,39.44,39.44,0,0,0-21.5-21.91,44.72,44.72,0,0,0-33.62,0,39.44,39.44,0,0,0-21.5,21.91,42.07,42.07,0,0,0,8.45,44.77ZM178.71,190c-2.54,3-7.19,7.76-14.52,7.76-10.35,0-13.69-7.44-16.83-15.31L131.8,144.22l-15.48,38.21c-2.64,6.52-5.5,15.34-16.84,15.34S85.25,189,82.61,182.43L56.5,118.15h22l21,52.92,15.63-38.57c2.47-6.1,5.41-15.32,16.69-15.32s14.25,9.22,16.74,15.32l17,41.76A65.34,65.34,0,0,0,111,72.89a77.11,77.11,0,1,0,20.89,151.37v20.49A97.31,97.31,0,0,1,111.07,247a97,97,0,1,1,0-194,85.24,85.24,0,0,1,67.71,137Z"/><rect class="cls-2" width="835" height="300"/></svg>