<svg id="Layer_1" data-name="Layer 1" xmlns="http://www.w3.org/2000/svg" viewBox="0 0 835 300"><defs><style>.cls-1{fill:#2d8cff;fill-rule:evenodd;}.cls-2{fill:none;}</style></defs><path id="path833" class="cls-1" d="M577.73,132.06c1.95,3.37,2.59,7.19,2.8,11.5l.28,5.73v40.1l.28,5.74A17.61,17.61,0,0,0,598,212l5.71.28v-63l.28-5.73c.23-4.26.87-8.16,2.85-11.54a22.9,22.9,0,0,1,39.65.07c2,3.36,2.55,7.26,2.79,11.47l.28,5.71v40.12l.28,5.74A17.53,17.53,0,0,0,666.79,212l5.71.28V143.56a45.83,45.83,0,0,0-80.22-30.32,45.78,45.78,0,0,0-60-7.66c-4.47-5-14.45-7.88-20.19-7.88V212.3l5.74-.28c9.59-.63,16.52-7.37,16.89-16.89l.31-5.74v-40.1l.28-5.73c.24-4.33.84-8.13,2.8-11.52a22.93,22.93,0,0,1,39.67,0ZM185.42,212l5.73.27h86l-.28-5.71c-.78-9.42-7.45-16.31-16.9-16.92l-5.74-.28H202.62l68.75-68.78-.28-5.71c-.45-9.51-7.4-16.39-16.91-16.92l-5.73-.25-85.95,0,.28,5.74c.75,9.33,7.52,16.36,16.9,16.9l5.74.28H237l-68.75,68.77.29,5.74c.56,9.44,7.38,16.28,16.9,16.89Zm304.13-97.55a57.3,57.3,0,0,1,0,81h0a57.3,57.3,0,1,1,0-81ZM473.33,130.7a34.39,34.39,0,1,1-48.63,0A34.4,34.4,0,0,1,473.33,130.7Zm-144.61-33a57.34,57.34,0,1,1-.08,0Zm24.27,33a34.39,34.39,0,1,1-48.62,0,34.4,34.4,0,0,1,48.62,0Z"/><rect class="cls-2" width="835" height="300"/></svg>