<svg id="Layer_1" data-name="Layer 1" xmlns="http://www.w3.org/2000/svg" viewBox="0 0 835 300"><defs><style>.cls-1{fill:#006bff;}.cls-2{fill:#0ae8f0;}.cls-3{fill:none;}</style></defs><g id="Layer_2" data-name="Layer 2"><g id="Layer_1-2" data-name="Layer 1-2"><g id="Wordmark"><path class="cls-1" d="M493.39,142.38c12.58,0,24.49,7.7,27,24.32h-56c2.35-14.59,13.25-24.32,29-24.32M518.6,191.3c-4.28,6.66-12.54,11.79-23.86,11.79-15.6,0-27.51-8.55-30.36-23.64h70.27a42.19,42.19,0,0,0,.51-6.54c0-23.48-16.41-44.28-41.76-44.28-26.16,0-43.93,19.29-43.93,44.11,0,25.14,17.95,44.11,44.94,44.11,16.77,0,29.52-7.55,36.89-19Z"/><rect class="cls-1" x="427.98" y="92.24" width="14.59" height="122.43"/><path class="cls-1" d="M616.33,163.18v51.48H601.74V164c0-13.75-7.88-21.47-20.79-21.47-13.42,0-24.32,7.89-24.32,27.67v44.44H542V130.82h14.59V142.9c6.21-9.9,15.43-14.26,27.18-14.26,19.62,0,32.54,13.08,32.54,34.55"/><path class="cls-1" d="M696.78,172.74c0-17.11-12.91-30-29.85-30-16.77,0-29.68,12.91-29.68,30s12.91,30,29.68,30c16.93,0,29.85-12.92,29.85-30m14.59-80.5V214.67H696.78V200.24c-6.7,10.26-17.43,16.61-31.69,16.61-23.32,0-42.43-19.29-42.43-44.11s19.11-44.11,42.43-44.11c14.25,0,25,6.37,31.69,16.6v-53Z"/><rect class="cls-1" x="723.14" y="92.24" width="14.59" height="122.43"/><path class="cls-1" d="M402,172.74c0-17.11-12.91-30-29.85-30-16.77,0-29.68,12.91-29.68,30s12.91,30,29.68,30c16.92,0,29.85-12.92,29.85-30m14.59-41.92v83.84H402V200.24c-6.71,10.26-17.44,16.61-31.69,16.61-23.32,0-42.44-19.29-42.44-44.11s19.12-44.11,42.44-44.11c14.25,0,25,6.37,31.69,16.6V130.82Z"/><path class="cls-1" d="M306.2,198.53a45.41,45.41,0,1,1,13.13-77.67,44.51,44.51,0,0,1,6.92,7.14l12.62-9.23a61.12,61.12,0,1,0-11.41,85.69l.27-.21L319.33,191a46,46,0,0,1-13.13,7.57"/><path class="cls-1" d="M808.15,130.82v47.59c0,15.39-8.95,25.13-22.62,25.13S762,193.8,762,178.41V130.82H747.21V177c0,24.19,15.08,39.9,38.32,39.9,20.11,0,23.25-12.72,23.25-13V221c0,17-7.38,26.55-22.77,26.55a22.67,22.67,0,0,1-22.57-19.6l-13.2,4.62A36.7,36.7,0,0,0,786,260.86c23.87,0,36.93-15.71,36.93-39.9V130.82Z"/></g><g id="Brand_mark" data-name="Brand mark"><path class="cls-1" d="M130.82,179.67c-5.6,5-12.61,11.16-25.3,11.16H97.93a32.66,32.66,0,0,1-23.52-9.39,32.07,32.07,0,0,1-9.06-22.79V148.26a32.07,32.07,0,0,1,9.06-22.79,32.66,32.66,0,0,1,23.52-9.39h7.59c12.71,0,19.7,6.19,25.3,11.16,5.82,5.13,10.84,9.61,24.24,9.61a39,39,0,0,0,6.1-.48l0-.12a44.85,44.85,0,0,0-2.82-5.79L149.34,115a46,46,0,0,0-39.82-23H91.61a46,46,0,0,0-39.82,23l-8.95,15.5a46,46,0,0,0,0,46L51.79,192a46,46,0,0,0,39.82,23h17.91a46,46,0,0,0,39.82-23l8.95-15.48a44.73,44.73,0,0,0,2.82-5.78l0-.12a39,39,0,0,0-6.1-.51c-13.4,0-18.42,4.46-24.24,9.61"/><path class="cls-1" d="M105.52,125.49H97.93c-14,0-23.17,10-23.17,22.77v10.39c0,12.78,9.19,22.77,23.17,22.77h7.59c20.37,0,18.77-20.78,49.54-20.78a47.87,47.87,0,0,1,8.69.8,46.06,46.06,0,0,0,0-16,47.87,47.87,0,0,1-8.69.8c-30.78,0-29.17-20.78-49.54-20.78"/><path class="cls-1" d="M181.42,169a43,43,0,0,0-17.67-7.59v.15a46.44,46.44,0,0,1-2.56,8.95,33.63,33.63,0,0,1,14.6,6,.43.43,0,0,1,0,.14,78.77,78.77,0,1,1,0-46.49.57.57,0,0,0,0,.14,33.49,33.49,0,0,1-14.6,6,46.53,46.53,0,0,1,2.56,9v.15a42.84,42.84,0,0,0,17.67-7.6c5-3.72,4.06-7.94,3.3-10.43a88.28,88.28,0,1,0,0,52c.76-2.5,1.74-6.71-3.3-10.44"/><path class="cls-2" d="M161.16,136.36a36.75,36.75,0,0,1-6.1.51c-13.4,0-18.42-4.45-24.23-9.61-5.61-5-12.6-11.16-25.31-11.16H97.93a32.66,32.66,0,0,0-23.52,9.39,32.07,32.07,0,0,0-9.06,22.79v10.39a32.07,32.07,0,0,0,9.06,22.79,32.62,32.62,0,0,0,23.52,9.39h7.59c12.71,0,19.7-6.19,25.31-11.16,5.81-5.13,10.83-9.61,24.23-9.61a39,39,0,0,1,6.1.48,46.23,46.23,0,0,0,2.56-8.95v-.15a47.79,47.79,0,0,0-8.69-.8c-30.77,0-29.16,20.78-49.54,20.78H97.9c-14,0-23.17-10-23.17-22.77V148.26c0-12.78,9.19-22.77,23.17-22.77h7.59c20.38,0,18.78,20.77,49.54,20.77a46.9,46.9,0,0,0,8.69-.79v-.15a46.53,46.53,0,0,0-2.56-9"/><path class="cls-2" d="M161.16,136.36a36.75,36.75,0,0,1-6.1.51c-13.4,0-18.42-4.45-24.23-9.61-5.61-5-12.6-11.16-25.31-11.16H97.93a32.66,32.66,0,0,0-23.52,9.39,32.07,32.07,0,0,0-9.06,22.79v10.39a32.07,32.07,0,0,0,9.06,22.79,32.62,32.62,0,0,0,23.52,9.39h7.59c12.71,0,19.7-6.19,25.31-11.16,5.81-5.13,10.83-9.61,24.23-9.61a39,39,0,0,1,6.1.48,46.23,46.23,0,0,0,2.56-8.95v-.15a47.79,47.79,0,0,0-8.69-.8c-30.77,0-29.16,20.78-49.54,20.78H97.9c-14,0-23.17-10-23.17-22.77V148.26c0-12.78,9.19-22.77,23.17-22.77h7.59c20.38,0,18.78,20.77,49.54,20.77a46.9,46.9,0,0,0,8.69-.79v-.15a46.53,46.53,0,0,0-2.56-9"/></g></g></g><rect class="cls-3" width="835" height="300"/></svg>