<svg id="Layer_1" data-name="Layer 1" xmlns="http://www.w3.org/2000/svg" viewBox="0 0 835 300"><defs><style>.cls-1{fill:#34a853;}.cls-2{fill:#fbbc04;}.cls-3{fill:#ea4335;}.cls-4{fill:#4285f4;}.cls-5{fill:#5f6368;}.cls-6{fill:none;}</style></defs><g id="Layer_2" data-name="Layer 2"><g id="specs"><path class="cls-1" d="M118.65,43.79a16.59,16.59,0,0,0-13.77,25.86L112,62.57a6.56,6.56,0,0,1-.35-2.19A7,7,0,1,1,116.44,67l-7.08,7.08a16.59,16.59,0,1,0,9.29-30.32Z"/><path class="cls-2" d="M112.05,92.14a25.82,25.82,0,0,0-5.17-15.54l-9.2,9.19a13.2,13.2,0,0,1-2.52,15.92l5,12.22A26,26,0,0,0,112.05,92.14Z"/><path class="cls-3" d="M86.34,105.33H86.1A13.2,13.2,0,1,1,93.35,81.1L102.46,72A25.94,25.94,0,1,0,86.1,118.08a27.22,27.22,0,0,0,5.24-.52Z"/><path class="cls-4" d="M119,115.9a58.59,58.59,0,0,0-17,2.49l7.29,17.81A40.12,40.12,0,0,1,119,135a39.71,39.71,0,1,1-18.62,4.63l-7.21-17.76a58.87,58.87,0,1,0,25.89-6Z"/><path class="cls-5" d="M234.88,68.13h16.55V193.06h60.93v15.73H234.88Z"/><path class="cls-5" d="M336.35,202a47.33,47.33,0,0,1-17.66-18.51,56,56,0,0,1,0-51.72,47.26,47.26,0,0,1,17.66-18.51,51.15,51.15,0,0,1,51,0A47.57,47.57,0,0,1,405,131.79a56.07,56.07,0,0,1,0,51.76,47.68,47.68,0,0,1-17.66,18.51,51.2,51.2,0,0,1-51,0Zm42-12.18a32.86,32.86,0,0,0,12.31-12.75,39.37,39.37,0,0,0,4.63-19.46,39.48,39.48,0,0,0-4.63-19.46,32.79,32.79,0,0,0-12.28-12.75A32.38,32.38,0,0,0,361.85,121a32.81,32.81,0,0,0-29,17.19,39.36,39.36,0,0,0-4.62,19.46,39.39,39.39,0,0,0,4.62,19.46,33,33,0,0,0,44.77,13.18l.76-.43Z"/><path class="cls-5" d="M443.93,202a47.54,47.54,0,0,1-17.66-18.51,56,56,0,0,1,0-51.72,47.47,47.47,0,0,1,17.66-18.51,51.15,51.15,0,0,1,51,0,47.5,47.5,0,0,1,17.67,18.51,56.07,56.07,0,0,1,0,51.76,47.61,47.61,0,0,1-17.66,18.51,51.2,51.2,0,0,1-51,0Zm42-12.18a32.92,32.92,0,0,0,12.28-12.75,39.5,39.5,0,0,0,4.63-19.46,39.59,39.59,0,0,0-4.63-19.46,32.79,32.79,0,0,0-12.28-12.75A32.38,32.38,0,0,0,469.4,121a32.91,32.91,0,0,0-16.63,4.44,32.47,32.47,0,0,0-12.37,12.75,39.26,39.26,0,0,0-4.63,19.46,39.16,39.16,0,0,0,4.63,19.46,32.54,32.54,0,0,0,12.37,12.75,32.91,32.91,0,0,0,16.63,4.44A32.49,32.49,0,0,0,486,189.84Z"/><path class="cls-5" d="M530.82,68.13h16.54v88.92l49.8-50.59h21v.78l-42,42.41,40.1,58.4v.74H596.42l-31.93-47.7-17.13,17.17v30.53H530.82Z"/><path class="cls-5" d="M637.61,202.21A45.87,45.87,0,0,1,620.51,184a55,55,0,0,1-6.13-26.19,57.3,57.3,0,0,1,5.78-25.57,46.18,46.18,0,0,1,16.43-18.8,43.64,43.64,0,0,1,24.47-7q14.16,0,24.56,6.33a42.11,42.11,0,0,1,16,17.48,56.47,56.47,0,0,1,5.54,25.56,35.18,35.18,0,0,1-.38,4.91H630.43q.57,11,5.29,18.52a30.84,30.84,0,0,0,12,11.33,32.48,32.48,0,0,0,15.21,3.78q18.87,0,28.52-17.38l13.6,6.61A48,48,0,0,1,688.24,202q-10.77,6.81-25.88,6.81A47,47,0,0,1,637.61,202.21Zm52.55-54.78a31.54,31.54,0,0,0-3.4-12.09,26.13,26.13,0,0,0-9.45-10.2Q670.89,121,661.07,121a27.5,27.5,0,0,0-19.27,7.27q-7.93,7.27-10.39,19.18Z"/><path class="cls-5" d="M717.84,106.48H733.6v19h.78q2.91-8.19,11.29-13.63a31.59,31.59,0,0,1,17.49-5.42,28.88,28.88,0,0,1,11.68,2.15v17.71a31,31,0,0,0-14-3.12,23.08,23.08,0,0,0-13.24,4.1,29.46,29.46,0,0,0-9.64,11,31.79,31.79,0,0,0-3.6,14.93v55.59H717.84Z"/></g></g><rect class="cls-6" width="835" height="300"/></svg>