<svg id="Layer_1" data-name="Layer 1" xmlns="http://www.w3.org/2000/svg" viewBox="0 0 835 300"><defs><style>.cls-1{fill:#f25022;}.cls-2{fill:#7fba00;}.cls-3{fill:#00a4ef;}.cls-4{fill:#ffb900;}.cls-5{fill:#737373;}.cls-6{fill:none;}</style></defs><g id="g971"><g id="g949"><g id="g904"><rect id="rect20" class="cls-1" x="25.45" y="92.58" width="60.27" height="60.27"/><rect id="rect22" class="cls-2" x="92" y="92.58" width="60.27" height="60.27"/><rect id="rect24" class="cls-3" x="25.45" y="159.15" width="60.27" height="60.27"/><rect id="rect26" class="cls-4" x="92" y="159.15" width="60.27" height="60.27"/></g><g id="g927"><path id="path2" class="cls-5" d="M235.13,165.66l-3.56,10h-.2a95.69,95.69,0,0,0-3.37-9.86L208.94,118H190.31v76H202.6V147.25c0-2.88-.07-6.37-.19-10.36-.06-2-.29-3.63-.35-4.86h.27c.63,2.86,1.28,5,1.75,6.5L226.93,194h8.59L258.2,138a50.15,50.15,0,0,0,1.57-6H260c-.3,5.53-.55,10.59-.59,13.65V194h13.11V118H254.67Z"/><rect id="rect4" class="cls-5" x="284.9" y="139.51" width="12.81" height="54.47"/><path id="path6" class="cls-5" d="M291.44,116.36A7.73,7.73,0,0,0,286,118.5a7.07,7.07,0,0,0-2.28,5.34,6.87,6.87,0,0,0,2.26,5.24,7.78,7.78,0,0,0,5.48,2.09,7.87,7.87,0,0,0,5.51-2.09,6.83,6.83,0,0,0,2.29-5.24,7.19,7.19,0,0,0-2.23-5.28,7.64,7.64,0,0,0-5.57-2.2"/><path id="path8" class="cls-5" d="M343.07,139a35.43,35.43,0,0,0-7.16-.77,31.57,31.57,0,0,0-15.58,3.75,25.19,25.19,0,0,0-10.27,10.56,33.59,33.59,0,0,0-3.53,15.66,28.88,28.88,0,0,0,3.43,14,24.09,24.09,0,0,0,9.58,9.69,28.57,28.57,0,0,0,14,3.41c6.09,0,11.29-1.22,15.46-3.62l.16-.1V179.83l-.53.4a24.26,24.26,0,0,1-6.27,3.26,19,19,0,0,1-6.14,1.19c-5,0-9.06-1.57-12-4.68s-4.43-7.46-4.43-12.95,1.55-10,4.61-13.29a15.71,15.71,0,0,1,12-5,20.64,20.64,0,0,1,12.2,4.24l.53.39V141.06L349,141a20.94,20.94,0,0,0-5.93-2"/><path id="path10" class="cls-5" d="M385.29,138.56a13.12,13.12,0,0,0-8.57,3.07,17.3,17.3,0,0,0-4.93,7.31h-.13v-9.43H358.84V194h12.82V166.11c0-4.74,1.07-8.63,3.19-11.57a9.81,9.81,0,0,1,8.29-4.38,14.89,14.89,0,0,1,3.85.57,9.47,9.47,0,0,1,3,1.21l.54.39V139.41l-.2-.09a13.4,13.4,0,0,0-5-.76"/><path id="path12" class="cls-5" d="M420.09,138.19c-9,0-16.12,2.63-21.2,7.83s-7.66,12.37-7.66,21.35c0,8.53,2.51,15.38,7.47,20.38s11.72,7.54,20.07,7.54c8.71,0,15.7-2.67,20.79-7.93s7.65-12.37,7.65-21.15-2.41-15.57-7.18-20.53-11.48-7.49-19.94-7.49m10.18,41.94c-2.4,3-6,4.55-10.76,4.55s-8.42-1.56-11-4.64-4-7.49-4-13.09c0-5.77,1.33-10.3,4-13.44s6.3-4.71,10.93-4.71,8.08,1.51,10.65,4.5,3.88,7.49,3.88,13.33-1.23,10.46-3.66,13.5"/><path id="path14" class="cls-5" d="M475.63,162c-4-1.62-6.63-3-7.69-4a5.59,5.59,0,0,1-1.55-4.19,4.64,4.64,0,0,1,2-3.88,8.78,8.78,0,0,1,5.51-1.56,22.58,22.58,0,0,1,6.58,1,21.06,21.06,0,0,1,5.73,2.66l.54.36V140.57l-.21-.09a28.58,28.58,0,0,0-5.82-1.63,36.67,36.67,0,0,0-6.4-.66c-6.11,0-11.16,1.57-15,4.65a14.82,14.82,0,0,0-5.85,12.08,16.8,16.8,0,0,0,1.26,6.75,13.45,13.45,0,0,0,3.88,5.07,33.65,33.65,0,0,0,7.88,4.41,59.33,59.33,0,0,1,6.56,3,9.37,9.37,0,0,1,2.88,2.37,5.34,5.34,0,0,1,.81,3.09c0,3.66-2.74,5.44-8.38,5.44a23,23,0,0,1-7.09-1.3,26.69,26.69,0,0,1-7.26-3.68l-.54-.39v12.49l.19.09a32.47,32.47,0,0,0,6.88,2.13,37.19,37.19,0,0,0,7.34.85c6.64,0,12-1.58,15.87-4.67a15.1,15.1,0,0,0,5.9-12.38,14.17,14.17,0,0,0-3.17-9.35c-2.1-2.52-5.73-4.84-10.8-6.88"/><path id="path16" class="cls-5" d="M524.05,138.19c-9,0-16.11,2.63-21.2,7.83s-7.66,12.37-7.66,21.35c0,8.53,2.52,15.38,7.48,20.38s11.72,7.54,20.07,7.54c8.71,0,15.7-2.67,20.78-7.93s7.66-12.37,7.66-21.15-2.41-15.57-7.18-20.53-11.49-7.49-20-7.49m10.19,41.94c-2.4,3-6,4.55-10.76,4.55s-8.42-1.56-11-4.64-4-7.49-4-13.09c0-5.77,1.33-10.3,4-13.44s6.3-4.71,10.93-4.71,8.08,1.51,10.64,4.5,3.89,7.49,3.89,13.33-1.23,10.46-3.66,13.5"/><path id="path18" class="cls-5" d="M619.5,150V139.5h-13V123.26l-.44.13-12.18,3.73-.24.08v12.3H574.43v-6.85c0-3.19.72-5.64,2.13-7.26A7.45,7.45,0,0,1,582.5,123a13.9,13.9,0,0,1,5.64,1.29l.48.21v-11l-.23-.08a21.93,21.93,0,0,0-7.2-1A21.17,21.17,0,0,0,571,114.86a17.45,17.45,0,0,0-7,6.93A20.68,20.68,0,0,0,561.46,132v7.54h-9V150h9v44h13V150h19.23v28c0,11.52,5.43,17.36,16.15,17.36a26.22,26.22,0,0,0,5.51-.62,15.31,15.31,0,0,0,4-1.27l.17-.1V182.75l-.53.35a8.6,8.6,0,0,1-2.61,1.14,9.91,9.91,0,0,1-2.56.44c-2.51,0-4.37-.68-5.52-2s-1.76-3.7-1.76-7V150Z"/></g></g><g id="g932"><path id="path876" class="cls-5" d="M650.39,191.16V179.64a27.25,27.25,0,0,0,17.11,5.86q7.74,0,12.35-3.43a11,11,0,0,0,4.65-9.3q0-12.9-20.19-12.9h-6v-9.82H664q17.93,0,17.92-12.16,0-11.2-14-11.2a23.2,23.2,0,0,0-14.67,5.44V121.25A38.25,38.25,0,0,1,672,116.91q10.34,0,16.56,5.08a16,16,0,0,1,6.23,13q0,15-15.59,19.23v.21q8.38.8,13.26,5.76a16.78,16.78,0,0,1,4.88,12.31A20.1,20.1,0,0,1,689.48,189q-7.85,6.24-20.68,6.24-11.53,0-18.41-4.07Z"/><path id="path878" class="cls-5" d="M757,169.6A27,27,0,0,1,755,180a23.4,23.4,0,0,1-13.43,13.42,27.19,27.19,0,0,1-10.12,1.85,25.88,25.88,0,0,1-10.77-2.22,23.25,23.25,0,0,1-8.45-6.6,31.82,31.82,0,0,1-5.47-10.89,53.31,53.31,0,0,1-1.95-15.17,62.35,62.35,0,0,1,2.55-18.65,40.76,40.76,0,0,1,7.09-13.63,29.84,29.84,0,0,1,23.66-11.21,50.73,50.73,0,0,1,8,.58,22.53,22.53,0,0,1,5.79,1.59v11a38.11,38.11,0,0,0-5.9-2.32,24.63,24.63,0,0,0-7.2-1,19.67,19.67,0,0,0-8.39,1.79,18.51,18.51,0,0,0-6.66,5.29,26.23,26.23,0,0,0-4.39,8.56,40.88,40.88,0,0,0-1.62,11.73H718a17.48,17.48,0,0,1,6.72-5.92,21.94,21.94,0,0,1,10-2.16,24.26,24.26,0,0,1,9.15,1.63,18.65,18.65,0,0,1,7,4.65,20.33,20.33,0,0,1,4.49,7.4A28.51,28.51,0,0,1,757,169.6Zm-12.67,1a20.72,20.72,0,0,0-.81-6,12.06,12.06,0,0,0-2.38-4.6,10.37,10.37,0,0,0-4-3,13.86,13.86,0,0,0-5.63-1.06,13.34,13.34,0,0,0-5.74,1.17,12.38,12.38,0,0,0-4.11,3,12.72,12.72,0,0,0-2.55,4.22,15,15,0,0,0-.81,4.87,21.34,21.34,0,0,0,.76,5.54,17.3,17.3,0,0,0,2.43,5.13,13.83,13.83,0,0,0,4.12,3.86,11.82,11.82,0,0,0,6,1.48,12.82,12.82,0,0,0,5.47-1.11,10.82,10.82,0,0,0,4-3.07,13.25,13.25,0,0,0,2.44-4.6,19.07,19.07,0,0,0,.86-5.81Z"/><path id="path880" class="cls-5" d="M763.69,192.21V180.43a27.89,27.89,0,0,0,15.48,5q7.91,0,12.73-3.91A13,13,0,0,0,796.72,171a11.75,11.75,0,0,0-4.93-10q-4.87-3.58-14-3.59-3.15,0-12.73.64l2.76-39.85H806v10.46H778.25l-1.3,19c2.5-.15,4.75-.22,6.77-.22q12.35,0,19.06,6.19t6.77,16.91q0,11.25-7.74,18.07t-21.17,6.76q-11.37,0-16.95-3.12Z"/></g></g><rect class="cls-6" width="835" height="300"/></svg>