<svg id="Layer_1" data-name="Layer 1" xmlns="http://www.w3.org/2000/svg" viewBox="0 0 835 300"><path d="M116.75,198H106.39V138.28q0-7.08.87-17.31H107a55.62,55.62,0,0,1-2.66,8.62L73.94,198H68.85L38.51,130.09A53.28,53.28,0,0,1,35.84,121H35.6q.49,5.34.49,17.43V198H26V109H39.82L67.12,171a79.68,79.68,0,0,1,4.09,10.67h.37q2.67-7.32,4.28-10.92L103.72,109h13Z"/><path d="M144,118.3a6.44,6.44,0,0,1-4.65-1.86,6.29,6.29,0,0,1-1.92-4.72,6.52,6.52,0,0,1,6.57-6.64,6.59,6.59,0,0,1,4.75,1.9,6.64,6.64,0,0,1,0,9.4A6.53,6.53,0,0,1,144,118.3ZM149,198H138.78V134.43H149Z"/><path d="M212.87,195.05a33.06,33.06,0,0,1-17.38,4.41q-13.59,0-21.93-8.84t-8.35-22.93q0-15.69,9-25.22t24-9.53A33.39,33.39,0,0,1,213,136.05v10.42a25.85,25.85,0,0,0-15.14-5,20.45,20.45,0,0,0-16,7q-6.23,7-6.23,18.33,0,11.18,5.86,17.62t15.73,6.46a25.47,25.47,0,0,0,15.64-5.53Z"/><path d="M261.39,144.73q-2.67-2-7.7-2-6.51,0-10.89,6.14t-4.37,16.75V198H228.25V134.43h10.18v13.1h.25a22.18,22.18,0,0,1,6.64-10.46,15.14,15.14,0,0,1,10-3.75,16.62,16.62,0,0,1,6.08.87Z"/><path d="M299,199.46q-14.08,0-22.49-8.9T268.09,167q0-16,8.75-25t23.64-9q14.2,0,22.18,8.75t8,24.26q0,15.21-8.59,24.36T299,199.46Zm.74-58q-9.8,0-15.51,6.67t-5.71,18.39q0,11.3,5.77,17.81t15.45,6.52q9.87,0,15.18-6.39t5.3-18.18q0-11.93-5.3-18.37T299.73,141.51Z"/><path d="M343,195.67V184.75a30.12,30.12,0,0,0,18.31,6.15q13.39,0,13.4-8.94a7.72,7.72,0,0,0-1.15-4.31,11.37,11.37,0,0,0-3.1-3.13,24.07,24.07,0,0,0-4.59-2.46q-2.64-1.08-5.68-2.26a73.43,73.43,0,0,1-7.41-3.38,22.28,22.28,0,0,1-5.34-3.85,14.4,14.4,0,0,1-3.23-4.87,17.31,17.31,0,0,1-1.08-6.39,15.11,15.11,0,0,1,2.05-7.91,18,18,0,0,1,5.46-5.77,25.57,25.57,0,0,1,7.78-3.51,34.84,34.84,0,0,1,9-1.18,36.54,36.54,0,0,1,14.77,2.86v10.3a28.83,28.83,0,0,0-16.14-4.59,18.65,18.65,0,0,0-5.15.65A12.47,12.47,0,0,0,357,144a8.5,8.5,0,0,0-2.54,2.82,7.46,7.46,0,0,0-.9,3.63,8.71,8.71,0,0,0,.9,4.16,9.13,9.13,0,0,0,2.64,3,19.86,19.86,0,0,0,4.22,2.35c1.65.71,3.53,1.47,5.64,2.3a77.91,77.91,0,0,1,7.57,3.32,25.77,25.77,0,0,1,5.71,3.85,15,15,0,0,1,3.63,4.93,15.89,15.89,0,0,1,1.27,6.64,15.63,15.63,0,0,1-2.08,8.19,17.67,17.67,0,0,1-5.55,5.77,25.35,25.35,0,0,1-8,3.41,39.3,39.3,0,0,1-9.5,1.12A36,36,0,0,1,343,195.67Z"/><path d="M427.37,199.46q-14.08,0-22.5-8.9T396.47,167q0-16,8.74-25t23.64-9q14.22,0,22.19,8.75T459,166q0,15.21-8.59,24.36T427.37,199.46Zm.74-58q-9.81,0-15.51,6.67t-5.71,18.39q0,11.3,5.77,17.81t15.45,6.52q9.87,0,15.17-6.39t5.31-18.18q0-11.93-5.31-18.37T428.11,141.51Z"/><path d="M506.66,112.84a13.5,13.5,0,0,0-6.76-1.67q-10.68,0-10.67,13.46v9.8h14.89v8.69H489.23V198H479.11V143.12H468.26v-8.69h10.85v-10.3q0-10,5.77-15.79a19.49,19.49,0,0,1,14.4-5.8,19.81,19.81,0,0,1,7.38,1.12Z"/><path d="M544.51,197.35a19.65,19.65,0,0,1-9.49,2q-16.69,0-16.69-18.62v-37.6H507.41v-8.69h10.92V118.92l10.17-3.29v18.8h16v8.69h-16v35.8q0,6.39,2.18,9.12t7.19,2.73a10.67,10.67,0,0,0,6.64-2.11Z"/><path d="M660.42,109l-32.95,89H616l-32.26-89h11.6L620,179.54a41.35,41.35,0,0,1,1.8,7.88H622a38.17,38.17,0,0,1,2-8L649.19,109Z"/><path d="M677.05,118.3a6.46,6.46,0,0,1-4.66-1.86,6.29,6.29,0,0,1-1.92-4.72,6.52,6.52,0,0,1,6.58-6.64,6.57,6.57,0,0,1,4.74,1.9,6.61,6.61,0,0,1,0,9.4A6.5,6.5,0,0,1,677.05,118.3ZM682,198H671.83V134.43H682Z"/><path d="M752.56,134.43,727.24,198h-10l-24.07-63.54h11.17l16.13,46.17a41.4,41.4,0,0,1,2.23,8.87H723a41.68,41.68,0,0,1,2-8.62l16.87-46.42Z"/><path d="M809,198H798.78V188h-.24Q791.9,199.46,779,199.46q-9.5,0-14.86-5t-5.37-13.34q0-17.81,21-20.72l19-2.67q0-16.2-13.09-16.19A31.27,31.27,0,0,0,765,149.32V138.9a39.36,39.36,0,0,1,21.59-6q22.4,0,22.4,23.71Zm-10.18-32.14-15.32,2.11q-7.08,1-10.67,3.5t-3.6,8.91a9.67,9.67,0,0,0,3.32,7.6,12.84,12.84,0,0,0,8.84,3,16.33,16.33,0,0,0,12.5-5.31,18.92,18.92,0,0,0,4.93-13.43Z"/></svg>