<svg id="Layer_1" data-name="Layer 1" xmlns="http://www.w3.org/2000/svg" xmlns:xlink="http://www.w3.org/1999/xlink" viewBox="0 0 835 300"><defs><style>.cls-1{fill:#fff;}.cls-1,.cls-3,.cls-4{fill-rule:evenodd;}.cls-2{mask:url(#mask);}.cls-3{fill:#00a1e0;}.cls-4{fill:#fffffe;}.cls-5{fill:none;}</style><mask id="mask" x="230" y="29.66" width="375.22" height="262.61" maskUnits="userSpaceOnUse"><g id="b"><path id="a" class="cls-1" d="M230.41,29.66H605.22V291.47H230.41Z"/></g></mask></defs><g class="cls-2"><path class="cls-3" d="M386,58.32a65.71,65.71,0,0,1,47.54-20.39c24.8,0,46.3,13.78,57.88,34.31a79.71,79.71,0,0,1,32.65-7c44.65,0,80.89,36.51,80.89,81.57s-36.24,81.58-80.89,81.58a81.4,81.4,0,0,1-16-1.59,59.07,59.07,0,0,1-77.44,24.37,67.38,67.38,0,0,1-125.26-3,62.56,62.56,0,0,1-12.87,1.34C258,249.52,230,221.13,230,186.27a63.57,63.57,0,0,1,31.28-54.85,72.83,72.83,0,0,1,124.77-73"/></g><path class="cls-4" d="M284.62,165.8c-.23.62.09.74.16.85.71.51,1.42.88,2.14,1.3a22.94,22.94,0,0,0,11.21,2.61c7.69,0,12.48-4.09,12.48-10.67v-.13c0-6.09-5.41-8.31-10.45-9.9l-.66-.21c-3.82-1.24-7.11-2.32-7.11-4.82v-.13c0-2.15,1.93-3.74,4.91-3.74a22.18,22.18,0,0,1,9.77,2.5s.74.48,1-.24c.15-.39,1.44-3.83,1.57-4.22a.7.7,0,0,0-.37-.86,21.7,21.7,0,0,0-11-3h-.77c-7,0-12,4.25-12,10.35v.13c0,6.42,5.43,8.51,10.5,10l.82.25c3.69,1.14,6.89,2.12,6.89,4.72v.12c0,2.39-2.09,4.17-5.42,4.17a18.2,18.2,0,0,1-9.91-2.86c-.54-.31-.85-.54-1.27-.79a.61.61,0,0,0-1,.34l-1.51,4.22m112.58,0c-.24.61.08.74.16.85a24,24,0,0,0,2.14,1.3,22.94,22.94,0,0,0,11.21,2.61c7.69,0,12.47-4.09,12.47-10.68v-.13c0-6.09-5.39-8.3-10.44-9.89l-.66-.21c-3.82-1.24-7.11-2.32-7.11-4.83v-.12c0-2.15,1.93-3.74,4.9-3.74a22.15,22.15,0,0,1,9.77,2.5s.75.48,1-.24c.15-.39,1.44-3.83,1.56-4.22a.7.7,0,0,0-.37-.86,21.74,21.74,0,0,0-11-3h-.77c-7,0-12,4.25-12,10.34v.14c0,6.42,5.43,8.51,10.5,10l.82.25c3.71,1.14,6.89,2.12,6.89,4.71v.13c0,2.39-2.08,4.17-5.42,4.17A18.13,18.13,0,0,1,401,162c-.55-.31-.86-.53-1.27-.8a.66.66,0,0,0-1,.35l-1.52,4.22m76.89-12.9c0,3.72-.69,6.66-2.05,8.74a6.94,6.94,0,0,1-6.26,3.06c-2.85,0-4.89-1-6.23-3.05s-2-5-2-8.74.68-6.64,2-8.69,3.37-3,6.23-3,4.91,1,6.26,3,2.05,5,2.05,8.69m6.42-6.9a15.49,15.49,0,0,0-2.92-5.58,14,14,0,0,0-4.93-3.75,17.89,17.89,0,0,0-13.78,0,14.12,14.12,0,0,0-4.93,3.75A15.67,15.67,0,0,0,451,146a25.83,25.83,0,0,0,0,13.81,15.51,15.51,0,0,0,2.93,5.58,13.9,13.9,0,0,0,4.93,3.72,18.21,18.21,0,0,0,13.76,0,13.82,13.82,0,0,0,4.94-3.72,15.65,15.65,0,0,0,2.92-5.58,25.83,25.83,0,0,0,0-13.81m52.77,17.64a.61.61,0,0,0-.82-.39,14,14,0,0,1-3,.85,22.5,22.5,0,0,1-3.51.26,9.76,9.76,0,0,1-7.34-2.76c-1.78-1.83-2.77-4.78-2.76-8.78a13.62,13.62,0,0,1,2.47-8.46c1.55-2.07,4-3.14,7.12-3.14a21.62,21.62,0,0,1,6.79,1s.51.22.75-.44c.56-1.56,1-2.68,1.58-4.38a.58.58,0,0,0-.4-.76,25.15,25.15,0,0,0-4.28-1.08,32.72,32.72,0,0,0-4.83-.33,17.57,17.57,0,0,0-7.15,1.38,14.83,14.83,0,0,0-5.17,3.75,15.94,15.94,0,0,0-3.12,5.58,22.06,22.06,0,0,0-1,6.92c0,5.32,1.43,9.63,4.27,12.79s7.11,4.76,12.68,4.76a26,26,0,0,0,9.09-1.62.59.59,0,0,0,.26-.77l-1.58-4.35m11.23-14.33a12.57,12.57,0,0,1,1.76-5.13,6.93,6.93,0,0,1,6.22-3.15,6.74,6.74,0,0,1,6.09,3.15A10.56,10.56,0,0,1,560,149.3h-15.5Zm21.63-4.55a13.54,13.54,0,0,0-2.78-5.08,12.62,12.62,0,0,0-4.13-3.15,16.05,16.05,0,0,0-6.23-1.26,17.13,17.13,0,0,0-7.18,1.39,14.25,14.25,0,0,0-5,3.82,15.71,15.71,0,0,0-2.95,5.65,24.59,24.59,0,0,0-1,6.93,23.58,23.58,0,0,0,1,6.95,14.15,14.15,0,0,0,3.16,5.52,14.34,14.34,0,0,0,5.47,3.63,21.94,21.94,0,0,0,7.89,1.27c6.29,0,9.59-1.42,10.94-2.17.24-.14.47-.37.19-1l-1.42-4a.63.63,0,0,0-.82-.37,20.92,20.92,0,0,1-8.93,1.61c-3.37,0-5.87-1-7.44-2.57s-2.4-3.92-2.52-7.23l21.77,0a.64.64,0,0,0,.63-.57,23,23,0,0,0-.65-9.35ZM370.45,149.3a12.57,12.57,0,0,1,1.77-5.13,6.9,6.9,0,0,1,6.21-3.15,6.74,6.74,0,0,1,6.09,3.15A10.67,10.67,0,0,1,386,149.3H370.45Zm21.64-4.55a13.54,13.54,0,0,0-2.79-5.08,12.62,12.62,0,0,0-4.13-3.15,16.05,16.05,0,0,0-6.23-1.26,17.16,17.16,0,0,0-7.18,1.39,14.25,14.25,0,0,0-5,3.82,15.86,15.86,0,0,0-2.95,5.65,24.59,24.59,0,0,0-.95,6.93,23.25,23.25,0,0,0,1,6.95,13.93,13.93,0,0,0,8.61,9.15,21.92,21.92,0,0,0,7.9,1.27c6.28,0,9.59-1.42,10.94-2.17.24-.14.47-.37.18-1l-1.42-4a.63.63,0,0,0-.82-.37,20.92,20.92,0,0,1-8.93,1.61c-3.36,0-5.87-1-7.44-2.57s-2.4-3.92-2.52-7.23l21.77,0a.64.64,0,0,0,.63-.57,23,23,0,0,0-.65-9.35Zm-68.63,18.74a4.24,4.24,0,0,1-1.25-1.29,5.18,5.18,0,0,1-.65-2.82,4.78,4.78,0,0,1,1.94-4.21s1.88-1.62,6.31-1.57a44.73,44.73,0,0,1,5.9.51V164h0a44.37,44.37,0,0,1-5.87.78c-4.42.26-6.38-1.28-6.36-1.27Zm8.66-15.29c-.88-.07-2-.1-3.39-.1a20.32,20.32,0,0,0-5.35.69,13.86,13.86,0,0,0-4.53,2.1,10.69,10.69,0,0,0-3.16,3.59,10.44,10.44,0,0,0-1.16,5,11.19,11.19,0,0,0,1,5,8.92,8.92,0,0,0,2.83,3.41,11.84,11.84,0,0,0,4.43,1.91,26,26,0,0,0,5.76.59,40.08,40.08,0,0,0,6.6-.55q2.75-.48,5.47-1.06c.72-.17,1.53-.39,1.53-.39a.68.68,0,0,0,.49-.71V147.81c0-4.36-1.16-7.6-3.46-9.59s-5.63-3-10-3a35.31,35.31,0,0,0-5.83.54s-4.74.92-6.7,2.45a.66.66,0,0,0-.19.86L318,143.2a.55.55,0,0,0,.71.35,2,2,0,0,0,.36-.18,22.07,22.07,0,0,1,9.47-2.2,8.77,8.77,0,0,1,5.37,1.4c1.19.91,1.79,2.29,1.79,5.18v.92c-1.86-.27-3.58-.42-3.58-.42Zm175-11.21a.58.58,0,0,0-.31-.77h0a19.17,19.17,0,0,0-3.63-.62,10.81,10.81,0,0,0-5.61.9,9.7,9.7,0,0,0-3.67,2.72v-2.65a.63.63,0,0,0-.62-.66h-5.57a.63.63,0,0,0-.62.66v32.38a.65.65,0,0,0,.66.66h5.7a.66.66,0,0,0,.66-.66V152.68a19,19,0,0,1,.72-5.7,8.15,8.15,0,0,1,1.9-3.2,6.55,6.55,0,0,1,2.69-1.61,10.67,10.67,0,0,1,2.92-.41,12.33,12.33,0,0,1,2.38.29c.42,0,.65-.21.79-.59.38-1,1.44-4,1.64-4.56"/><path class="cls-4" d="M453.84,122.05a16,16,0,0,0-2.15-.51,16.23,16.23,0,0,0-2.95-.23c-3.94,0-7,1.11-9.21,3.3s-3.63,5.5-4.37,9.86l-.26,1.47H430a.74.74,0,0,0-.73.64l-.81,4.52c-.05.43.13.7.71.7h4.8L429.06,169a34.29,34.29,0,0,1-1.3,5.36,10.81,10.81,0,0,1-1.52,3.09,4,4,0,0,1-2,1.54,8.11,8.11,0,0,1-2.56.37,9.38,9.38,0,0,1-1.74-.2,4.73,4.73,0,0,1-1.17-.38.61.61,0,0,0-.79.35c-.18.47-1.46,4-1.61,4.42a.65.65,0,0,0,.34.87,16.83,16.83,0,0,0,2,.58,13.39,13.39,0,0,0,3.19.3,16,16,0,0,0,5.33-.82,10,10,0,0,0,4-2.81,14.47,14.47,0,0,0,2.82-4.86,40.69,40.69,0,0,0,1.91-7.3l4.9-27.71H448a.74.74,0,0,0,.73-.64l.81-4.52c.06-.43-.13-.7-.71-.7h-6.95a30.14,30.14,0,0,1,1.15-4.9,6.41,6.41,0,0,1,1.52-2.32,4.55,4.55,0,0,1,1.82-1.13,7.75,7.75,0,0,1,2.34-.34,9.22,9.22,0,0,1,1.78.18,10.33,10.33,0,0,1,1.11.28c.71.21.81,0,.95-.34l1.66-4.56a.58.58,0,0,0-.4-.76m-97.11,47a.63.63,0,0,1-.63.66h-5.76a.63.63,0,0,1-.62-.66V122.67a.63.63,0,0,1,.62-.66h5.76a.63.63,0,0,1,.63.66v46.39"/><rect class="cls-5" width="835" height="300"/></svg>