<svg id="Layer_1" data-name="Layer 1" xmlns="http://www.w3.org/2000/svg" viewBox="0 0 835 300"><defs><style>.cls-1{fill:#e01e5a;}.cls-2{fill:#36c5f0;}.cls-3{fill:#2eb67d;}.cls-4{fill:#ecb22e;}.cls-5{fill:none;}</style></defs><path d="M305,193.41l7.8-18.11c8.43,6.29,19.63,9.56,30.69,9.56,8.18,0,13.34-3.15,13.34-7.93-.13-13.33-48.93-2.89-49.31-36.35-.13-17,15-30.07,36.35-30.07,12.71,0,25.41,3.15,34.47,10.32l-7.3,18.49c-8.3-5.28-18.61-9.06-28.43-9.06-6.66,0-11.07,3.15-11.07,7.17.13,13.09,49.31,5.92,49.82,37.87,0,17.36-14.72,29.56-35.85,29.56-15.48,0-29.69-3.65-40.51-11.45M604.3,168.76a22.52,22.52,0,1,1,0-22.14l21.51-12a47.17,47.17,0,1,0,0,46ZM392.22,71.39h26.92V203.1H392.22Zm244.16,0V203.1H663.3V163.6l32,39.5h34.46l-40.63-46.92L726.7,112.4h-33L663.3,148.75V71.39ZM499.14,169c-3.9,6.41-11.95,11.19-21,11.19a22.52,22.52,0,1,1,0-45,24.84,24.84,0,0,1,21,11.57Zm0-56.61v10.69c-4.4-7.42-15.35-12.58-26.79-12.58-23.65,0-42.27,20.89-42.27,47.05s18.62,47.3,42.27,47.3c11.44,0,22.39-5.16,26.79-12.58V203h26.92V112.4Z"/><path class="cls-1" d="M138.62,168.88a16.61,16.61,0,1,1-16.6-16.6h16.6Zm8.3,0a16.61,16.61,0,0,1,33.21,0v41.51a16.61,16.61,0,1,1-33.21,0Z"/><path class="cls-2" d="M163.53,102.21a16.61,16.61,0,1,1,16.6-16.6v16.6Zm0,8.43a16.61,16.61,0,0,1,0,33.21H121.89a16.61,16.61,0,0,1,0-33.21Z"/><path class="cls-3" d="M230.07,127.24a16.61,16.61,0,1,1,16.61,16.61H230.07Zm-8.3,0a16.61,16.61,0,1,1-33.21,0V85.61a16.61,16.61,0,1,1,33.21,0Z"/><path class="cls-4" d="M205.16,193.79a16.61,16.61,0,1,1-16.6,16.6v-16.6Zm0-8.3a16.61,16.61,0,0,1,0-33.21H246.8a16.61,16.61,0,1,1,0,33.21Z"/><rect class="cls-5" width="835" height="300"/></svg>