<svg id="Layer_1" data-name="Layer 1" xmlns="http://www.w3.org/2000/svg" xmlns:xlink="http://www.w3.org/1999/xlink" viewBox="0 0 835 300"><defs><style>.cls-1{fill:#5059c9;}.cls-2{fill:#7b83eb;}.cls-3,.cls-4{isolation:isolate;}.cls-3{opacity:0.1;}.cls-4{opacity:0.2;}.cls-5{fill:url(#linear-gradient);}.cls-6{fill:#fff;}.cls-7{fill:none;}</style><linearGradient id="linear-gradient" x1="301.92" y1="-1956.62" x2="395.78" y2="-1794.05" gradientTransform="translate(0 2025.33)" gradientUnits="userSpaceOnUse"><stop offset="0" stop-color="#5a62c3"/><stop offset="0.5" stop-color="#4d55bd"/><stop offset="1" stop-color="#3940ab"/></linearGradient></defs><path class="cls-1" d="M473,117.31h72.62a12.42,12.42,0,0,1,12.42,12.42h0v66.15a45.65,45.65,0,0,1-45.65,45.65h-.22a45.64,45.64,0,0,1-45.66-45.65h0V123.8a6.49,6.49,0,0,1,6.49-6.49Z"/><circle class="cls-1" cx="522.11" cy="74.81" r="29.42"/><circle class="cls-2" cx="430.58" cy="61.73" r="42.5"/><path class="cls-2" d="M487.24,117.31H367.37a12.28,12.28,0,0,0-12,12.57v75.45a72,72,0,1,0,143.84,0V129.88A12.3,12.3,0,0,0,487.24,117.31Z"/><path class="cls-3" d="M433.85,117.31V223a12,12,0,0,1-7.46,11.05,11.48,11.48,0,0,1-4.51.92H361.14c-.85-2.16-1.63-4.32-2.29-6.54a79.61,79.61,0,0,1-3.46-23.15V129.86a12.26,12.26,0,0,1,12-12.55Z"/><path class="cls-4" d="M427.31,117.31V229.57a11.48,11.48,0,0,1-.92,4.51,12,12,0,0,1-11.05,7.45H364.21c-1.11-2.15-2.15-4.31-3.07-6.53a68.83,68.83,0,0,1-2.29-6.54,79.61,79.61,0,0,1-3.46-23.15V129.86a12.26,12.26,0,0,1,12-12.55Z"/><path class="cls-4" d="M427.31,117.31v99.18a12.06,12.06,0,0,1-12,12H358.85a79.61,79.61,0,0,1-3.46-23.15V129.86a12.26,12.26,0,0,1,12-12.55Z"/><path class="cls-4" d="M420.77,117.31v99.18a12.06,12.06,0,0,1-12,12H358.85a79.61,79.61,0,0,1-3.46-23.15V129.86a12.26,12.26,0,0,1,12-12.55Z"/><path class="cls-3" d="M433.85,83.51V104.1c-1.12.07-2.16.13-3.27.13s-2.16-.06-3.27-.13a35.22,35.22,0,0,1-6.54-1,42.52,42.52,0,0,1-29.42-25,35.86,35.86,0,0,1-2.1-6.54h32.63A12,12,0,0,1,433.85,83.51Z"/><path class="cls-4" d="M427.31,90V104.1a35.22,35.22,0,0,1-6.54-1,42.52,42.52,0,0,1-29.42-25h24A12,12,0,0,1,427.31,90Z"/><path class="cls-4" d="M427.31,90V104.1a35.22,35.22,0,0,1-6.54-1,42.52,42.52,0,0,1-29.42-25h24A12,12,0,0,1,427.31,90Z"/><path class="cls-4" d="M420.77,90v13a42.52,42.52,0,0,1-29.42-25H408.8A12,12,0,0,1,420.77,90Z"/><path class="cls-5" d="M288.91,78.08H408.78a12,12,0,0,1,12,12V209.94a12,12,0,0,1-12,12H288.91a12,12,0,0,1-12-12V90.06A12,12,0,0,1,288.91,78.08Z"/><path class="cls-6" d="M380.39,123.7h-24V189H341.16V123.7H317.31V111.05h63.08Z"/><rect class="cls-7" width="835" height="300"/></svg>